<?xml version="1.0" standalone="no"?>
<!DOCTYPE svg PUBLIC "-//W3C//DTD SVG 1.1//EN" "http://www.w3.org/Graphics/SVG/1.1/DTD/svg11.dtd" >
<svg xmlns="http://www.w3.org/2000/svg" xmlns:xlink="http://www.w3.org/1999/xlink" version="1.1">
<metadata>
Created by FontForge 20170731 at Mon Dec 14 15:55:45 2020
 By Aleksey,,,
Copyright (c) 2013-2019 Bold Monday. All rights reserved. Oskar is a trademark of Bold Monday. Unauthorised copying or modification of any of its data is illegal.
</metadata>
<defs>
<font id="HFStencil2019" horiz-adv-x="1017" >
  <font-face 
    font-family="UmSxJGMHIMsqmjo"
    font-weight="400"
    font-stretch="normal"
    units-per-em="2048"
    panose-1="2 11 5 6 3 0 0 2 0 4"
    ascent="1638"
    descent="-410"
    x-height="1249"
    cap-height="1249"
    bbox="-121 -369 6519 1749"
    underline-thickness="102"
    underline-position="-313"
    unicode-range="U+0020-E2F1"
  />
<missing-glyph horiz-adv-x="471" 
d="M82 -328v1884h307v-1884h-307z" />
    <glyph glyph-name="IJ" unicode="IJ" horiz-adv-x="1052" 
d="M131 408v841h113v-841h-113zM858 141l-82 76q45 56 45 170v862h113v-864q0 -149 -76 -244zM496 -20q-175 0 -299 102l79 74q78 -72 220 -72q143 0 221 72l80 -74q-124 -102 -301 -102z" />
    <glyph glyph-name="uniE103" unicode="HF" horiz-adv-x="1738" 
d="M248 0h-113v1249h113v-1249zM336 584v102h487v-102h-487zM1112 1147v102h553v-102h-553zM1024 0h-113v1249h113v-1249zM1608 584h-496v102h496v-102z" />
    <glyph glyph-name="uniE165" unicode="AA" horiz-adv-x="1867" 
d="M565 1155l-317 -756h428l43 -100h-514l-125 -299h-117l545 1294zM551 907l59 137l445 -1044h-119zM1403 907l59 137l443 -1044h-119zM1567 299h-541l-45 98l379 897l57 -139l-317 -756h424z" />
    <glyph glyph-name="uniE166" unicode="CT" horiz-adv-x="1736" 
d="M909 1147v102h811v-102h-811zM1372 1067v-1067h-112v1067h112zM158 666h-117q14 259 181.5 421t434.5 162h164v-102h-157q-222 0 -358 -132t-148 -349zM690 84q198 0 338 111l76 -76q-76 -65 -185 -102t-229 -37q-178 0 -323 77.5t-230.5 216t-95.5 312.5h117
q14 -221 161.5 -361.5t370.5 -140.5z" />
    <glyph glyph-name="uniE167" unicode="&#xe10d;T" horiz-adv-x="1611" 
d="M846 1147v102h749v-102h-749zM1247 1067v-1067h-112v1067h112zM158 666h-117q14 259 181.5 421t434.5 162h101v-102h-94q-222 0 -358 -132t-148 -349zM41 586h117q12 -218 147.5 -351t356.5 -133h169v-102h-174q-267 0 -434.5 162t-181.5 424z" />
    <glyph glyph-name="uniE168" unicode="CA" horiz-adv-x="1961" 
d="M41 586h117q12 -219 160 -358.5t372 -139.5q92 0 172 25l-49 -115q-62 -16 -131 -16q-266 0 -446 169.5t-195 434.5zM690 1165q-223 0 -371.5 -140t-160.5 -359h-117q15 264 197 434t452 170q120 0 228 -37.5t184 -102.5l-74 -75q-138 110 -338 110zM1509 1155l-317 -756
h428l43 -100h-514l-125 -299h-117l545 1294zM1495 907l59 137l445 -1044h-119z" />
    <glyph glyph-name="uniE169" unicode="C&#xe106;" horiz-adv-x="1961" 
d="M690 1165q-223 0 -371.5 -140t-160.5 -359h-117q15 264 197 434t452 170q120 0 228 -37.5t184 -102.5l-74 -75q-138 110 -338 110zM41 586h117q12 -219 160 -358.5t372 -139.5q92 0 172 25l-49 -115q-62 -16 -131 -16q-266 0 -446 169.5t-195 434.5zM1395 1155l57 139
l547 -1294h-119l-125 299h-512l43 100h424zM1350 1051l57 -136l-383 -915h-117z" />
    <glyph glyph-name="uniE16A" unicode="C&#xe107;" horiz-adv-x="1961" 
d="M41 586h117q12 -219 160 -358.5t372 -139.5q92 0 172 25l-49 -115q-62 -16 -131 -16q-266 0 -446 169.5t-195 434.5zM690 1165q-223 0 -371.5 -140t-160.5 -359h-117q15 264 197 434t452 170q120 0 228 -37.5t184 -102.5l-74 -75q-138 110 -338 110zM1395 1157l57 137
l547 -1294h-119zM1352 1051l55 -133l-215 -519h426l43 -100h-510l-127 -299h-117z" />
    <glyph glyph-name="uniE16B" unicode="C&#xe108;" horiz-adv-x="1961" 
d="M41 586h117q12 -219 160 -358.5t372 -139.5q92 0 172 25l-49 -115q-62 -16 -131 -16q-266 0 -446 169.5t-195 434.5zM690 1165q-223 0 -371.5 -140t-160.5 -359h-117q15 264 197 434t452 170q120 0 228 -37.5t184 -102.5l-74 -75q-138 110 -338 110zM1452 1294l344 -817
h-117l-284 678zM1350 1051l57 -136l-383 -915h-117zM1290 399h541l168 -399h-119l-127 299h-502z" />
    <glyph glyph-name="uniE16C" unicode="DO" horiz-adv-x="2027" 
d="M1337 1165q-154 0 -274 -69q-23 39 -76 82q153 92 350 92q274 0 455 -169.5t195 -436.5h-117q-14 222 -161.5 361.5t-371.5 139.5zM1870 584h117q-15 -265 -197.5 -434.5t-452.5 -169.5q-198 0 -352 92q47 41 74 84q128 -72 278 -72q223 0 371 139.5t162 360.5zM248 0
h-113v1249h113v-1249zM496 1147h-160v102h162q283 0 466 -175.5t183 -448.5t-183 -449t-466 -176h-162v102h160q236 0 386 147t150 376q0 230 -151 376t-385 146z" />
    <glyph glyph-name="uniE16D" unicode="&#xe10e;&#xe12a;" horiz-adv-x="2011" 
d="M1321 1165q-154 0 -274 -69q-23 39 -76 82q153 92 350 92q275 0 455 -169t194 -437h-115q-15 222 -163 361.5t-371 139.5zM1853 584h117q-15 -265 -197 -434.5t-452 -169.5q-199 0 -350 92q49 45 73 84q128 -72 277 -72q223 0 370.5 139.5t161.5 360.5zM487 0h-151v102
h151q232 0 380.5 147t148.5 376q0 230 -149.5 376t-381.5 146h-350v102h350q185 0 332.5 -79.5t230 -222t82.5 -322.5q0 -273 -181.5 -449t-461.5 -176zM248 0h-113v1067h113v-1067z" />
    <glyph glyph-name="uniE16E" unicode="&#xe10f;&#xe12a;" horiz-adv-x="2011" 
d="M1321 1165q-154 0 -274 -69q-23 39 -76 82q153 92 350 92q275 0 455 -169t194 -437h-115q-15 222 -163 361.5t-371 139.5zM1853 584h117q-15 -265 -197 -434.5t-452 -169.5q-199 0 -350 92q49 45 73 84q128 -72 277 -72q223 0 370.5 139.5t161.5 360.5zM1130 666h-116
q-14 213 -160 347t-367 134h-151v102h151q270 0 449.5 -163t193.5 -420zM248 182h-113v1067h113v-1067zM485 102q222 0 369.5 135t159.5 349h116q-9 -171 -93.5 -304.5t-228.5 -207.5t-323 -74h-350v102h350z" />
    <glyph glyph-name="uniE16F" unicode="&#xe110;&#xe12a;" horiz-adv-x="2011" 
d="M1321 1165q-154 0 -274 -69q-23 39 -76 82q153 92 350 92q275 0 455 -169t194 -437h-115q-15 222 -163 361.5t-371 139.5zM1853 584h117q-15 -265 -197 -434.5t-452 -169.5q-199 0 -350 92q49 45 73 84q128 -72 277 -72q223 0 370.5 139.5t161.5 360.5zM485 0h-350v102
h350q233 0 382 147t149 376q0 230 -149.5 376t-379.5 146h-151v102h151q280 0 461.5 -175.5t181.5 -448.5q0 -180 -82.5 -323t-230 -222.5t-332.5 -79.5zM248 182h-113v1067h113v-1067z" />
    <glyph glyph-name="uniE170" unicode="&#xe111;&#xe106;" horiz-adv-x="1826" 
d="M1260 1155l59 139l545 -1294h-119l-123 299h-514l43 100h426zM336 1147v102h434v-102h-434zM248 0h-113v1249h113v-571h483v-103h-483v-575zM336 0v102h481l400 949l57 -136l-383 -915h-555z" />
    <glyph glyph-name="uniE171" unicode="&#xe111;&#xe108;" horiz-adv-x="1826" 
d="M1319 1294l342 -817h-117l-282 678zM248 0h-113v1249h113v-571h483v-103h-483v-575zM336 1147v102h434v-102h-434zM336 0v102h481l400 949l57 -136l-383 -915h-555zM1157 399h539l168 -399h-119l-125 299h-504z" />
    <glyph glyph-name="uniE172" unicode="&#xe112;&#xe106;" horiz-adv-x="1820" 
d="M135 496h113v-394h563l399 949l58 -136l-383 -915h-750v496zM1253 1155l60 139l545 -1294h-119l-123 299h-514l43 100h426zM248 760h-113v489h629v-102h-516v-387zM135 575v103h590v-103h-590z" />
    <glyph glyph-name="uniE173" unicode="&#xe112;&#xe108;" horiz-adv-x="1820" 
d="M135 496h113v-394h563l399 949l58 -133l-383 -918h-750v496zM248 760h-113v489h629v-102h-516v-387zM1313 1294l342 -817h-117l-283 678zM1151 399h539l168 -399h-119l-125 299h-504zM135 575v103h590v-103h-590z" />
    <glyph glyph-name="uniE174" unicode="&#xe113;&#xe106;" horiz-adv-x="1826" 
d="M248 496v-394h569l400 949l57 -136l-383 -915h-756v496h113zM1260 1155l59 139l545 -1294h-119l-123 299h-514l43 100h426zM135 575v674h113v-571h483v-103h-596zM336 1147v102h434v-102h-434z" />
    <glyph glyph-name="uniE175" unicode="&#xe113;&#xe108;" horiz-adv-x="1826" 
d="M248 496v-394h569l400 949l57 -133l-383 -918h-756v496h113zM135 575v674h113v-571h483v-103h-596zM1319 1294l342 -817h-117l-282 678zM1157 399h539l168 -399h-119l-125 299h-504zM336 1147v102h434v-102h-434z" />
    <glyph glyph-name="uniE176" unicode="EA" horiz-adv-x="1828" 
d="M1264 1155l57 139l545 -1294h-117l-125 299h-512l43 100h424zM248 0h-113v1249h113v-1249zM336 0v102h485l398 949l57 -136l-383 -915h-557zM336 1147v102h438v-102h-438zM336 575v103h403v-103h-403z" />
    <glyph glyph-name="uniE177" unicode="E&#xe108;" horiz-adv-x="1828" 
d="M248 0h-113v1249h113v-1249zM336 0v102h485l398 949l57 -133l-383 -918h-557zM1321 1294l344 -817h-117l-284 678zM1159 399h539l168 -399h-119l-125 299h-504zM336 1147v102h438v-102h-438zM336 575v103h403v-103h-403z" />
    <glyph glyph-name="uniE178" unicode="&#xe111;T" horiz-adv-x="1708" 
d="M248 0h-113v1249h113v-571h483v-103h-483v-575zM336 1147v102h1356v-102h-1356zM1343 1067v-1067h-112v1067h112zM336 0v102h434v-102h-434z" />
    <glyph glyph-name="uniE179" unicode="&#xe113;T" horiz-adv-x="1705" 
d="M135 575v674h113v-569h479v-105h-592zM336 1147v102h1354v-102h-1354zM1339 1067v-1067h-112v1067h112zM248 496v-394h516v-102h-629v496h113z" />
    <glyph glyph-name="uniE17A" unicode="ET" horiz-adv-x="1718" 
d="M248 0h-113v1249h113v-1249zM336 1147v102h1366v-102h-1366zM1354 1067v-1067h-113v1067h113zM336 0v102h438v-102h-438zM336 575v103h403v-103h-403z" />
    <glyph glyph-name="uniE17B" unicode="EZ" horiz-adv-x="1800" 
d="M336 1147v102h1454l-59 -102h-1395zM248 0h-113v1249h113v-1249zM1559 1067h122l-649 -1067h-129zM336 575v103h414v-103h-414zM336 0v102h530l-59 -102h-471zM1128 0l62 102h571v-102h-633z" />
    <glyph glyph-name="uniE17C" unicode="E&#xe142;" horiz-adv-x="1800" 
d="M1143 182h-129l651 1067h125zM336 1147v102h1233l-60 -102h-1173zM248 0h-113v1249h113v-1249zM336 575v103h414v-103h-414zM1761 0h-858l62 102h796v-102zM336 0v102h530l-59 -102h-471z" />
    <glyph glyph-name="uniE17D" unicode="E&#xe143;" horiz-adv-x="1800" 
d="M336 1147v102h1235l-60 -102h-1175zM248 0h-113v1249h113v-1249zM1032 0h-129l762 1249h125zM336 575v103h414v-103h-414zM336 0v102h530l-59 -102h-471zM1128 0l62 102h571v-102h-633z" />
    <glyph glyph-name="uniE17E" unicode="E&#xe144;" horiz-adv-x="1800" 
d="M336 1147v102h1454l-59 -102h-1395zM248 0h-113v1249h113v-1249zM1683 1067l-540 -885h-131l547 885h124zM336 575v103h414v-103h-414zM336 0v102h530l-59 -102h-471zM1761 0h-858l62 102h796v-102z" />
    <glyph glyph-name="uniE17F" unicode="&#xe111;&#xe142;" horiz-adv-x="1800" 
d="M336 1147v102h1235l-60 -102h-1175zM248 0h-113v1249h113v-571h483v-103h-483v-575zM1145 182h-131l651 1067h125zM1761 0h-858l62 102h796v-102zM336 0v102h434v-102h-434z" />
    <glyph glyph-name="uniE180" unicode="&#xe111;&#xe143;" horiz-adv-x="1800" 
d="M336 1147v102h1235l-60 -102h-1175zM248 0h-113v1249h113v-571h483v-103h-483v-575zM1034 0h-131l762 1249h125zM1128 0l62 102h571v-102h-633zM336 0v102h434v-102h-434z" />
    <glyph glyph-name="uniE181" unicode="FT" horiz-adv-x="1576" 
d="M248 0h-113v1249h113v-608h463v-102h-463v-539zM336 1147v102h1225v-102h-1225zM1212 1067v-1067h-112v1067h112z" />
    <glyph glyph-name="uniE182" unicode="&#xe118;E" horiz-adv-x="1787" 
d="M1683 1147h-673v102h673v-102zM1120 573v103h525v-103h-525zM1683 0h-563v102h563v-102zM158 664h-117q14 261 181.5 423t434.5 162h263v-102h-258q-222 0 -357.5 -132.5t-146.5 -350.5zM920 0v573h-302v103h414v-676h-112zM657 0q-267 0 -434.5 161.5t-181.5 422.5h117
q8 -142 69.5 -250t172.5 -169.5t257 -62.5h174v-102h-174z" />
    <glyph glyph-name="uniE183" unicode="GR" horiz-adv-x="1753" 
d="M1120 545v98h152q118 0 191 68.5t73 185.5q0 116 -72.5 183t-191.5 67h-264v102h268q168 0 272.5 -98t104.5 -254q0 -157 -104 -254.5t-269 -97.5h-160zM1210 463q66 0 127 10l396 -473h-138zM158 664h-117q14 261 181.5 423t434.5 162h263v-102h-258
q-222 0 -357.5 -132.5t-146.5 -350.5zM920 0v545h-302v100h414v-645h-112zM657 0q-267 0 -434.5 161.5t-181.5 422.5h117q8 -142 69.5 -250t172.5 -169.5t257 -62.5h174v-102h-174z" />
    <glyph glyph-name="uniE184" unicode="HB" horiz-adv-x="1771" 
d="M1110 586v102h221q103 0 169.5 65.5t66.5 172.5q0 101 -66.5 162t-169.5 61h-221v100h223q155 0 251.5 -89t96.5 -232q0 -97 -45.5 -173.5t-122.5 -113.5q97 -37 152 -114t55 -181q0 -154 -103 -250t-269 -96h-238v98h233q117 0 190 68t73 182q0 111 -72.5 174.5
t-190.5 63.5h-233zM1022 0h-113v1249h113v-1249zM821 586h-573v-586h-113v1249h113v-561h573v-102z" />
    <glyph glyph-name="uniE185" unicode="H&#xe109;" horiz-adv-x="1765" 
d="M821 586h-573v-586h-113v1249h113v-561h573v-102zM1110 592v96h193q116 0 187 65.5t71 172.5q0 101 -66.5 162t-169.5 61h-416v100h418q155 0 251.5 -89.5t96.5 -231.5q0 -151 -104 -243.5t-271 -92.5h-190zM1022 0h-113v1069h113v-1069zM1587 596q127 -93 127 -248
q0 -154 -103.5 -251t-269.5 -97h-231v98h227q117 0 188.5 68t71.5 184q0 132 -110 195q44 13 100 51z" />
    <glyph glyph-name="uniE186" unicode="H&#xe10b;" horiz-adv-x="1765" 
d="M1110 586v102h215q103 0 169.5 65.5t66.5 172.5q0 101 -66.5 162t-169.5 61h-416v100h418q155 0 251.5 -89t96.5 -232q0 -97 -45.5 -173.5t-122.5 -113.5q97 -37 152 -114t55 -181q0 -154 -103.5 -250t-269.5 -96h-231v98h227q117 0 189.5 68t72.5 182q0 111 -72 174.5
t-190 63.5h-227zM821 586h-573v-586h-113v1249h113v-561h573v-102zM1022 0h-113v1069h113v-1069z" />
    <glyph glyph-name="uniE187" unicode="&#xe11b;B" horiz-adv-x="1771" 
d="M336 586v102h573v561h113v-1249h-113v586h-573zM248 0h-113v1249h113v-1249zM1110 586v102h221q103 0 169.5 65.5t66.5 172.5q0 101 -66.5 162t-169.5 61h-221v100h223q155 0 251.5 -89t96.5 -232q0 -97 -45.5 -173.5t-122.5 -113.5q97 -37 152 -114t55 -181
q0 -154 -103 -250t-269 -96h-238v98h233q117 0 190 68t73 182q0 111 -72.5 174.5t-190.5 63.5h-233z" />
    <glyph glyph-name="uniE188" unicode="HD" horiz-adv-x="1966" 
d="M909 1249h113v-1249h-113v1249zM821 586h-573v-586h-113v1249h113v-561h573v-102zM1276 0h-166v102h166q234 0 383 147t149 376q0 231 -149.5 376.5t-380.5 145.5h-168v102h168q185 0 333 -79.5t231 -222t83 -322.5q0 -273 -183 -449t-466 -176z" />
    <glyph glyph-name="uniE189" unicode="H&#xe10e;" horiz-adv-x="1949" 
d="M1110 0v102h156q232 0 380 147t148 376q0 230 -149 376t-381 146h-355v102h355q185 0 332.5 -79.5t230 -222t82.5 -322.5q0 -273 -181.5 -449t-461.5 -176h-156zM1022 0h-113v1067h113v-1067zM821 586h-573v-586h-113v1249h113v-561h573v-102z" />
    <glyph glyph-name="uniE18A" unicode="H&#xe10f;" horiz-adv-x="1945" 
d="M1905 666h-117q-14 213 -159.5 347t-366.5 134h-152v102h152q270 0 449.5 -163t193.5 -420zM1022 182h-113v1067h113v-1067zM1260 102q222 0 369 135t159 349h117q-9 -171 -93.5 -304.5t-228.5 -207.5t-323 -74h-351v102h351zM821 586h-573v-586h-113v1249h113v-561h573
v-102z" />
    <glyph glyph-name="uniE18B" unicode="H&#xe110;" horiz-adv-x="1949" 
d="M1264 0h-355v102h355q233 0 381.5 147t148.5 376q0 230 -149 376t-379 146h-156v102h156q280 0 461.5 -175.5t181.5 -448.5q0 -180 -82.5 -323t-230 -222.5t-332.5 -79.5zM1022 182h-113v1067h113v-1067zM821 586h-573v-586h-113v1249h113v-561h573v-102z" />
    <glyph glyph-name="uniE18C" unicode="&#xe11b;D" horiz-adv-x="1966" 
d="M1274 1147h-164v102h164q187 0 336 -79.5t232 -222t83 -322.5q0 -135 -48.5 -251.5t-134.5 -198.5t-207 -128.5t-261 -46.5h-164v102h164q234 0 384 147t150 376q0 230 -150 376t-384 146zM336 586v102h573v561h113v-1249h-113v586h-573zM248 0h-113v1249h113v-1249z" />
    <glyph glyph-name="uniE18D" unicode="HE" horiz-adv-x="1769" 
d="M821 586h-573v-586h-113v1249h113v-561h573v-102zM1022 0h-113v1249h113v-1249zM1110 1147v102h555v-102h-555zM1110 586v102h520v-102h-520zM1110 102h555v-102h-555v102z" />
    <glyph glyph-name="uniE18E" unicode="H&#xe111;" horiz-adv-x="1744" 
d="M1110 1147v102h530v-102h-530zM1110 0v102h530v-102h-530zM821 586h-573v-586h-113v1249h113v-561h573v-102zM1022 0h-113v1249h113v-561h584v-102h-584v-586z" />
    <glyph glyph-name="uniE18F" unicode="H&#xe113;" horiz-adv-x="1744" 
d="M821 586h-573v-586h-113v1249h113v-561h573v-102zM1110 1147v102h530v-102h-530zM909 584v665h113v-563h577v-102h-690zM1022 506v-404h618v-102h-731v506h113z" />
    <glyph glyph-name="uniE190" unicode="&#xe11b;E" horiz-adv-x="1769" 
d="M336 586v102h573v561h113v-1249h-113v586h-573zM248 0h-113v1249h113v-1249zM1110 1147v102h555v-102h-555zM1110 586v102h520v-102h-520zM1110 102h555v-102h-555v102z" />
    <glyph glyph-name="uniE191" unicode="HH" horiz-adv-x="1931" 
d="M821 586h-573v-586h-113v1249h113v-561h573v-102zM1796 0h-113v1249h113v-1249zM1595 586h-573v-586h-113v1249h113v-561h573v-102z" />
    <glyph glyph-name="uniE192" unicode="H&#xe11b;" horiz-adv-x="1931" 
d="M1110 586v102h573v561h113v-1249h-113v586h-573zM909 1249h113v-1249h-113v1249zM821 586h-573v-586h-113v1249h113v-561h573v-102z" />
    <glyph glyph-name="uniE193" unicode="&#xe11b;&#xe11b;" horiz-adv-x="1931" 
d="M1110 586v102h573v561h113v-1249h-113v586h-573zM336 586v102h573v561h113v-1249h-113v586h-573zM248 0h-113v1249h113v-1249z" />
    <glyph glyph-name="uniE194" unicode="HK" horiz-adv-x="1697" 
d="M909 1249h113v-1249h-113v1249zM821 586h-573v-586h-113v1249h113v-561h573v-102zM1729 1249l-619 -692v152l485 540h134zM1153 483l76 78l495 -561h-141z" />
    <glyph glyph-name="uniE195" unicode="&#xe11b;K" horiz-adv-x="1697" 
d="M336 586v102h573v561h113v-1249h-113v586h-573zM248 0h-113v1249h113v-1249zM1729 1249l-619 -692v152l485 540h134zM1153 483l76 78l495 -561h-141z" />
    <glyph glyph-name="uniE196" unicode="&#xe11c;K" horiz-adv-x="1697" 
d="M248 766h-113v483h113v-483zM1022 582h-774v-582h-113v686h774v563h113v-667zM1022 502v-502h-113v502h113zM1729 1249l-619 -661v145l485 516h134zM1153 512l76 80l495 -592h-141z" />
    <glyph glyph-name="uniE197" unicode="H&#xe120;" horiz-adv-x="1689" 
d="M821 586h-573v-586h-113v1249h113v-561h573v-102zM909 629v620h113v-489zM1147 487l74 78l495 -565h-137zM1022 475v-475h-113v498l680 751h131z" />
    <glyph glyph-name="uniE198" unicode="H&#xe121;" horiz-adv-x="1691" 
d="M821 586h-573v-586h-113v1249h113v-561h573v-102zM1227 688l-68 80l430 481h135zM1022 1249v-1249h-113v1249h113zM1110 524v168l608 -692h-139z" />
    <glyph glyph-name="uniE199" unicode="&#xe11b;&#xe121;" horiz-adv-x="1693" 
d="M1022 1249v-1249h-113v586h-573v102h573v561h113zM248 0h-113v1249h113v-1249zM1110 524v168l608 -692h-139zM1227 688l-68 80l430 481h135z" />
    <glyph glyph-name="uniE19A" unicode="HL" horiz-adv-x="1533" 
d="M1028 182h-113v1067h113v-1067zM1501 102v-102h-586v102h586zM827 586h-579v-586h-113v1249h113v-561h579v-102z" />
    <glyph glyph-name="uniE19B" unicode="HM" horiz-adv-x="2174" 
d="M821 586h-573v-586h-113v1249h113v-561h573v-102zM1839 1040v-155l-364 -473l-420 540l-146 176v166l566 -723zM2040 0h-113v1155l113 139v-1294zM1022 858v-858h-113v987z" />
    <glyph glyph-name="uniE19C" unicode="H&#xe124;" horiz-adv-x="2174" 
d="M821 586h-573v-586h-113v1249h113v-561h573v-102zM1475 412l-566 716v166l566 -723l565 723v-159zM1022 858v-858h-113v987zM1927 858l113 137v-995h-113v858z" />
    <glyph glyph-name="uniE19D" unicode="H&#xe125;" horiz-adv-x="2174" 
d="M821 586h-573v-586h-113v1249h113v-561h573v-102zM1022 1159v-1159h-113v1294zM1110 883v164l365 -476l565 723v-159l-565 -723zM1927 858l113 137v-995h-113v858z" />
    <glyph glyph-name="uniE19E" unicode="H&#xe126;" horiz-adv-x="2172" 
d="M1927 1155l111 139v-1294h-111v1155zM1022 0h-113v1294l113 -135v-1159zM1110 883v164l365 -476l364 476v-156l-364 -479zM821 586h-573v-586h-113v1249h113v-561h573v-102z" />
    <glyph glyph-name="uniE19F" unicode="&#xe11b;M" horiz-adv-x="2172" 
d="M248 0h-113v1249h113v-1249zM2038 0h-111v1155l111 139v-1294zM1839 1047v-156l-364 -479l-566 714v166l566 -721zM336 588v102h573l113 -112v-578h-113v588h-573z" />
    <glyph glyph-name="uniE1A0" unicode="&#xe11b;&#xe124;" horiz-adv-x="2172" 
d="M1475 412l-566 716v166l566 -723l563 723v-159zM248 0h-113v1249h113v-1249zM1927 858l111 137v-995h-111v858zM336 588v102h573l113 -112v-578h-113v588h-573z" />
    <glyph glyph-name="uniE1A1" unicode="&#xe11b;&#xe125;" horiz-adv-x="2172" 
d="M336 586v102h573v606l113 -137v-1157h-113v586h-573zM248 0h-113v1249h113v-1249zM1110 883v164l365 -476l563 723v-159l-563 -723zM1927 858l111 137v-995h-111v858z" />
    <glyph glyph-name="uniE1A2" unicode="H&#xe127;" horiz-adv-x="1984" 
d="M821 586h-573v-586h-113v1249h113v-561h573v-102zM1022 0h-113v1292l113 -133v-1159zM1849 254l-112 133v862h112v-995zM1108 1051l741 -934v-160l-741 934v160z" />
    <glyph glyph-name="uniE1A3" unicode="HN" horiz-adv-x="1984" 
d="M821 586h-573v-586h-113v1249h113v-561h573v-102zM1849 119v-162l-940 1173v162zM1849 254l-112 133v862h112v-995zM1022 862v-862h-113v995z" />
    <glyph glyph-name="uniE1A4" unicode="H&#xe128;" horiz-adv-x="1984" 
d="M821 586h-573v-586h-113v1249h113v-561h573v-102zM1649 197l-740 933v164l740 -936v-161zM1849 -43l-112 131v1161h112v-1292zM1022 862v-862h-113v995z" />
    <glyph glyph-name="uniE1A5" unicode="&#xe11b;N" horiz-adv-x="1984" 
d="M1849 119v-162l-940 1173v162zM248 0h-113v1249h113v-1249zM1022 578v-578h-113v586h-573v102h573zM1849 254l-110 133v862h110v-995z" />
    <glyph glyph-name="uniE1A6" unicode="&#xe11b;&#xe127;" horiz-adv-x="1984" 
d="M336 586v102h573v604l111 -131v-1161h-111v586h-573zM248 0h-113v1249h113v-1249zM1108 1051l741 -934v-160l-741 934v160zM1849 254l-110 131v864h110v-995z" />
    <glyph glyph-name="uniE1A7" unicode="&#xe11b;&#xe128;" horiz-adv-x="1984" 
d="M248 0h-113v1249h113v-1249zM1849 -43l-110 131v1161h110v-1292zM336 586v102h573l113 -110v-578h-113v586h-573zM1651 197l-742 933v164l742 -936v-161z" />
    <glyph glyph-name="uniE1A8" unicode="HO" horiz-adv-x="2209" 
d="M1075 940v154q176 176 445 176q186 0 334.5 -82.5t231.5 -229.5t83 -331q0 -186 -84 -334t-232.5 -230.5t-332.5 -82.5q-269 0 -445 176v153q68 -106 184 -165.5t259 -59.5q234 0 384 153t150 388t-150 387.5t-384 152.5q-143 0 -259 -59.5t-184 -165.5zM248 0h-113v1249
h113v-563h540v-102h-540v-584zM987 999v-749q-55 70 -86 169.5t-31 207.5q0 106 31 204.5t86 167.5z" />
    <glyph glyph-name="uniE1A9" unicode="HP" horiz-adv-x="1769" 
d="M1022 0h-113v1249h113v-1249zM821 586h-573v-586h-113v1249h113v-561h573v-102zM1266 399h-156v103h152q147 0 239 88t92 235q0 146 -92.5 234t-240.5 88h-150v102h154q200 0 322 -119.5t122 -304.5q0 -187 -121 -306.5t-321 -119.5z" />
    <glyph glyph-name="uniE1AA" unicode="H&#xe12c;" horiz-adv-x="1757" 
d="M1253 399h-147v103h143q147 0 238.5 88t91.5 235q0 146 -92.5 234t-241.5 88h-336v102h342q200 0 322.5 -119.5t122.5 -304.5q0 -187 -122 -306.5t-321 -119.5zM1022 0h-113v1067h113v-1067zM821 586h-573v-586h-113v1249h113v-561h573v-102z" />
    <glyph glyph-name="uniE1AB" unicode="H&#xe12d;" horiz-adv-x="1767" 
d="M821 586h-573v-586h-113v1249h113v-561h573v-102zM1022 0h-113v1249h113v-747h238q147 0 238 88t91 235q0 146 -92.5 234t-241.5 88h-145v102h152q200 0 322 -119.5t122 -304.5q0 -187 -121.5 -306.5t-320.5 -119.5h-242v-399z" />
    <glyph glyph-name="uniE1AC" unicode="H&#xe12e;" horiz-adv-x="1763" 
d="M821 586h-573v-586h-113v1249h113v-561h573v-102zM1022 582h-113v667h113v-667zM1022 0h-113v502h346q148 0 240 88.5t92 234.5t-93 234t-241 88h-143v102h147q200 0 322.5 -119.5t122.5 -304.5q0 -187 -121 -306.5t-321 -119.5h-238v-399z" />
    <glyph glyph-name="uniE1AD" unicode="&#xe11b;P" horiz-adv-x="1765" 
d="M336 586v102h567v561h113v-1249h-113v586h-567zM248 0h-113v1249h113v-1249zM1260 399h-156v103h153q146 0 238 88.5t92 234.5t-93 234t-241 88h-149v102h153q201 0 324 -119t123 -305q0 -187 -122 -306.5t-322 -119.5z" />
    <glyph glyph-name="uniE1AE" unicode="HR" horiz-adv-x="1783" 
d="M821 586h-573v-586h-113v1249h113v-561h573v-102zM1022 1249v-1249h-113v1249h113zM1110 545v102h193q120 0 193 67t73 183t-73 183t-193 67h-193v102h197q168 0 272 -98t104 -254q0 -157 -103 -254.5t-267 -97.5h-203zM1243 463q64 0 125 10l395 -473h-135z" />
    <glyph glyph-name="uniE1AF" unicode="H&#xe132;" horiz-adv-x="1765" 
d="M1104 545v100h184q119 0 191.5 67.5t72.5 184.5q0 115 -73.5 182.5t-192.5 67.5h-383v102h387q168 0 272.5 -98t104.5 -254q0 -157 -103.5 -254.5t-267.5 -97.5h-192zM1016 0h-113v1067h113v-1067zM1608 0l-383 465q66 0 127 10l393 -475h-137zM815 586h-567v-586h-113
v1249h113v-561h567v-102z" />
    <glyph glyph-name="uniE1B0" unicode="&#xe11b;R" horiz-adv-x="1783" 
d="M336 586v102h573v561h113v-1249h-113v586h-573zM248 0h-113v1249h113v-1249zM1110 545v102h193q120 0 193 67t73 183t-73 183t-193 67h-193v102h197q168 0 272 -98t104 -254q0 -157 -103 -254.5t-267 -97.5h-203zM1243 463q64 0 125 10l395 -473h-135z" />
    <glyph glyph-name="uniE1B1" unicode="HU" horiz-adv-x="1886" 
d="M821 586h-573v-586h-113v1249h113v-561h573v-102zM1294 -16q-183 19 -284 130t-101 289v846h113v-850q0 -128 71 -212t201 -99v-104zM1382 -16v104q130 15 201.5 98.5t71.5 212.5v850h112v-846q0 -178 -101 -289t-284 -130z" />
    <glyph glyph-name="uniE1B2" unicode="H&#xe138;" horiz-adv-x="1886" 
d="M1759 311l-106 51q2 12 2 37v850h112v-846q0 -51 -8 -92zM1024 362l-106 -51q-9 47 -9 92v846h113v-850q0 -25 2 -37zM942 229l102 47q29 -90 106.5 -141t186.5 -51q111 0 188 51t107 141l103 -47q-45 -118 -149 -183.5t-249 -65.5t-247.5 65.5t-147.5 183.5zM821 586
h-573v-586h-113v1249h113v-561h573v-102z" />
    <glyph glyph-name="uniE1B3" unicode="&#xe11b;U" horiz-adv-x="1886" 
d="M1294 -16q-183 19 -284 130t-101 289v183h-573v102h573v561h113v-850q0 -128 71 -212t201 -99v-104zM1382 -16v104q130 15 201.5 98.5t71.5 212.5v850h112v-846q0 -178 -101 -289t-284 -130zM248 0h-113v1249h113v-1249z" />
    <glyph glyph-name="uniE1B4" unicode="&#xe11b;&#xe138;" horiz-adv-x="1886" 
d="M248 0h-113v1249h113v-1249zM336 586v102h573v561h113v-850q0 -25 2 -37l-106 -51q-9 47 -9 92v183h-573zM1759 311l-106 51q2 12 2 37v850h112v-846q0 -30 -8 -92zM942 229l102 47q29 -90 106.5 -141t186.5 -51q111 0 188 51t107 141l103 -47q-45 -118 -149 -183.5
t-249 -65.5t-247.5 65.5t-147.5 183.5z" />
    <glyph glyph-name="uniE1B5" unicode="JK" horiz-adv-x="1280" 
d="M524 111l-78 77q46 64 46 166v895h112v-897q0 -142 -80 -241zM231 84q93 0 154 45l76 -78q-86 -71 -230 -71q-142 0 -231 71l76 78q64 -45 155 -45zM1311 1249l-619 -692v152l486 540h133zM735 483l76 78l498 -561h-144z" />
    <glyph glyph-name="uniE1B6" unicode="J&#xe121;" horiz-adv-x="1275" 
d="M809 688l-68 80l430 481h136zM692 524v168l611 -692h-142zM524 111l-78 77q46 64 46 166v895h112v-897q0 -142 -80 -241zM231 84q93 0 154 45l76 -78q-86 -71 -230 -71q-142 0 -231 71l76 78q64 -45 155 -45z" />
    <glyph glyph-name="uniE1B7" unicode="LA" horiz-adv-x="1824" 
d="M248 182h-113v1067h113v-1067zM719 102l-45 -102h-539v102h584zM1372 1155l-317 -756h428l43 -100h-514l-125 -299h-117l545 1294zM1358 907l59 137l445 -1044h-119z" />
    <glyph glyph-name="uniE1B8" unicode="L&#xe106;" horiz-adv-x="1824" 
d="M248 182h-113v1067h113v-1067zM719 102l-45 -102h-539v102h584zM1257 1155l58 139l547 -1294h-119l-125 299h-512l43 100h424zM1212 1051l58 -136l-383 -915h-117z" />
    <glyph glyph-name="uniE1B9" unicode="L&#xe107;" horiz-adv-x="1824" 
d="M248 182h-113v1067h113v-1067zM719 102l-45 -102h-539v102h584zM1257 1157l58 137l547 -1294h-119zM1214 1051l56 -133l-215 -519h426l43 -100h-510l-127 -299h-117z" />
    <glyph glyph-name="uniE1BA" unicode="L&#xe108;" horiz-adv-x="1824" 
d="M248 182h-113v1067h113v-1067zM719 102l-45 -102h-539v102h584zM1315 1294l344 -817h-117l-285 678zM1212 1051l58 -136l-383 -915h-117zM1153 399h541l168 -399h-119l-127 299h-502z" />
    <glyph glyph-name="uniE1BB" unicode="&#xe123;A" horiz-adv-x="1824" 
d="M248 666h-113v583h113v-583zM248 586v-484h471l-45 -102h-539v586h113zM1372 1155l-317 -756h428l43 -100h-514l-125 -299h-117l545 1294zM1358 907l59 137l445 -1044h-119z" />
    <glyph glyph-name="uniE1BC" unicode="&#xe123;&#xe106;" horiz-adv-x="1824" 
d="M248 666h-113v583h113v-583zM248 586v-484h471l-45 -102h-539v586h113zM1257 1155l58 139l547 -1294h-119l-125 299h-512l43 100h424zM1212 1051l58 -136l-383 -915h-117z" />
    <glyph glyph-name="uniE1BD" unicode="&#xe123;&#xe107;" horiz-adv-x="1824" 
d="M248 666h-113v583h113v-583zM248 586v-484h471l-45 -102h-539v586h113zM1257 1157l58 137l547 -1294h-119zM1214 1051l56 -133l-215 -519h426l43 -100h-510l-127 -299h-117z" />
    <glyph glyph-name="uniE1BE" unicode="&#xe123;&#xe108;" horiz-adv-x="1824" 
d="M248 666h-113v583h113v-583zM248 586v-484h471l-45 -102h-539v586h113zM1315 1294l344 -817h-117l-285 678zM1212 1051l58 -136l-383 -915h-117zM1153 399h541l168 -399h-119l-127 299h-502z" />
    <glyph glyph-name="uniE1BF" unicode="LS" horiz-adv-x="1409" 
d="M248 182h-113v1067h113v-1067zM717 102v-102h-582v102h582zM1001 698l-49 -92q-133 59 -191.5 136.5t-58.5 199.5q0 135 101.5 221t261.5 86h233v-102h-227q-114 0 -184 -57t-70 -148q0 -85 43 -141.5t141 -102.5zM1030 565l49 94q148 -67 208.5 -141t60.5 -194
q0 -144 -106 -234t-275 -90h-162v102h156q122 0 197 61.5t75 160.5q0 82 -45 135t-158 106z" />
    <glyph glyph-name="uniE1C0" unicode="MB" horiz-adv-x="2015" 
d="M1065 1040v-155l-365 -473l-565 716v166l565 -723zM1266 0h-113v1155l113 139v-1294zM248 858v-858h-113v987zM1354 598v102h219q104 0 170.5 61.5t66.5 164.5q0 101 -66.5 162t-170.5 61h-219v100h223q155 0 251.5 -89t96.5 -232q0 -92 -45 -165t-123 -110
q97 -37 152 -117.5t55 -189.5q0 -154 -104 -250t-271 -96h-235v98h233q117 0 188.5 68t71.5 182q0 116 -71.5 183t-188.5 67h-233z" />
    <glyph glyph-name="uniE1C1" unicode="MD" horiz-adv-x="2209" 
d="M1065 1040v-155l-365 -473l-565 716v166l565 -723zM1266 0h-113v1153l113 141v-1294zM248 858v-858h-113v987zM1520 0h-166v102h166q234 0 383 147t149 376q0 230 -150 376t-380 146h-168v102h168q185 0 333 -79.5t231 -222t83 -322.5q0 -273 -183 -449t-466 -176z" />
    <glyph glyph-name="uniE1C2" unicode="ME" horiz-adv-x="2013" 
d="M1065 1040v-155l-365 -473l-565 716v166l565 -723zM1266 0h-113v1153l113 141v-1294zM248 858v-858h-113v987zM1354 1147v102h555v-102h-555zM1354 575v105h520v-105h-520zM1354 102h555v-102h-555v102z" />
    <glyph glyph-name="uniE1C3" unicode="M&#xe111;" horiz-adv-x="1988" 
d="M1266 0h-113v1153l113 141v-614h583v-105h-583v-575zM1065 1040v-155l-365 -473l-565 716v166l565 -723zM248 858v-858h-113v987zM1354 0v102h530v-102h-530zM1354 1147v102h530v-102h-530z" />
    <glyph glyph-name="uniE1C4" unicode="M&#xe113;" horiz-adv-x="1988" 
d="M1065 1040v-155l-365 -473l-565 716v166l565 -723zM1153 575v578l113 141v-616h577v-103h-690zM1266 496v-394h618v-102h-731v496h113zM248 858v-858h-113v987zM1354 1147v102h530v-102h-530z" />
    <glyph glyph-name="uniE1C5" unicode="MH" horiz-adv-x="2174" 
d="M1065 1040v-155l-365 -473l-565 716v166l565 -723zM1266 0h-113v1153l113 141v-1294zM248 858v-858h-113v987zM1927 586h-573v102h573v561h113v-1249h-113v586z" />
    <glyph glyph-name="uniE1C6" unicode="MK" horiz-adv-x="1941" 
d="M1065 1040v-155l-365 -473l-565 716v166l565 -723zM1266 0h-113v1249h113v-1249zM248 858v-858h-113v987zM1972 1249l-618 -692v152l483 540h135zM1397 483l76 78l495 -561h-141z" />
    <glyph glyph-name="uniE1C7" unicode="ML" horiz-adv-x="1771" 
d="M1739 102v-102h-586v102h586zM1065 1040v-155l-365 -473l-565 716v166l565 -723zM1264 182h-111v971l111 141v-1112zM248 858v-858h-113v987z" />
    <glyph glyph-name="uniE1C8" unicode="MM" horiz-adv-x="2416" 
d="M1065 1040v-155l-365 -473l-565 716v166l565 -723zM248 858v-858h-113v987zM1266 1159v-1159h-113v1294zM1354 883v164l364 -476l563 723v-159l-563 -723zM2171 858l110 137v-995h-110v858z" />
    <glyph glyph-name="uniE1C9" unicode="MN" horiz-adv-x="2242" 
d="M1065 1040v-155l-365 -473l-565 716v166l565 -723zM1266 0h-113v1155l113 139v-1294zM248 858v-858h-113v987zM2107 254l-110 129v866h110v-995zM1354 1057l753 -940v-160l-753 940v160z" />
    <glyph glyph-name="uniE1CA" unicode="MO" horiz-adv-x="2410" 
d="M1030 942v-151l-313 -379l-582 721v161l586 -727zM248 862v-862h-113v991zM1188 999v-749q-55 70 -86 169.5t-31 207.5q0 106 31 204.5t86 167.5zM1276 940v154q176 176 444 176q186 0 334.5 -82.5t232 -229.5t83.5 -331q0 -186 -84.5 -334t-233 -230.5t-332.5 -82.5
q-268 0 -444 176v153q68 -106 183.5 -165.5t258.5 -59.5q234 0 384.5 153t150.5 388t-150.5 387.5t-384.5 152.5q-143 0 -258.5 -59.5t-183.5 -165.5z" />
    <glyph glyph-name="uniE1CB" unicode="MR" horiz-adv-x="2033" 
d="M1354 545v102h198q119 0 192 67.5t73 182.5t-73 182.5t-192 67.5h-198v102h202q168 0 272.5 -98t104.5 -254q0 -158 -103.5 -255t-268.5 -97h-207zM1491 463q66 0 127 10l395 -473h-137zM1065 1040v-155l-365 -473l-565 716v166l565 -723zM1266 0h-113v1155l113 139
v-1294zM248 858v-858h-113v987z" />
    <glyph glyph-name="uniE1CC" unicode="MU" horiz-adv-x="2129" 
d="M1626 -16v104q130 15 201 98t71 213v850h113v-846q0 -178 -101 -289t-284 -130zM1538 -16q-183 19 -284 130t-101 289v752l113 139v-895q0 -128 71 -212t201 -99v-104zM1065 1040v-155l-365 -473l-565 716v166l565 -723zM248 858v-858h-113v987z" />
    <glyph glyph-name="uniE1CD" unicode="NB" horiz-adv-x="1824" 
d="M1163 598v102h221q104 0 170 61.5t66 164.5q0 101 -66 162t-170 61h-221v100h223q155 0 252 -89t97 -232q0 -92 -45 -165t-123 -110q97 -37 152 -117.5t55 -189.5q0 -154 -103.5 -250t-269.5 -96h-238v98h234q117 0 189.5 68t72.5 182q0 115 -72.5 182.5t-189.5 67.5
h-234zM877 197l-742 933v164l742 -936v-161zM1075 -43l-110 131v1161h110v-1292zM246 862v-862h-111v993z" />
    <glyph glyph-name="uniE1CE" unicode="ND" horiz-adv-x="2019" 
d="M1329 0h-166v102h166q234 0 383.5 147t149.5 376q0 230 -149.5 376t-381.5 146h-168v102h168q185 0 333 -79.5t231 -222t83 -322.5q0 -273 -183 -449t-466 -176zM285 950l-150 180v164l742 -936v-161zM1075 -43l-110 131v1161h110v-1292zM246 862v-862h-111v993z" />
    <glyph glyph-name="uniE1CF" unicode="&#xe128;&#xe10e;" horiz-adv-x="2017" 
d="M877 197l-742 933v164l742 -936v-161zM1075 -43l-110 131v979h110v-1110zM246 862v-862h-111v993zM1329 0h-166v102h166q233 0 382 147t149 376q0 230 -149.5 376t-383.5 146h-362v102h362q283 0 466 -175.5t183 -448.5q0 -180 -83 -323t-231 -222.5t-333 -79.5z" />
    <glyph glyph-name="uniE1D0" unicode="NE" horiz-adv-x="1822" 
d="M1163 1147v102h555v-102h-555zM1163 575v105h520v-105h-520zM1163 102h555v-102h-555v102zM1075 119v-162l-940 1173v162zM1075 254l-110 131v864h110v-995zM246 862v-862h-111v993z" />
    <glyph glyph-name="uniE1D1" unicode="NG" horiz-adv-x="2136" 
d="M1051 313v-149l-916 979v151zM246 897v-897h-111v1012zM1532 1270q120 0 228 -37.5t184 -102.5l-74 -75q-138 110 -338 110q-232 0 -382.5 -152.5t-150.5 -387.5q0 -94 17 -146l-123 127q-4 16 -4 41q0 174 82 316.5t229.5 224.5t331.5 82zM2091 541h-504v102h504v-102z
M1532 -20q-112 0 -214.5 34t-178.5 95v139q73 -79 174 -121.5t219 -42.5q177 0 289 95.5t129 262.5h123q-29 -218 -176.5 -340t-364.5 -122z" />
    <glyph glyph-name="uniE1D2" unicode="&#xe128;&#xe117;" horiz-adv-x="2117" 
d="M784 664v-144l-649 627v147zM246 922v-922h-111v1024zM981 1001v-753q-55 69 -86 169t-31 208q0 109 31 208t86 168zM2073 541h-504v102h504v-102zM1513 1270q120 0 228 -37.5t184 -102.5l-74 -75q-138 110 -338 110q-144 0 -256.5 -58.5t-187.5 -166.5v154
q176 176 444 176zM1513 -20q-268 0 -444 176v159q72 -108 187 -169.5t257 -61.5q177 0 289 95.5t129 262.5h123q-29 -218 -176.5 -340t-364.5 -122z" />
    <glyph glyph-name="uniE1D3" unicode="NH" horiz-adv-x="1984" 
d="M877 197l-742 933v164l742 -936v-161zM1075 -43l-110 131v1161h110v-1292zM246 862v-862h-111v993zM1737 586h-574v102h574v561h112v-1249h-112v586z" />
    <glyph glyph-name="uniE1D4" unicode="NK" horiz-adv-x="1748" 
d="M1782 1249l-619 -692v152l486 540h133zM1206 485l78 82l492 -567h-140zM877 197l-742 933v164l742 -936v-161zM1075 -43l-110 131v1161h110v-1292zM246 862v-862h-111v993z" />
    <glyph glyph-name="uniE1D5" unicode="N&#xe127;" horiz-adv-x="2039" 
d="M1905 254l-111 131v864h111v-995zM1163 1051l742 -934v-160l-742 934v160zM1075 119v-162l-940 1173v162zM246 862v-862h-111v993zM1075 254l-110 133v905l110 -131v-907z" />
    <glyph glyph-name="uniE1D6" unicode="NN" horiz-adv-x="1642" 
d="M1075 119v-162l-940 1173v162zM1507 -43l-940 1176v159l940 -1173v-162zM246 862v-862h-111v993zM1507 254l-112 133v862h112v-995z" />
    <glyph glyph-name="uniE1D7" unicode="NO" horiz-adv-x="2217" 
d="M1055 311v-151l-920 983v151zM2068 997l-98 -57q-71 105 -186 164t-256 59q-233 0 -384 -151.5t-151 -388.5q0 -79 15 -138l-117 121q-4 16 -4 41q0 176 82 318.5t228.5 223.5t330.5 81q174 0 313 -71.5t227 -201.5zM246 897v-897h-111v1012zM2013 864l98 58
q66 -135 66 -297q0 -185 -83 -332.5t-230.5 -230t-331.5 -82.5q-110 0 -212 33t-177 93v138q70 -75 170 -116.5t215 -41.5q233 0 382.5 152t149.5 387q0 133 -47 239z" />
    <glyph glyph-name="uniE1D8" unicode="&#xe128;&#xe12b;" horiz-adv-x="2185" 
d="M766 520l-631 623v151l631 -624v-150zM246 911v-911h-111v1018zM965 999v-749q-56 71 -87.5 170.5t-31.5 206.5q0 105 31.5 204t87.5 168zM1053 940v154q176 176 444 176q282 0 464.5 -181.5t182.5 -461.5q0 -186 -84 -334t-232 -230.5t-331 -82.5q-134 0 -248.5 46.5
t-195.5 129.5v153q68 -106 183.5 -165.5t258.5 -59.5q233 0 384 153t151 388t-151 387.5t-384 152.5q-144 0 -259.5 -59.5t-182.5 -165.5z" />
    <glyph glyph-name="uniE1D9" unicode="NP" horiz-adv-x="1804" 
d="M1303 399h-138v103h133q148 2 239 89.5t91 233.5t-92 234t-240 88h-331v102h335q200 0 321.5 -119t121.5 -305q0 -187 -120 -306.5t-320 -119.5zM877 197l-742 933v164l742 -936v-161zM1075 -43l-110 131v979h110v-1110zM246 862v-862h-111v993z" />
    <glyph glyph-name="uniE1DA" unicode="&#xe128;P" horiz-adv-x="1822" 
d="M1319 399h-156v103h152q148 0 240 88.5t92 234.5t-93 234t-241 88h-150v102h154q200 0 322 -119.5t122 -304.5q0 -187 -121 -306.5t-321 -119.5zM877 197l-742 933v164l742 -936v-161zM1075 -43l-110 131v1161h110v-1292zM246 862v-862h-111v993z" />
    <glyph glyph-name="uniE1DB" unicode="NR" horiz-adv-x="1843" 
d="M877 197l-742 933v164l742 -936v-161zM1075 -43l-110 131v1161h110v-1292zM246 862v-862h-111v993zM1163 545v102h199q120 0 193 67t73 183t-73 183t-193 67h-199v102h203q168 0 272.5 -98t104.5 -254q0 -157 -103.5 -254.5t-267.5 -97.5h-209zM1303 463q63 0 124 10
l396 -473h-135z" />
    <glyph glyph-name="uniE1DC" unicode="OC" horiz-adv-x="1970" 
d="M647 88v-106q-265 15 -435.5 194.5t-170.5 448.5q0 270 169.5 449t436.5 194v-107q-217 -14 -353 -163t-136 -373q0 -223 136.5 -373.5t352.5 -163.5zM1339 625q0 -177 -77.5 -320.5t-215.5 -228t-311 -94.5v106q215 13 351.5 163.5t136.5 373.5q0 224 -136 373t-352 163
v107q266 -15 435 -194.5t169 -448.5zM1550 1270q120 0 228 -37.5t184 -102.5l-76 -75q-138 110 -336 110q-156 0 -274 -71q-34 53 -76 84q156 92 350 92zM1550 -20q-190 0 -346 92q41 38 72 84q123 -72 274 -72q196 0 336 111l76 -76q-76 -65 -184 -102t-228 -37z" />
    <glyph glyph-name="uniE1DD" unicode="OG" horiz-adv-x="2154" 
d="M647 88v-106q-265 15 -435.5 194.5t-170.5 448.5q0 270 169.5 449t436.5 194v-107q-217 -14 -353 -163t-136 -373q0 -223 136.5 -373.5t352.5 -163.5zM1339 625q0 -177 -77.5 -320.5t-215.5 -228t-311 -94.5v106q215 13 351.5 163.5t136.5 373.5q0 224 -136 373t-352 163
v107q266 -15 435 -194.5t169 -448.5zM2109 541h-501v102h501v-102zM1550 1270q120 0 229 -37.5t185 -102.5l-76 -75q-138 110 -338 110q-153 0 -274 -71q-30 44 -74 84q153 92 348 92zM1550 -20q-190 0 -346 92q41 38 72 84q123 -72 274 -72q177 0 289 95.5t129 262.5h123
q-29 -218 -176.5 -340t-364.5 -122z" />
    <glyph glyph-name="uniE1DE" unicode="ON" horiz-adv-x="2220" 
d="M2085 236l-111 114v899h111v-1013zM1102 991v150l983 -1032v-152zM205 389l-101 -57q-63 132 -63 293q0 139 48.5 259t133.5 204.5t206 133t261 48.5q173 0 324 -80v-125q-148 100 -324 100q-233 0 -382.5 -152.5t-149.5 -387.5q0 -130 47 -236zM147 256l99 57
q69 -106 185 -164.5t261 -58.5q233 0 381 150t150 385q0 66 -9 110l113 -110q2 -10 2 -27q0 -130 -49 -244.5t-133.5 -196.5t-203 -129.5t-253.5 -47.5q-173 0 -315.5 73t-227.5 203z" />
    <glyph glyph-name="uniE1DF" unicode="OO" horiz-adv-x="2236" 
d="M647 88v-106q-265 15 -435.5 194.5t-170.5 448.5q0 270 169.5 449t436.5 194v-107q-217 -14 -353 -163t-136 -373q0 -223 136.5 -373.5t352.5 -163.5zM1339 625q0 -177 -77.5 -320.5t-215.5 -228t-311 -94.5v106q215 13 351.5 163.5t136.5 373.5q0 224 -136 373t-352 163
v107q266 -15 435 -194.5t169 -448.5zM1546 1165q-150 0 -270 -69q-27 42 -76 84q158 90 346 90q273 0 454 -169.5t195 -436.5h-116q-14 222 -161.5 361.5t-371.5 139.5zM2079 584h116q-15 -265 -197 -434.5t-452 -169.5q-193 0 -342 90q42 36 72 84q124 -70 270 -70
q223 0 371 139.5t162 360.5z" />
    <glyph glyph-name="uniE1E0" unicode="OQ" horiz-adv-x="2246" 
d="M2193 629q0 -139 -48 -257.5t-136 -189.5h-151q104 71 161.5 187.5t57.5 257.5q0 234 -150 386t-381 152q-149 0 -272 -69q-25 38 -74 84q155 90 346 90q185 0 333 -82.5t231 -229t83 -329.5zM1548 0q-218 0 -342 72q48 48 70 86q56 -33 121.5 -44.5t156.5 -11.5h672
v-102h-678zM647 88v-106q-265 15 -435.5 194.5t-170.5 448.5q0 270 169.5 449t436.5 194v-107q-217 -14 -353 -163t-136 -373q0 -223 136.5 -373.5t352.5 -163.5zM1339 625q0 -177 -77.5 -320.5t-215.5 -228t-311 -94.5v106q215 13 351.5 163.5t136.5 373.5q0 224 -136 373
t-352 163v107q266 -15 435 -194.5t169 -448.5z" />
    <glyph glyph-name="uniE1E1" unicode="RA" horiz-adv-x="1902" 
d="M336 545v100h139q120 0 192 67.5t72 184.5q0 116 -72.5 183t-191.5 67h-340v102h344q168 0 272.5 -98t104.5 -254q0 -157 -104 -254.5t-269 -97.5h-147zM248 0h-113v1067h113v-1067zM799 0l-383 465q66 0 127 10l393 -475h-137zM1395 1294l57 -137l-461 -1094l-71 99z
M1495 1047l444 -1047h-118l-125 299h-510l41 100h426l-215 510z" />
    <glyph glyph-name="uniE1E2" unicode="&#xe132;&#xe106;" horiz-adv-x="1902" 
d="M1290 1051l58 -133l-357 -855l-73 99zM1395 1294l544 -1294h-118l-125 299h-512l43 100h426l-316 756zM336 545v100h139q120 0 192 67.5t72 184.5q0 116 -72.5 183t-191.5 67h-340v102h344q168 0 272.5 -98t104.5 -254q0 -157 -104 -254.5t-269 -97.5h-147zM248 0h-113
v1067h113v-1067zM799 0l-383 465q66 0 127 10l393 -475h-137z" />
    <glyph glyph-name="uniE1E3" unicode="RJ" horiz-adv-x="1492" 
d="M1055 2h-19l-71 107q40 -7 67 -7q108 0 169 75t61 200v872h112v-874q0 -169 -82.5 -269.5t-236.5 -103.5zM336 545v100h139q120 0 192 67.5t72 184.5q0 116 -72.5 183t-191.5 67h-340v102h344q168 0 272.5 -98t104.5 -254q0 -157 -104 -254.5t-269 -97.5h-147zM248 0
h-113v1067h113v-1067zM797 0l-383 465q66 0 127 10l393 -475h-137z" />
    <glyph glyph-name="uniE1E4" unicode="RO" horiz-adv-x="1808" 
d="M336 545v100h143q119 0 191.5 67.5t72.5 184.5q0 115 -73.5 182.5t-192.5 67.5h-141v102h145q168 0 272.5 -98t104.5 -254q0 -157 -103.5 -254.5t-267.5 -97.5h-151zM248 0h-113v1249h113v-1249zM799 0l-383 465q66 0 127 10l393 -475h-137zM1118 1270q273 0 454 -169.5
t195 -436.5h-116q-14 222 -161.5 361.5t-371.5 139.5q-125 0 -231 -47q-22 48 -66 86q135 66 297 66zM1651 584h116q-15 -257 -197.5 -420.5t-451.5 -163.5h-80l-82 113q84 -11 154 -11q228 0 377 133t164 349z" />
    <glyph glyph-name="uniE1E5" unicode="ST" horiz-adv-x="1521" 
d="M430 582l47 94q147 -56 217 -134.5t70 -205.5q0 -156 -105 -256t-264 -100q-217 0 -342 118l62 88q128 -102 278 -102q115 0 185.5 68.5t70.5 181.5q0 91 -49.5 146.5t-169.5 101.5zM397 711l-49 -95q-143 46 -208.5 120t-65.5 206q0 135 101 221t259 86h178v-102h-172
q-112 0 -183 -57t-71 -148q0 -86 44.5 -136t166.5 -95zM1161 1067v-1067h-112v1067h112zM700 1147v102h805v-102h-805z" />
    <glyph glyph-name="uniE1E6" unicode="&#xe134;&#xe135;" horiz-adv-x="1509" 
d="M694 1147v102h799v-102h-799zM1143 1067v-1067h-113v1067h113zM373 698l-49 -92q-133 59 -191.5 136.5t-58.5 199.5q0 135 101 221t259 86h172v-102h-166q-112 0 -182 -57t-70 -148q0 -85 43 -141.5t142 -102.5zM401 565l50 94q148 -67 208 -141t60 -194
q0 -144 -106 -234t-275 -90h-272v102h266q121 0 196.5 62t75.5 160q0 82 -45 135t-158 106z" />
    <glyph glyph-name="uniE1E7" unicode="TH" horiz-adv-x="1413" 
d="M1278 1249v-1249h-113v580h-596v102h596v567h113zM16 1147v102h818v-102h-818zM481 1067v-1067h-112v1067h112z" />
    <glyph glyph-name="uniE1E8" unicode="TR" horiz-adv-x="1368" 
d="M16 1147v102h875q168 0 272.5 -98t104.5 -254q0 -157 -104 -254.5t-269 -97.5h-162v98h154q119 2 191.5 69.5t72.5 184.5q0 116 -72.5 183t-191.5 67h-871zM479 1067v-1067h-112v1067h112zM825 463q66 0 127 10l396 -473h-138z" />
    <glyph glyph-name="uniE1E9" unicode="TT" horiz-adv-x="1404" 
d="M1028 0h-113v1249h474v-102h-361v-1147zM479 1067v-1067h-112v1067h112zM16 1147v102h811v-102h-811z" />
    <glyph glyph-name="uniE1EA" unicode="TV" horiz-adv-x="1841" 
d="M16 1147v102h879l381 -903l-57 -139l-398 940h-805zM1264 96l485 1153h117l-545 -1294zM479 1067v-1067h-112v1067h112z" />
    <glyph glyph-name="uniE1EB" unicode="UB" horiz-adv-x="1728" 
d="M1065 598v102h221q104 0 170 61.5t66 164.5q0 101 -66 162t-170 61h-221v100h223q155 0 252.5 -89.5t97.5 -231.5q0 -93 -45.5 -165.5t-124.5 -109.5q98 -37 153.5 -117.5t55.5 -189.5q0 -154 -103.5 -250t-270.5 -96h-238v98h233q117 0 190 68t73 182q0 115 -73 182.5
t-190 67.5h-233zM504 -16q-183 19 -284 130t-101 289v846h112v-850q0 -128 71.5 -212t201.5 -99v-104zM592 -16v104q130 15 201 98t71 213v850h113v-846q0 -178 -101 -289t-284 -130z" />
    <glyph glyph-name="uniE1EC" unicode="U&#xe109;" horiz-adv-x="1722" 
d="M1065 602v98h199q113 0 182.5 61.5t69.5 164.5t-66 164t-170 61h-416v98h420q155 0 251.5 -89.5t96.5 -231.5q0 -64 -21.5 -118.5t-58 -92t-85 -64t-101.5 -39t-109 -12.5h-192zM1544 608q127 -93 127 -260q0 -154 -104 -251t-271 -97h-243v98h241q117 0 188.5 68
t71.5 184q0 69 -29.5 123t-80.5 84q35 11 100 51zM504 -16q-183 19 -284 130t-101 289v846h112v-850q0 -128 71.5 -212t201.5 -99v-104zM592 -16v104q130 15 201 98t71 213v672h113v-668q0 -178 -101 -289t-284 -130z" />
    <glyph glyph-name="uniE1ED" unicode="UD" horiz-adv-x="1914" 
d="M1227 0h-168v102h168q233 0 382.5 147t149.5 376q0 230 -150 376t-382 146h-363v102h363q186 0 334 -79.5t230.5 -222t82.5 -322.5t-83 -323t-231 -222.5t-333 -79.5zM504 -16q-183 19 -284 130t-101 289v846h112v-850q0 -128 71.5 -212t201.5 -99v-104zM592 -16v104
q130 15 201 98t71 213v668h113v-664q0 -178 -101 -289t-284 -130z" />
    <glyph glyph-name="uniE1EE" unicode="UE" horiz-adv-x="1724" 
d="M504 -16q-183 19 -284 130t-101 289v846h112v-850q0 -128 71.5 -212t201.5 -99v-104zM592 -16v104q130 15 201 98t71 213v850h113v-846q0 -178 -101 -289t-284 -130zM1065 1147v102h555v-102h-555zM1065 575v105h522v-105h-522zM1065 102h555v-102h-555v102z" />
    <glyph glyph-name="uniE1EF" unicode="UH" horiz-adv-x="1884" 
d="M1636 586h-573v102h573v561h113v-1249h-113v586zM502 -16q-183 19 -283 130t-100 289v846h112v-850q0 -128 71.5 -212t199.5 -99v-104zM590 -16v104q131 15 202.5 98t71.5 213v850h113v-846q0 -178 -101 -289t-286 -130z" />
    <glyph glyph-name="uniE1F0" unicode="UK" horiz-adv-x="1658" 
d="M504 -16q-183 19 -284 130t-101 289v846h112v-850q0 -128 71.5 -212t201.5 -99v-104zM592 -16v104q130 15 201 98t71 213v850h113v-846q0 -178 -101 -289t-284 -130zM1692 1249l-627 -692v152l494 540h133zM1108 489l76 78l504 -567h-142z" />
    <glyph glyph-name="uniE1F1" unicode="&#xe138;K" horiz-adv-x="1656" 
d="M1688 1249l-625 -692v152l491 540h134zM1104 489l76 78l506 -567h-144zM967 311l-107 51q2 12 2 37v850h113v-846q0 -30 -8 -92zM233 362l-106 -51q-8 41 -8 92v846h112v-850q0 -25 2 -37zM152 229l102 47q30 -90 106 -141t187 -51q109 0 186.5 51t106.5 141l102 -47
q-45 -118 -147.5 -183.5t-247.5 -65.5t-247.5 65.5t-147.5 183.5z" />
    <glyph glyph-name="uniE1F2" unicode="UM" horiz-adv-x="2129" 
d="M504 -16q-183 19 -284 130t-101 289v846h112v-850q0 -128 71.5 -212t201.5 -99v-104zM592 -16v104q130 15 201 98t71 213v895l113 -139v-752q0 -178 -101 -289t-284 -130zM1065 883v164l365 -476l565 723v-159l-563 -723zM1884 0v858l111 137v-995h-111z" />
    <glyph glyph-name="uniE1F3" unicode="UN" horiz-adv-x="1943" 
d="M1808 254l-110 131v864h110v-995zM1065 1051l743 -934v-160l-743 932v162zM504 -16q-183 19 -284 130t-101 289v846h112v-850q0 -128 71.5 -212t201.5 -99v-104zM592 -16v104q130 15 201 98t71 213v895l113 -139v-752q0 -178 -101 -289t-284 -130z" />
    <glyph glyph-name="uniE1F4" unicode="UP" horiz-adv-x="1681" 
d="M1178 399h-113v103h109q147 0 239 88t92 235q0 146 -93 234t-241 88h-307v102h312q200 0 322 -119.5t122 -304.5q0 -187 -121 -306.5t-321 -119.5zM504 -16q-183 19 -284 130t-101 289v846h112v-850q0 -128 71.5 -212t201.5 -99v-104zM592 -16v104q130 15 201 98t71 213
v668h113v-664q0 -178 -101 -289t-284 -130z" />
    <glyph glyph-name="uniE1F5" unicode="UR" horiz-adv-x="1693" 
d="M1104 543l-62 100h166q119 0 193 67.5t74 184.5t-74 184.5t-193 67.5h-344v102h348q170 0 274.5 -98.5t104.5 -255.5q0 -158 -105.5 -255t-273.5 -97h-108zM1153 463q49 0 125 12l395 -475h-137zM504 -16q-183 19 -284 130t-101 289v846h112v-850q0 -128 71.5 -212
t201.5 -99v-104zM592 -16v104q130 15 201 98t71 213v668h113v-664q0 -178 -101 -289t-284 -130z" />
    <glyph glyph-name="uniE1F6" unicode="VR" horiz-adv-x="1667" 
d="M1018 545v100h170q120 0 192 67.5t72 184.5q0 116 -73 183t-193 67h-166l-397 -938l-56 135l381 905h244q168 0 272.5 -98t104.5 -254q0 -157 -104.5 -254.5t-268.5 -97.5h-178zM94 1249l486 -1151l-60 -143l-545 1294h119zM1509 0l-383 465q66 0 127 10l394 -475h-138z
" />
    <glyph glyph-name="uniE1F7" unicode="YO" horiz-adv-x="1622" 
d="M471 158l49 106q72 -84 179.5 -132t232.5 -48q144 0 259 60.5t185 168.5l99 -57q-87 -131 -227.5 -203.5t-315.5 -72.5q-135 0 -254.5 47t-206.5 131zM930 1149l47 100q264 -14 434 -188.5t170 -435.5q0 -161 -63 -293l-99 57q47 106 47 236q0 224 -147.5 371.5
t-376.5 152.5h-12zM176 0l594 1249h121l-592 -1249h-123zM395 655l-59 -116l-352 710h127z" />
    <glyph glyph-name="uniE2D9" unicode="FZ" horiz-adv-x="1638" 
d="M248 0h-113v1249h113v-1249zM336 1147v102h1292l-59 -102h-1233zM1397 1067h125l-652 -1067h-129zM967 0l61 102h571v-102h-632zM336 539v102h379v-102h-379z" />
    <glyph glyph-name="uniE2DA" unicode="F&#xe142;" horiz-adv-x="1638" 
d="M248 0h-113v1249h113v-1249zM981 182h-129l651 1067h125zM1599 0h-858l62 102h796v-102zM336 1147v102h1073l-59 -102h-1014zM336 539v102h379v-102h-379z" />
    <glyph glyph-name="uniE2DB" unicode="F&#xe143;" horiz-adv-x="1638" 
d="M870 0h-129l762 1249h125zM248 0h-113v1249h113v-1249zM336 1147v102h1073l-59 -102h-1014zM967 0l61 102h571v-102h-632zM336 539v102h379v-102h-379z" />
    <glyph glyph-name="uniE2DC" unicode="&#xe114;Z" horiz-adv-x="1636" 
d="M248 0h-113v1249h113v-608h463v-102h-463v-539zM336 1147v102h1290l-59 -102h-1231zM1395 1067h123l-650 -1067h-129zM965 0l61 102h571v-102h-632z" />
    <glyph glyph-name="uniE2DD" unicode="&#xe124;B" horiz-adv-x="2015" 
d="M700 412l-565 716v166l565 -723l566 723v-159zM248 858v-858h-113v987zM1153 858l113 137v-995h-113v858zM1354 598v102h219q104 0 169.5 61.5t65.5 164.5q0 102 -65.5 162.5t-169.5 60.5h-219v100h221q156 0 253 -89t97 -232q0 -93 -45.5 -165.5t-124.5 -109.5
q98 -37 153.5 -117.5t55.5 -189.5q0 -154 -104 -250t-271 -96h-235v98h231q117 0 189.5 68t72.5 182q0 115 -72.5 182.5t-189.5 67.5h-231z" />
    <glyph glyph-name="uniE2DE" unicode="&#xe126;B" horiz-adv-x="2015" 
d="M1153 1155l113 139v-1294h-113v1155zM248 0h-113v1294l113 -135v-1159zM336 883v164l364 -476l365 476v-156l-365 -479zM1354 598v102h219q104 0 169.5 61.5t65.5 164.5q0 102 -65.5 162.5t-169.5 60.5h-219v100h221q156 0 253 -89t97 -232q0 -93 -45.5 -165.5
t-124.5 -109.5q98 -37 153.5 -117.5t55.5 -189.5q0 -154 -104 -250t-271 -96h-235v98h231q117 0 189.5 68t72.5 182q0 115 -72.5 182.5t-189.5 67.5h-231z" />
    <glyph glyph-name="uniE2DF" unicode="&#xe125;B" horiz-adv-x="2015" 
d="M248 1159v-1159h-113v1294zM336 883v164l364 -476l566 723v-159l-566 -723zM1153 858l113 137v-995h-113v858zM1354 598v102h219q104 0 169.5 61.5t65.5 164.5q0 102 -65.5 162.5t-169.5 60.5h-219v100h221q156 0 253 -89t97 -232q0 -93 -45.5 -165.5t-124.5 -109.5
q98 -37 153.5 -117.5t55.5 -189.5q0 -154 -104 -250t-271 -96h-235v98h231q117 0 189.5 68t72.5 182q0 115 -72.5 182.5t-189.5 67.5h-231z" />
    <glyph glyph-name="uniE2E0" unicode="M&#xe10f;" horiz-adv-x="2189" 
d="M1065 1040v-155l-365 -473l-565 716v166l565 -723zM1266 182h-113v973l113 139v-1112zM248 858v-858h-113v987zM2148 666h-118q-12 213 -158 347t-367 134h-151v102h151q270 0 449 -163t194 -420zM1503 102q222 0 368.5 135t158.5 349h118q-15 -259 -195 -422.5
t-450 -163.5h-350v102h350z" />
    <glyph glyph-name="uniE2E1" unicode="M&#xe110;" horiz-adv-x="2193" 
d="M1065 1040v-155l-365 -473l-565 716v166l565 -723zM1266 182h-113v973l113 139v-1112zM248 858v-858h-113v987zM1507 0h-354v102h354q232 0 380.5 147t148.5 376q0 231 -149 376.5t-380 145.5h-153v102h153q185 0 332.5 -79.5t230 -222t82.5 -322.5t-83 -323
t-230.5 -222.5t-331.5 -79.5z" />
    <glyph glyph-name="uniE2E2" unicode="&#xe124;D" horiz-adv-x="2207" 
d="M700 412l-565 716v166l565 -723l566 723v-159zM248 858v-858h-113v987zM1153 858l113 137v-995h-113v858zM1520 0h-166v102h166q233 0 382.5 147t149.5 376q0 230 -150 376t-382 146h-166v102h166q186 0 334 -79.5t230.5 -222t82.5 -322.5q0 -135 -48.5 -251.5
t-133.5 -198.5t-205.5 -128.5t-259.5 -46.5z" />
    <glyph glyph-name="uniE2E3" unicode="&#xe126;D" horiz-adv-x="2207" 
d="M1153 1155l113 139v-1294h-113v1155zM248 0h-113v1294l113 -135v-1159zM336 883v164l364 -476l365 476v-156l-365 -479zM1520 0h-166v102h166q233 0 382.5 147t149.5 376q0 230 -150 376t-382 146h-166v102h166q186 0 334 -79.5t230.5 -222t82.5 -322.5
q0 -135 -48.5 -251.5t-133.5 -198.5t-205.5 -128.5t-259.5 -46.5z" />
    <glyph glyph-name="uniE2E4" unicode="&#xe126;&#xe10f;" horiz-adv-x="2189" 
d="M2148 666h-118q-12 213 -158 347t-367 134h-151v102h151q270 0 449 -163t194 -420zM1503 102q222 0 368.5 135t158.5 349h118q-15 -259 -195 -422.5t-450 -163.5h-350v102h350zM1153 1155l113 139v-1112h-113v973zM248 0h-113v1294l113 -139v-1155zM336 883v166l364 -478
l365 476v-156l-365 -479z" />
    <glyph glyph-name="uniE2E5" unicode="&#xe126;&#xe110;" horiz-adv-x="2189" 
d="M1503 0h-350v102h350q232 0 380.5 147t148.5 376q0 231 -148.5 376.5t-378.5 145.5h-151v102h151q280 0 461.5 -175.5t181.5 -448.5q0 -180 -82.5 -323t-230 -222.5t-332.5 -79.5zM1153 1155l113 139v-1112h-113v973zM248 0h-113v1294l113 -139v-1155zM336 883v166
l364 -478l365 476v-156l-365 -479z" />
    <glyph glyph-name="uniE2E6" unicode="&#xe126;E" horiz-adv-x="2011" 
d="M1266 0h-113v1155l113 139v-1294zM248 0h-113v1294l113 -135v-1159zM336 883v164l364 -476l365 476v-156l-365 -479zM1354 1147v102h553v-102h-553zM1354 102h553v-102h-553v102zM1354 575v105h520v-105h-520z" />
    <glyph glyph-name="uniE2E7" unicode="&#xe126;&#xe111;" horiz-adv-x="1986" 
d="M1266 0h-113v1155l113 139v-614h583v-105h-583v-575zM248 0h-113v1294l113 -135v-1159zM336 883v164l364 -476l365 476v-156l-365 -479zM1354 1147v102h528v-102h-528zM1354 0v102h528v-102h-528z" />
    <glyph glyph-name="uniE2E8" unicode="MF" horiz-adv-x="1898" 
d="M1354 1147v102h471v-102h-471zM1354 539v102h420v-102h-420zM1065 1040v-155l-365 -473l-565 716v166l565 -723zM1266 0h-113v1155l113 139v-1294zM248 858v-858h-113v987z" />
    <glyph glyph-name="uniE2E9" unicode="M&#xe114;" horiz-adv-x="1892" 
d="M1266 0h-113v1155l113 139v-653h501v-102h-501v-539zM1065 1040v-155l-365 -473l-565 716v166l565 -723zM248 858v-858h-113v987zM1354 1147v102h465v-102h-465z" />
    <glyph glyph-name="uniE2EA" unicode="&#xe126;F" horiz-adv-x="1898" 
d="M1354 1147v102h471v-102h-471zM1354 539v102h420v-102h-420zM1153 1155l113 139v-1294h-113v1155zM248 0h-113v1294l113 -135v-1159zM336 883v164l364 -476l365 476v-156l-365 -479z" />
    <glyph glyph-name="uniE2EB" unicode="&#xe126;&#xe114;" horiz-adv-x="1892" 
d="M1153 1155l113 139v-653h501v-102h-501v-539h-113v1155zM248 0h-113v1294l113 -135v-1159zM336 883v164l364 -476l365 476v-156l-365 -479zM1354 1147v102h465v-102h-465z" />
    <glyph glyph-name="uniE2EC" unicode="FE" horiz-adv-x="1531" 
d="M336 1147v102h432v-102h-432zM248 0h-113v1249h113v-1249zM336 575v103h375v-103h-375zM856 1147v102h571v-102h-571zM856 575v103h528v-103h-528zM856 102h571v-102h-571v102z" />
    <glyph glyph-name="uniE2ED" unicode="&#xe114;E" horiz-adv-x="1525" 
d="M248 0h-113v1249h113v-571h463v-103h-463v-575zM336 1147v102h426v-102h-426zM850 1147v102h571v-102h-571zM850 575v103h528v-103h-528zM850 102h571v-102h-571v102z" />
    <glyph glyph-name="uniE2EE" unicode="NC" horiz-adv-x="1955" 
d="M1051 313v-149l-916 979v151zM246 897v-897h-111v1012zM1532 1270q120 0 228 -37.5t184 -102.5l-74 -75q-138 110 -338 110q-232 0 -382.5 -152.5t-150.5 -387.5q0 -94 17 -146l-123 127q-4 16 -4 41q0 174 82 316.5t229.5 224.5t331.5 82zM1532 84q198 0 338 111l74 -76
q-76 -65 -184 -102t-228 -37q-112 0 -214.5 34t-178.5 95v139q73 -79 174 -121.5t219 -42.5z" />
    <glyph glyph-name="uniE2EF" unicode="&#xe128;C" horiz-adv-x="1937" 
d="M784 664v-144l-649 627v147zM246 922v-922h-111v1024zM981 1001v-753q-55 69 -86 169t-31 208q0 109 31 208t86 168zM1513 1270q120 0 228 -37.5t184 -102.5l-74 -75q-138 110 -338 110q-144 0 -256.5 -58.5t-187.5 -166.5v154q176 176 444 176zM1513 84q198 0 338 111
l74 -76q-76 -65 -184 -102t-228 -37q-268 0 -444 176v155q71 -109 185 -168t259 -59z" />
    <glyph glyph-name="uniE2F0" unicode="&#xe11a;&#xe12b;" horiz-adv-x="2209" 
d="M1075 940v154q176 176 445 176q186 0 334.5 -82.5t231.5 -229.5t83 -331q0 -186 -84 -334t-232.5 -230.5t-332.5 -82.5q-269 0 -445 176v153q68 -106 184 -165.5t259 -59.5q234 0 384 153t150 388t-150 387.5t-384 152.5q-143 0 -259 -59.5t-184 -165.5zM248 0h-113v1249
h113v-1249zM987 999v-749q-55 70 -86 169.5t-31 207.5q0 106 31 204.5t86 167.5zM336 584v102h452v-102h-452z" />
    <glyph glyph-name="uniE2F1" unicode="&#xe122;A" horiz-adv-x="1685" 
d="M705 178l473 1116l57 -139l-414 -977h-116zM248 182h-113v1067h113v-1067zM1219 905l61 137l442 -1042h-118zM788 102l-47 -102h-606v102h653z" />
    <glyph glyph-name=".notdef" horiz-adv-x="471" 
d="M82 -328v1884h307v-1884h-307z" />
    <glyph glyph-name=".null" horiz-adv-x="0" 
 />
    <glyph glyph-name="nonmarkingreturn" horiz-adv-x="682" 
 />
    <glyph glyph-name="space" unicode=" " horiz-adv-x="360" 
 />
    <glyph glyph-name="exclam" unicode="!" horiz-adv-x="405" 
d="M174 289l-45 960h147l-45 -960h-57zM203 -14q-34 0 -57 23t-23 57q0 33 23 55t57 22t57 -22t23 -55q0 -34 -23 -57t-57 -23z" />
    <glyph glyph-name="quotedbl" unicode="&#x22;" horiz-adv-x="495" 
d="M342 893l-45 356h152l-46 -356h-61zM92 893l-45 356h150l-43 -356h-62z" />
    <glyph glyph-name="numbersign" unicode="#" horiz-adv-x="1216" 
d="M895 555h-100v694h100v-366h219v-95h-219v-233zM102 788v95h220v366h100v-366h274v-95h-594zM422 0h-100v381h-220v94h220v234h100v-709zM1114 475v-94h-219v-381h-100v381h-293v94h612z" />
    <glyph glyph-name="dollar" unicode="$" horiz-adv-x="804" 
d="M395 711l-47 -97q-143 51 -209.5 128.5t-66.5 209.5q0 125 79.5 212t204.5 102v159h103v-157q164 -14 268 -115l-63 -84q-126 98 -252 98q-102 0 -165 -59.5t-63 -155.5q0 -88 45 -141.5t166 -99.5zM344 -176v160q-176 11 -291 114l64 88q128 -104 276 -104
q115 0 185.5 69.5t70.5 182.5q0 90 -50 146t-171 102l49 94q147 -56 216 -134t69 -206q0 -141 -87.5 -238t-228.5 -114v-160h-102z" />
    <glyph glyph-name="percent" unicode="%" horiz-adv-x="1609" 
d="M383 561q-151 0 -254.5 103t-103.5 254q0 137 89.5 237t223.5 115v-92q-93 -15 -153 -88t-60 -172q0 -114 74.5 -190.5t183.5 -76.5t183.5 76.5t74.5 190.5q0 98 -60.5 170.5t-154.5 89.5v92q136 -17 225.5 -116t89.5 -236q0 -151 -103.5 -254t-254.5 -103zM449 0h-117
l827 1249h117zM1227 690q151 0 254.5 -102.5t103.5 -253.5q0 -137 -89.5 -237t-223.5 -115v92q93 15 153 88t60 172q0 112 -74.5 189t-183.5 77t-183.5 -77t-74.5 -189q0 -99 60.5 -172t154.5 -88v-92q-136 15 -226 114t-90 238q0 150 104 253t255 103z" />
    <glyph glyph-name="ampersand" unicode="&#x26;" horiz-adv-x="1034" 
d="M186 1147l-71 102h805v-102h-734zM242 1067h131l717 -1067h-125zM731 182l60 -84q-134 -118 -318 -118q-194 0 -318 114.5t-124 292.5q0 150 65.5 249t210.5 173l64 -84q-119 -56 -173.5 -136t-54.5 -202q0 -132 93.5 -218.5t236.5 -86.5q71 0 138.5 26.5t119.5 73.5z
" />
    <glyph glyph-name="quotesingle" unicode="'" horiz-adv-x="245" 
d="M92 893l-45 356h152l-45 -356h-62z" />
    <glyph glyph-name="parenleft" unicode="(" horiz-adv-x="430" 
d="M182 672h-110q8 215 73 413t170 320h95q-95 -135 -157 -333.5t-71 -399.5zM74 578h110q14 -198 74.5 -390t151.5 -319h-95q-101 119 -165.5 311t-75.5 398z" />
    <glyph glyph-name="parenright" unicode=")" horiz-adv-x="430" 
d="M250 672q-9 201 -71.5 400t-158.5 333h97q104 -123 168.5 -320.5t72.5 -412.5h-108zM356 578q-11 -206 -75 -397.5t-164 -311.5h-97q92 127 153 318.5t75 390.5h108z" />
    <glyph glyph-name="asterisk" unicode="*" horiz-adv-x="720" 
d="M680 1040l-268 -59l188 -199l-104 -75l-134 243l-135 -241l-104 75l188 197l-270 57l45 125l244 -119l-33 271h131l-37 -271l246 119zM334 1036l-15 -51l43 -27l41 27l-16 51h-53z" />
    <glyph glyph-name="plus" unicode="+" horiz-adv-x="991" 
d="M444 209v371h-370v100h370v371h103v-371h371v-100h-371v-371h-103z" />
    <glyph glyph-name="comma" unicode="," horiz-adv-x="303" 
d="M8 -236l90 361h146l-168 -361h-68z" />
    <glyph glyph-name="hyphen" unicode="-" horiz-adv-x="563" 
d="M61 584v106h441v-106h-441z" />
    <glyph glyph-name="period" unicode="." horiz-adv-x="303" 
d="M152 -14q-35 0 -57.5 23t-22.5 57t22.5 55.5t57.5 21.5q34 0 56.5 -21.5t22.5 -55.5t-22.5 -57t-56.5 -23z" />
    <glyph glyph-name="slash" unicode="/" horiz-adv-x="690" 
d="M-20 0l618 1249h113l-619 -1249h-112z" />
    <glyph glyph-name="zero" unicode="0" horiz-adv-x="1404" 
d="M659 86v-106q-265 15 -435.5 195t-170.5 450q0 271 169 450.5t437 194.5v-107q-218 -13 -353.5 -162.5t-135.5 -375.5q0 -225 135.5 -374.5t353.5 -164.5zM748 -20v106q215 15 351 165t136 374q0 225 -135.5 374.5t-351.5 163.5v107q265 -15 434.5 -195t169.5 -450
q0 -178 -78 -322t-215.5 -228.5t-310.5 -94.5z" />
    <glyph glyph-name="one" unicode="1" horiz-adv-x="542" 
d="M274 0v1067h113v-1067h-113zM33 1147l16 102h338v-102h-354z" />
    <glyph glyph-name="two" unicode="2" horiz-adv-x="888" 
d="M31 0l88 102h717v-102h-805zM186 182l336 396q164 188 164 340q0 99 -60.5 167.5t-158.5 75.5v107q152 -10 243 -107t91 -235q0 -186 -180 -396l-297 -348h-138zM143 1012l-90 57q41 80 129.5 136t196.5 63v-105q-153 -14 -236 -151z" />
    <glyph glyph-name="three" unicode="3" horiz-adv-x="972" 
d="M504 -20v104q123 14 199.5 97t76.5 204q0 127 -92.5 204t-247.5 77h-61l-53 57l428 526h127l-396 -483q185 -12 296.5 -115.5t111.5 -265.5q0 -161 -110 -274.5t-279 -130.5zM416 84v-104q-124 9 -222.5 65t-156.5 148l86 69q42 -75 118.5 -122t174.5 -56zM649 1249
l-80 -102h-469v102h549z" />
    <glyph glyph-name="four" unicode="4" horiz-adv-x="1032" 
d="M627 272h-561v105l630 872h127l-630 -874h434v-103zM715 958l112 146v-729h129v-103h-129v-272h-112v958z" />
    <glyph glyph-name="five" unicode="5" horiz-adv-x="1007" 
d="M270 1147v-477l-71 -35h-37v614h669v-102h-561zM66 193l86 69q45 -84 132.5 -132t200.5 -48q137 0 228.5 88t91.5 221q0 142 -98 221.5t-275 81.5h-74v103h72q225 0 356.5 -107t131.5 -299q0 -177 -124.5 -294t-310.5 -117q-136 0 -245.5 56.5t-171.5 156.5z" />
    <glyph glyph-name="six" unicode="6" horiz-adv-x="1048" 
d="M172 483h-115q10 80 41 151t103 159l377 456h137l-426 -518q-55 -67 -81.5 -123t-35.5 -125zM57 403h115q14 -142 110 -230.5t240 -88.5q155 0 255 101t100 259q0 154 -97.5 255.5t-247.5 101.5q-49 0 -90 -10l84 100q18 2 33 2q180 0 306 -129t126 -322
q0 -200 -133.5 -331t-335.5 -131q-191 0 -321.5 118t-143.5 305z" />
    <glyph glyph-name="seven" unicode="7" horiz-adv-x="845" 
d="M799 1147h-789v102h836zM143 0l494 1067h123l-494 -1067h-123z" />
    <glyph glyph-name="eight" unicode="8" horiz-adv-x="1036" 
d="M518 614q-152 0 -245 -73t-93 -193q0 -32 17 -78l-97 -57q-34 77 -34 135q0 108 68 199t177 121q-85 38 -133.5 111.5t-48.5 162.5q0 135 96 226.5t250 101.5v-99q-107 -11 -171 -73.5t-64 -157.5q0 -103 76.5 -167t201.5 -64q126 0 202.5 64t76.5 167q0 95 -64.5 157.5
t-171.5 73.5v99q154 -10 250 -101.5t96 -226.5q0 -89 -48.5 -162.5t-133.5 -111.5q109 -30 177.5 -121.5t68.5 -198.5q0 -53 -29 -135l-98 57q12 37 12 78q0 120 -93 193t-245 73zM522 -20h-8q-117 0 -215 42t-156 115l97 56q37 -52 111.5 -82.5t166.5 -30.5q95 0 170.5 30
t112.5 83l96 -56q-56 -73 -155 -115t-220 -42z" />
    <glyph glyph-name="nine" unicode="9" horiz-adv-x="1048" 
d="M334 0l424 518q55 67 81 122.5t35 125.5h117q-12 -82 -42 -152t-101 -157l-379 -457h-135zM57 807q0 200 133.5 331.5t333.5 131.5q191 0 322.5 -118.5t144.5 -305.5h-117q-12 142 -108.5 230.5t-241.5 88.5q-155 0 -253.5 -100.5t-98.5 -257.5q0 -156 98 -257t252 -101
q45 0 84 10l-84 -101q-18 -2 -35 -2q-182 2 -306 130t-124 321z" />
    <glyph glyph-name="colon" unicode=":" horiz-adv-x="315" 
d="M158 137q-35 0 -57.5 23t-22.5 57t22.5 56t57.5 22q34 0 57 -22t23 -56t-23 -57t-57 -23zM158 854q-35 0 -57.5 23t-22.5 57t22.5 56t57.5 22q34 0 57 -22t23 -56t-23 -57t-57 -23z" />
    <glyph glyph-name="semicolon" unicode=";" horiz-adv-x="321" 
d="M162 854q-35 0 -57.5 23t-22.5 57t22.5 56t57.5 22q34 0 57 -22t23 -56t-23 -57t-57 -23zM2 -104l90 360h146l-168 -360h-68z" />
    <glyph glyph-name="less" unicode="&#x3c;" horiz-adv-x="980" 
d="M182 555l123 57l590 -293v-114zM86 602v113l809 395v-115z" />
    <glyph glyph-name="equal" unicode="=" horiz-adv-x="1044" 
d="M940 770h-836v100h836v-100zM940 408h-836v100h836v-100z" />
    <glyph glyph-name="greater" unicode="&#x3e;" horiz-adv-x="980" 
d="M799 762l-123 -57l-590 290v115zM895 715v-113l-809 -397v114z" />
    <glyph glyph-name="question" unicode="?" horiz-adv-x="800" 
d="M647 662l-76 75q68 71 68 185q0 108 -72.5 176.5t-187.5 68.5t-205 -71l-63 82q47 42 118 67t154 25q163 0 267 -95t104 -247q0 -162 -107 -266zM502 686l76 -78q-97 -57 -236 -57h-61l-13 -262h-59l-39 360h168q88 0 164 37zM236 -14q-34 0 -57 23t-23 57q0 33 23 55
t57 22t56.5 -21.5t22.5 -55.5t-22.5 -57t-56.5 -23z" />
    <glyph glyph-name="at" unicode="@" horiz-adv-x="1533" 
d="M725 319v-94q-153 15 -254.5 128.5t-101.5 271.5q0 159 101 271.5t255 127.5v-94q-110 -15 -183 -101t-73 -204q0 -117 73.5 -204t182.5 -102zM813 930v94q153 -15 254.5 -128t101.5 -273q0 -55 9 -98t34 -74t64 -31q53 0 80.5 58t27.5 155q0 172 -79.5 312t-221 220
t-315.5 80q-131 0 -246 -47.5t-196 -129.5t-127.5 -196.5t-46.5 -244.5q0 -176 79 -318t220.5 -222.5t316.5 -80.5q225 0 379 123l49 -57q-181 -142 -428 -142q-147 0 -277 53.5t-222 146t-145.5 221.5t-53.5 276q0 196 90 355t249.5 249t358.5 90q148 0 277.5 -53t221 -144
t144.5 -218.5t53 -272.5q0 -133 -54 -207t-134 -74q-95 0 -141 113q-40 -99 -126.5 -164.5t-195.5 -75.5v94q109 15 181.5 102t72.5 204q0 118 -72.5 204t-181.5 101z" />
    <glyph glyph-name="A" unicode="A" 
d="M565 1155l-317 -756h428l43 -100h-514l-125 -299h-117l545 1294zM551 907l59 137l445 -1044h-119z" />
    <glyph glyph-name="B" unicode="B" horiz-adv-x="956" 
d="M248 0h-113v1249h113v-1249zM336 598v100h180q103 0 169.5 62t66.5 166q0 101 -66.5 162t-169.5 61h-180v100h182q155 0 251.5 -89t96.5 -232q0 -92 -45 -165t-123 -110q97 -37 152 -117.5t55 -189.5q0 -154 -103.5 -250t-269.5 -96h-196v100h192q117 0 190 67.5
t73 180.5q0 115 -73 182.5t-190 67.5h-192z" />
    <glyph glyph-name="C" unicode="C" horiz-adv-x="1114" 
d="M690 84q198 0 338 111l74 -76q-74 -65 -182.5 -102t-229.5 -37q-178 0 -323 77.5t-230.5 216t-95.5 312.5h117q12 -221 160.5 -361.5t371.5 -140.5zM690 1165q-223 0 -371.5 -140t-160.5 -359h-117q15 264 197 434t452 170q120 0 228 -37.5t184 -102.5l-74 -75
q-138 110 -338 110z" />
    <glyph glyph-name="D" unicode="D" horiz-adv-x="1187" 
d="M248 0h-113v1249h113v-1249zM496 1147h-160v102h162q283 0 466 -175.5t183 -448.5t-183 -449t-466 -176h-162v102h160q236 0 386 147t150 376q0 230 -151 376t-385 146z" />
    <glyph glyph-name="E" unicode="E" horiz-adv-x="878" 
d="M774 1147h-438v102h438v-102zM248 1249v-1249h-113v1249h113zM774 0h-438v102h438v-102zM739 575h-403v103h403v-103z" />
    <glyph glyph-name="F" unicode="F" horiz-adv-x="839" 
d="M135 0v1249h113v-1249h-113zM336 539v102h379v-102h-379zM336 1147v102h430v-102h-430z" />
    <glyph glyph-name="G" unicode="G" horiz-adv-x="1257" 
d="M1057 0v571h-350v103h460v-674h-110zM690 1165q-223 0 -371.5 -140t-160.5 -359h-117q15 264 197 434t452 170q120 0 229 -37.5t185 -102.5l-76 -75q-138 110 -338 110zM682 -20q-266 0 -446 170.5t-195 435.5h117q12 -222 160 -362t372 -140q153 0 279 74v-115
q-126 -63 -287 -63z" />
    <glyph glyph-name="H" unicode="H" horiz-adv-x="1150" 
d="M135 0v1249h113v-561h567v-102h-567v-586h-113zM903 0v1249h113v-1249h-113z" />
    <glyph glyph-name="I" unicode="I" horiz-adv-x="382" 
d="M135 0v1249h113v-1249h-113z" />
    <glyph glyph-name="J" unicode="J" horiz-adv-x="722" 
d="M524 111l-78 77q46 64 46 166v895h112v-897q0 -142 -80 -241zM231 84q93 0 154 45l76 -78q-86 -71 -230 -71q-142 0 -231 71l76 78q64 -45 155 -45z" />
    <glyph glyph-name="K" unicode="K" horiz-adv-x="911" 
d="M248 1249v-1249h-113v1249h113zM942 1249l-606 -694v154l475 540h131zM381 481l76 84l481 -565h-137z" />
    <glyph glyph-name="L" unicode="L" horiz-adv-x="747" 
d="M248 182h-113v1067h113v-1067zM715 102v-102h-580v102h580z" />
    <glyph glyph-name="M" unicode="M" horiz-adv-x="1400" 
d="M1065 1040v-155l-365 -473l-419 540l-146 176v166l565 -723zM1266 0h-113v1155l113 139v-1294zM248 858v-858h-113v987z" />
    <glyph glyph-name="N" unicode="N" horiz-adv-x="1210" 
d="M1075 119v-162l-940 1173v162zM1075 254l-112 133v862h112v-995zM248 862v-862h-113v995z" />
    <glyph glyph-name="O" unicode="O" horiz-adv-x="1380" 
d="M104 332q-63 132 -63 293q0 269 170 449.5t436 195.5v-107q-217 -14 -353 -163t-136 -375q0 -130 47 -236zM1176 389q47 106 47 236q0 224 -136 373.5t-352 164.5v107q265 -15 434.5 -195.5t169.5 -449.5q0 -161 -63 -293zM1231 256q-86 -130 -227 -203t-314 -73
t-315.5 73t-227.5 203l99 57q70 -108 185 -168.5t259 -60.5q143 0 259 61t186 168z" />
    <glyph glyph-name="P" unicode="P" horiz-adv-x="948" 
d="M336 502h102q149 0 240.5 87.5t91.5 235.5q0 147 -91.5 234.5t-240.5 87.5h-102v102h108q200 0 321.5 -119t121.5 -305q0 -187 -121.5 -306.5t-321.5 -119.5h-108v103zM248 0h-113v1249h113v-1249z" />
    <glyph glyph-name="Q" unicode="Q" horiz-adv-x="1388" 
d="M735 1270q263 -15 433.5 -195t170.5 -446q0 -138 -49 -257t-139 -190h-150q103 72 162.5 188.5t59.5 256.5q0 223 -136.5 372t-351.5 164v107zM41 627q0 132 45.5 248t125.5 200.5t192.5 136t242.5 58.5v-107q-217 -15 -353 -163.5t-136 -372.5q0 -130 47 -236l-101 -57
q-63 132 -63 293zM246 313q68 -99 183.5 -155t260.5 -56h678v-102h-676q-177 0 -318 68t-227 190z" />
    <glyph glyph-name="R" unicode="R" horiz-adv-x="954" 
d="M336 545v100h139q119 0 191.5 67.5t72.5 184.5t-72.5 184.5t-191.5 67.5h-139v100h143q168 0 272.5 -98t104.5 -254q0 -157 -104 -254.5t-269 -97.5h-147zM248 0h-113v1249h113v-1249zM797 0l-383 465q66 0 127 10l393 -475h-137z" />
    <glyph glyph-name="S" unicode="S" horiz-adv-x="804" 
d="M395 711l-47 -95q-141 45 -208.5 125t-67.5 211q0 138 95.5 228t240.5 90q192 0 319 -117l-63 -84q-126 98 -252 98q-102 0 -165 -59.5t-63 -155.5q0 -88 45 -141.5t166 -99.5zM428 582l49 94q147 -56 216 -134t69 -206q0 -156 -104.5 -256t-264.5 -100
q-105 0 -193.5 32.5t-146.5 85.5l64 88q128 -104 276 -104q115 0 185.5 69.5t70.5 182.5q0 90 -50 146t-171 102z" />
    <glyph glyph-name="T" unicode="T" horiz-adv-x="841" 
d="M16 1147v102h809v-102h-809zM477 1067v-1067h-112v1067h112z" />
    <glyph glyph-name="U" unicode="U" horiz-adv-x="1093" 
d="M502 -16q-183 19 -283 130t-100 289v846h112v-850q0 -128 71.5 -212t199.5 -99v-104zM590 -16v104q130 15 201 98t71 213v850h113v-846q0 -178 -101 -289t-284 -130z" />
    <glyph glyph-name="V" unicode="V" horiz-adv-x="1040" 
d="M94 1249l486 -1151l-60 -143l-545 1294h119zM567 344l381 905h117l-442 -1040z" />
    <glyph glyph-name="W" unicode="W" horiz-adv-x="1632" 
d="M715 680l55 -121l-250 -604l-545 1294h119l428 -1038zM686 1249l485 -1151l-59 -143l-545 1294h119zM1161 344l381 905h115l-438 -1038z" />
    <glyph glyph-name="X" unicode="X" horiz-adv-x="925" 
d="M586 680l-64 96l266 473h123zM793 0l-779 1249h127l779 -1249h-127zM344 575l64 -100l-279 -475h-123z" />
    <glyph glyph-name="Y" unicode="Y" horiz-adv-x="856" 
d="M176 0l594 1249h121l-592 -1249h-123zM395 657l-61 -118l-350 710h127z" />
    <glyph glyph-name="Z" unicode="Z" horiz-adv-x="897" 
d="M827 1147h-807v102h867zM653 1067h125l-649 -1067h-129zM225 0l62 102h571v-102h-633z" />
    <glyph glyph-name="bracketleft" unicode="[" horiz-adv-x="512" 
d="M272 682h-100v723h283v-90h-183v-633zM272 567v-608h183v-90h-283v698h100z" />
    <glyph glyph-name="backslash" unicode="\" horiz-adv-x="690" 
d="M598 0l-618 1249h112l619 -1249h-113z" />
    <glyph glyph-name="bracketright" unicode="]" horiz-adv-x="512" 
d="M340 682h-98v633h-185v90h283v-723zM340 567v-698h-283v90h185v608h98z" />
    <glyph glyph-name="asciicircum" unicode="^" horiz-adv-x="720" 
d="M41 731l242 518h155l242 -518h-72l-248 414l-247 -414h-72z" />
    <glyph glyph-name="underscore" unicode="_" horiz-adv-x="856" 
d="M63 0v100h730v-100h-730z" />
    <glyph glyph-name="grave" unicode="`" horiz-adv-x="370" 
d="M205 1145l-219 237h145l137 -237h-63z" />
    <glyph glyph-name="a" unicode="a" 
d="M565 1155l-317 -756h428l43 -100h-514l-125 -299h-117l545 1294zM551 907l59 137l445 -1044h-119z" />
    <glyph glyph-name="b" unicode="b" horiz-adv-x="956" 
d="M248 0h-113v1249h113v-1249zM336 598v100h180q103 0 169.5 62t66.5 166q0 101 -66.5 162t-169.5 61h-180v100h182q155 0 251.5 -89t96.5 -232q0 -92 -45 -165t-123 -110q97 -37 152 -117.5t55 -189.5q0 -154 -103.5 -250t-269.5 -96h-196v100h192q117 0 190 67.5
t73 180.5q0 115 -73 182.5t-190 67.5h-192z" />
    <glyph glyph-name="c" unicode="c" horiz-adv-x="1114" 
d="M690 84q198 0 338 111l74 -76q-74 -65 -182.5 -102t-229.5 -37q-178 0 -323 77.5t-230.5 216t-95.5 312.5h117q12 -221 160.5 -361.5t371.5 -140.5zM690 1165q-223 0 -371.5 -140t-160.5 -359h-117q15 264 197 434t452 170q120 0 228 -37.5t184 -102.5l-74 -75
q-138 110 -338 110z" />
    <glyph glyph-name="d" unicode="d" horiz-adv-x="1187" 
d="M248 0h-113v1249h113v-1249zM496 1147h-160v102h162q283 0 466 -175.5t183 -448.5t-183 -449t-466 -176h-162v102h160q236 0 386 147t150 376q0 230 -151 376t-385 146z" />
    <glyph glyph-name="e" unicode="e" horiz-adv-x="878" 
d="M774 1147h-438v102h438v-102zM248 1249v-1249h-113v1249h113zM774 0h-438v102h438v-102zM739 575h-403v103h403v-103z" />
    <glyph glyph-name="f" unicode="f" horiz-adv-x="839" 
d="M135 0v1249h113v-1249h-113zM336 539v102h379v-102h-379zM336 1147v102h430v-102h-430z" />
    <glyph glyph-name="g" unicode="g" horiz-adv-x="1257" 
d="M1057 0v571h-350v103h460v-674h-110zM690 1165q-223 0 -371.5 -140t-160.5 -359h-117q15 264 197 434t452 170q120 0 229 -37.5t185 -102.5l-76 -75q-138 110 -338 110zM682 -20q-266 0 -446 170.5t-195 435.5h117q12 -222 160 -362t372 -140q153 0 279 74v-115
q-126 -63 -287 -63z" />
    <glyph glyph-name="h" unicode="h" horiz-adv-x="1150" 
d="M135 0v1249h113v-561h567v-102h-567v-586h-113zM903 0v1249h113v-1249h-113z" />
    <glyph glyph-name="i" unicode="i" horiz-adv-x="382" 
d="M135 0v1249h113v-1249h-113z" />
    <glyph glyph-name="j" unicode="j" horiz-adv-x="722" 
d="M524 111l-78 77q46 64 46 166v895h112v-897q0 -142 -80 -241zM231 84q93 0 154 45l76 -78q-86 -71 -230 -71q-142 0 -231 71l76 78q64 -45 155 -45z" />
    <glyph glyph-name="k" unicode="k" horiz-adv-x="911" 
d="M248 1249v-1249h-113v1249h113zM942 1249l-606 -694v154l475 540h131zM381 481l76 84l481 -565h-137z" />
    <glyph glyph-name="l" unicode="l" horiz-adv-x="747" 
d="M248 182h-113v1067h113v-1067zM715 102v-102h-580v102h580z" />
    <glyph glyph-name="m" unicode="m" horiz-adv-x="1400" 
d="M1065 1040v-155l-365 -473l-419 540l-146 176v166l565 -723zM1266 0h-113v1155l113 139v-1294zM248 858v-858h-113v987z" />
    <glyph glyph-name="n" unicode="n" horiz-adv-x="1210" 
d="M1075 119v-162l-940 1173v162zM1075 254l-112 133v862h112v-995zM248 862v-862h-113v995z" />
    <glyph glyph-name="o" unicode="o" horiz-adv-x="1380" 
d="M104 332q-63 132 -63 293q0 269 170 449.5t436 195.5v-107q-217 -14 -353 -163t-136 -375q0 -130 47 -236zM1176 389q47 106 47 236q0 224 -136 373.5t-352 164.5v107q265 -15 434.5 -195.5t169.5 -449.5q0 -161 -63 -293zM1231 256q-86 -130 -227 -203t-314 -73
t-315.5 73t-227.5 203l99 57q70 -108 185 -168.5t259 -60.5q143 0 259 61t186 168z" />
    <glyph glyph-name="p" unicode="p" horiz-adv-x="948" 
d="M336 502h102q149 0 240.5 87.5t91.5 235.5q0 147 -91.5 234.5t-240.5 87.5h-102v102h108q200 0 321.5 -119t121.5 -305q0 -187 -121.5 -306.5t-321.5 -119.5h-108v103zM248 0h-113v1249h113v-1249z" />
    <glyph glyph-name="q" unicode="q" horiz-adv-x="1388" 
d="M735 1270q263 -15 433.5 -195t170.5 -446q0 -138 -49 -257t-139 -190h-150q103 72 162.5 188.5t59.5 256.5q0 223 -136.5 372t-351.5 164v107zM41 627q0 132 45.5 248t125.5 200.5t192.5 136t242.5 58.5v-107q-217 -15 -353 -163.5t-136 -372.5q0 -130 47 -236l-101 -57
q-63 132 -63 293zM246 313q68 -99 183.5 -155t260.5 -56h678v-102h-676q-177 0 -318 68t-227 190z" />
    <glyph glyph-name="r" unicode="r" horiz-adv-x="954" 
d="M336 545v100h139q119 0 191.5 67.5t72.5 184.5t-72.5 184.5t-191.5 67.5h-139v100h143q168 0 272.5 -98t104.5 -254q0 -157 -104 -254.5t-269 -97.5h-147zM248 0h-113v1249h113v-1249zM797 0l-383 465q66 0 127 10l393 -475h-137z" />
    <glyph glyph-name="s" unicode="s" horiz-adv-x="804" 
d="M395 711l-47 -95q-141 45 -208.5 125t-67.5 211q0 138 95.5 228t240.5 90q192 0 319 -117l-63 -84q-126 98 -252 98q-102 0 -165 -59.5t-63 -155.5q0 -88 45 -141.5t166 -99.5zM428 582l49 94q147 -56 216 -134t69 -206q0 -156 -104.5 -256t-264.5 -100
q-105 0 -193.5 32.5t-146.5 85.5l64 88q128 -104 276 -104q115 0 185.5 69.5t70.5 182.5q0 90 -50 146t-171 102z" />
    <glyph glyph-name="t" unicode="t" horiz-adv-x="841" 
d="M16 1147v102h809v-102h-809zM477 1067v-1067h-112v1067h112z" />
    <glyph glyph-name="u" unicode="u" horiz-adv-x="1093" 
d="M502 -16q-183 19 -283 130t-100 289v846h112v-850q0 -128 71.5 -212t199.5 -99v-104zM590 -16v104q130 15 201 98t71 213v850h113v-846q0 -178 -101 -289t-284 -130z" />
    <glyph glyph-name="v" unicode="v" horiz-adv-x="1040" 
d="M94 1249l486 -1151l-60 -143l-545 1294h119zM567 344l381 905h117l-442 -1040z" />
    <glyph glyph-name="w" unicode="w" horiz-adv-x="1632" 
d="M715 680l55 -121l-250 -604l-545 1294h119l428 -1038zM686 1249l485 -1151l-59 -143l-545 1294h119zM1161 344l381 905h115l-438 -1038z" />
    <glyph glyph-name="x" unicode="x" horiz-adv-x="925" 
d="M586 680l-64 96l266 473h123zM793 0l-779 1249h127l779 -1249h-127zM344 575l64 -100l-279 -475h-123z" />
    <glyph glyph-name="y" unicode="y" horiz-adv-x="856" 
d="M176 0l594 1249h121l-592 -1249h-123zM395 657l-61 -118l-350 710h127z" />
    <glyph glyph-name="z" unicode="z" horiz-adv-x="897" 
d="M827 1147h-807v102h867zM653 1067h125l-649 -1067h-129zM225 0l62 102h571v-102h-633z" />
    <glyph glyph-name="braceleft" unicode="{" horiz-adv-x="546" 
d="M150 672h-115v76h61q49 0 70.5 19t21.5 58v580h301v-90h-200v-488q0 -70 -37 -111t-102 -44zM35 578h115q65 -3 102 -42.5t37 -109.5v-467h200v-90h-301v555q0 78 -92 78h-61v76z" />
    <glyph glyph-name="bar" unicode="|" horiz-adv-x="485" 
d="M193 -254v1757h100v-1757h-100z" />
    <glyph glyph-name="braceright" unicode="}" horiz-adv-x="546" 
d="M397 672q-65 3 -102 44t-37 111v488h-201v90h301v-580q0 -77 93 -77h61v-76h-115zM512 578v-76h-61q-93 0 -93 -78v-555h-301v90h201v467q0 70 37 109.5t102 42.5h115z" />
    <glyph glyph-name="asciitilde" unicode="~" horiz-adv-x="905" 
d="M643 498q-52 0 -106 21.5t-92.5 48t-87 48t-89.5 21.5q-50 0 -78 -31t-28 -90h-99q0 225 199 225q51 0 105 -21.5t92 -48t87 -48t91 -21.5q50 0 78 31t28 90h99q0 -113 -51.5 -169t-147.5 -56z" />
    <glyph glyph-name="uni00A0" unicode="&#xa0;" horiz-adv-x="360" 
 />
    <glyph glyph-name="exclamdown" unicode="&#xa1;" horiz-adv-x="405" 
d="M203 1106q-34 0 -57 22t-23 56t23 57t57 23t57 -23t23 -57t-23 -56t-57 -22zM129 0l45 961h57l45 -961h-147z" />
    <glyph glyph-name="cent" unicode="&#xa2;" horiz-adv-x="897" 
d="M166 666h-113q10 216 137 355.5t332 162.5v166h103v-162q132 -9 241 -62l-45 -92q-101 49 -219 49q-186 0 -305 -113.5t-131 -303.5zM53 586h115q10 -187 129 -299.5t305 -112.5q119 0 221 55l49 -90q-112 -61 -243 -67v-172h-103v176q-204 22 -333.5 159.5t-139.5 350.5
z" />
    <glyph glyph-name="sterling" unicode="&#xa3;" horiz-adv-x="946" 
d="M84 590v100h131v113q0 237 96 352t293 115q54 0 115 -17.5t102 -42.5l-61 -94q-80 51 -158 51q-140 0 -207 -89.5t-67 -276.5v-111h397v-100h-641zM328 508v-406h561v-102h-832v102h158v406h113z" />
    <glyph glyph-name="yen" unicode="&#xa5;" horiz-adv-x="915" 
d="M860 561h-809v76h285l-320 612h125l318 -612l317 612h123l-324 -612h285v-76zM512 0h-113v403h-348v78h809v-78h-348v-403z" />
    <glyph glyph-name="brokenbar" unicode="&#xa6;" horiz-adv-x="485" 
d="M193 764v739h100v-739h-100zM193 -254v739h100v-739h-100z" />
    <glyph glyph-name="section" unicode="&#xa7;" horiz-adv-x="778" 
d="M393 1270q190 0 309 -109l-65 -82q-114 88 -244 88q-95 0 -155 -58t-60 -148q0 -88 52.5 -145t222.5 -152l241 -132l-51 -94l-235 129q-146 81 -216.5 136.5t-99.5 113.5t-29 144q0 132 94.5 220.5t235.5 88.5zM385 -252q-198 0 -307 109l65 82q110 -89 242 -89
q96 0 156.5 58.5t60.5 148.5q0 88 -52 144t-224 153l-242 131l53 93l236 -127q145 -81 215 -136.5t98.5 -113t28.5 -144.5q0 -132 -94.5 -220.5t-235.5 -88.5z" />
    <glyph glyph-name="dieresis" unicode="&#xa8;" horiz-adv-x="481" 
d="M469 1280q0 -31 -20.5 -52.5t-51.5 -21.5t-52 21.5t-21 52.5t21 51.5t52 20.5t51.5 -20.5t20.5 -51.5zM156 1280q0 -31 -20.5 -52.5t-51.5 -21.5t-52.5 21.5t-21.5 52.5t21.5 51.5t52.5 20.5t51.5 -20.5t20.5 -51.5z" />
    <glyph glyph-name="copyright" unicode="&#xa9;" horiz-adv-x="1376" 
d="M311 653q9 164 117.5 268.5t271.5 104.5q152 0 256 -84l-45 -70q-78 66 -209 66q-123 0 -205 -79.5t-91 -205.5h-95zM311 596h95q9 -128 91 -207.5t205 -79.5q124 0 207 64l47 -66q-102 -86 -256 -86q-162 0 -271 105t-118 270zM723 -12v71q229 15 374.5 174.5
t145.5 395.5q0 235 -146 394.5t-374 172.5v72q261 -15 428.5 -194.5t167.5 -444.5q0 -266 -168 -446t-428 -195zM635 -12q-167 10 -299 94.5t-205.5 227.5t-73.5 319q0 175 73 317.5t205 227t300 94.5v-72q-220 -14 -361 -173t-141 -394q0 -236 141 -395.5t361 -174.5v-71z
" />
    <glyph glyph-name="ordfeminine" unicode="&#xaa;" horiz-adv-x="1044" 
d="M86 0v96h872v-96h-872zM571 1200l-245 -524h305l45 -90h-393l-86 -183h-107l430 902zM838 403l-273 605l51 106l328 -711h-106z" />
    <glyph glyph-name="guillemotleft" unicode="&#xab;" horiz-adv-x="673" 
d="M322 365l-342 253l342 254v-106l-201 -148l201 -147v-106zM645 365l-342 253l342 254v-106l-201 -148l201 -147v-106z" />
    <glyph glyph-name="logicalnot" unicode="&#xac;" horiz-adv-x="974" 
d="M797 291v297h-723v102h827v-399h-104z" />
    <glyph glyph-name="uni00AD" unicode="&#xad;" horiz-adv-x="563" 
d="M61 584v106h441v-106h-441z" />
    <glyph glyph-name="registered" unicode="&#xae;" horiz-adv-x="1150" 
d="M53 707h76q11 -189 136 -312t310 -123t310.5 123.5t136.5 311.5h76q-12 -217 -159.5 -359.5t-363.5 -142.5q-217 0 -364 142t-158 360zM53 770q11 217 157.5 358.5t364.5 141.5q217 0 364 -141t159 -359h-76q-11 188 -136.5 310t-310.5 122t-310 -122t-136 -310h-76z
M455 762h139q58 0 92.5 32t34.5 85q0 50 -34.5 81t-92.5 31h-68v74h70q95 0 153 -50.5t58 -135.5q0 -88 -57 -139.5t-154 -51.5h-141v-268h-84v645h84v-303zM598 627q44 0 88 12l152 -219h-97z" />
    <glyph glyph-name="macron" unicode="&#xaf;" horiz-adv-x="595" 
d="M74 1217v79h448v-79h-448z" />
    <glyph glyph-name="degree" unicode="&#xb0;" horiz-adv-x="632" 
d="M483 1102l56 61q57 -75 57 -174q0 -118 -82 -199t-197 -81q-116 0 -198 81t-82 199t81.5 199.5t198.5 81.5q90 0 158 -47l-55 -60q-39 27 -103 27q-82 0 -138 -58t-56 -143t56 -143t138 -58t138.5 58t56.5 143q0 63 -29 113z" />
    <glyph glyph-name="plusminus" unicode="&#xb1;" horiz-adv-x="991" 
d="M444 238v358h-370v100h370v361h103v-361h371v-100h-371v-358h-103zM918 0h-844v100h844v-100z" />
    <glyph glyph-name="acute" unicode="&#xb4;" horiz-adv-x="370" 
d="M102 1145l138 237h145l-219 -237h-64z" />
    <glyph glyph-name="paragraph" unicode="&#xb6;" horiz-adv-x="978" 
d="M748 0v1249h92v-1249h-92zM485 0v451q-189 12 -302 120t-113 283q0 180 125.5 287.5t330.5 107.5h49v-1249h-90z" />
    <glyph glyph-name="periodcentered" unicode="&#xb7;" horiz-adv-x="303" 
d="M152 489q-35 0 -57.5 23t-22.5 57t22.5 56t57.5 22q34 0 56.5 -22t22.5 -56t-22.5 -57t-56.5 -23z" />
    <glyph glyph-name="cedilla" unicode="&#xb8;" horiz-adv-x="389" 
d="M72 -342l92 266h117l-154 -266h-55z" />
    <glyph glyph-name="ordmasculine" unicode="&#xba;" horiz-adv-x="1044" 
d="M96 0v96h838v-96h-838zM918 621l-84 49q30 61 30 153q0 138 -84.5 237t-214.5 114v92q170 -15 286 -142t116 -301q0 -114 -49 -202zM788 598l82 -51q-61 -78 -152.5 -123t-195.5 -45q-105 0 -197 45.5t-153 124.5l82 49q102 -129 268 -129q82 0 150.5 34t115.5 95z
M479 1176q-131 -17 -215 -116t-84 -237q0 -83 29 -151l-82 -51q-49 91 -49 202q0 174 115 301t284 142z" />
    <glyph glyph-name="guillemotright" unicode="&#xbb;" horiz-adv-x="673" 
d="M694 618l-342 -253v106l201 147l-201 148v106zM373 618l-344 -253v106l200 147l-200 148v106z" />
    <glyph glyph-name="questiondown" unicode="&#xbf;" horiz-adv-x="778" 
d="M133 588l76 -76q-68 -71 -68 -184q0 -108 71.5 -177t186.5 -69q116 0 207 72l62 -82q-45 -42 -117 -67t-156 -25q-163 0 -265.5 95t-102.5 247q0 163 106 266zM279 563l-78 78q102 57 237 57h62l12 263h59l39 -361h-168q-87 0 -163 -37zM545 1264q34 0 56 -23t22 -57
t-22 -56t-56 -22t-57 22t-23 56t23 57t57 23z" />
    <glyph glyph-name="Agrave" unicode="&#xc0;" 
d="M475 1319l-219 237h145l138 -237h-64zM565 1155l-317 -756h428l43 -100h-514l-125 -299h-117l545 1294zM551 907l59 137l445 -1044h-119z" />
    <glyph glyph-name="Aacute" unicode="&#xc1;" 
d="M475 1319l137 237h146l-219 -237h-64zM565 1155l-317 -756h428l43 -100h-514l-125 -299h-117l545 1294zM551 907l59 137l445 -1044h-119z" />
    <glyph glyph-name="Acircumflex" unicode="&#xc2;" 
d="M256 1319l193 266h118l193 -266h-64l-188 197l-189 -197h-63zM565 1155l-317 -756h428l43 -100h-514l-125 -299h-117l545 1294zM551 907l59 137l445 -1044h-119z" />
    <glyph glyph-name="Atilde" unicode="&#xc3;" 
d="M645 1370q-43 0 -85 18.5t-70 41t-63 41t-65 18.5q-43 0 -68.5 -27t-25.5 -76h-71q0 86 48.5 133.5t119.5 47.5q41 0 82.5 -18.5t69.5 -41t63.5 -41t66.5 -18.5q44 0 69 27t25 77h72q0 -87 -49 -134.5t-119 -47.5zM565 1155l-317 -756h428l43 -100h-514l-125 -299h-117
l545 1294zM551 907l59 137l445 -1044h-119z" />
    <glyph glyph-name="Adieresis" unicode="&#xc4;" 
d="M840 1210q0 -31 -20.5 -51t-51.5 -20t-52.5 20.5t-21.5 50.5q0 31 21.5 51.5t52.5 20.5t51.5 -20.5t20.5 -51.5zM315 1210q0 -31 -21 -51t-52 -20t-51.5 20t-20.5 51t20.5 51.5t51.5 20.5t52 -20.5t21 -51.5zM565 1155l-317 -756h428l43 -100h-514l-125 -299h-117
l545 1294zM551 907l59 137l445 -1044h-119z" />
    <glyph glyph-name="Aring" unicode="&#xc5;" 
d="M463 1319q-73 15 -122.5 74t-49.5 137q0 93 63 156t154 63t154 -63t63 -156q0 -79 -50 -138t-124 -73v70q44 13 72 53t28 88q0 65 -41 108t-102 43t-102 -43t-41 -108q0 -47 27.5 -87.5t70.5 -53.5v-70zM565 1155l-317 -756h428l43 -100h-514l-125 -299h-117l545 1294z
M551 907l59 137l445 -1044h-119z" />
    <glyph glyph-name="AE" unicode="&#xc6;" horiz-adv-x="1345" 
d="M434 1116l58 133l239 -569h471v-105h-540zM694 496h117l164 -394h266v-102h-340zM602 496l41 -101h-397l-164 -395h-119l426 1010l57 -129l-159 -385h315zM629 1147l-45 102h657v-102h-612z" />
    <glyph glyph-name="Ccedilla" unicode="&#xc7;" horiz-adv-x="1114" 
d="M545 -342l92 266h117l-154 -266h-55zM690 84q198 0 338 111l74 -76q-74 -65 -182.5 -102t-229.5 -37q-178 0 -323 77.5t-230.5 216t-95.5 312.5h117q12 -221 160.5 -361.5t371.5 -140.5zM690 1165q-223 0 -371.5 -140t-160.5 -359h-117q15 264 197 434t452 170
q120 0 228 -37.5t184 -102.5l-74 -75q-138 110 -338 110z" />
    <glyph glyph-name="Egrave" unicode="&#xc8;" horiz-adv-x="878" 
d="M424 1319l-219 237h145l137 -237h-63zM774 1147h-438v102h438v-102zM248 1249v-1249h-113v1249h113zM774 0h-438v102h438v-102zM739 575h-403v103h403v-103z" />
    <glyph glyph-name="Eacute" unicode="&#xc9;" horiz-adv-x="878" 
d="M774 1147h-438v102h438v-102zM248 1249v-1249h-113v1249h113zM774 0h-438v102h438v-102zM739 575h-403v103h403v-103zM424 1319l137 237h146l-220 -237h-63z" />
    <glyph glyph-name="Ecircumflex" unicode="&#xca;" horiz-adv-x="878" 
d="M774 1147h-438v102h438v-102zM248 1249v-1249h-113v1249h113zM774 0h-438v102h438v-102zM739 575h-403v103h403v-103zM205 1319l192 266h119l193 -266h-64l-188 197l-189 -197h-63z" />
    <glyph glyph-name="Edieresis" unicode="&#xcb;" horiz-adv-x="878" 
d="M774 1147h-438v102h438v-102zM248 1249v-1249h-113v1249h113zM774 0h-438v102h438v-102zM739 575h-403v103h403v-103zM686 1454q0 -31 -20.5 -52.5t-51.5 -21.5t-52 21.5t-21 52.5t21 51.5t52 20.5t51.5 -20.5t20.5 -51.5zM373 1454q0 -31 -20.5 -52.5t-51.5 -21.5
t-52.5 21.5t-21.5 52.5t21.5 51.5t52.5 20.5t51.5 -20.5t20.5 -51.5z" />
    <glyph glyph-name="Igrave" unicode="&#xcc;" horiz-adv-x="382" 
d="M160 1319l-219 237h145l137 -237h-63zM135 0v1249h113v-1249h-113z" />
    <glyph glyph-name="Iacute" unicode="&#xcd;" horiz-adv-x="382" 
d="M158 1319l137 237h145l-219 -237h-63zM135 0v1249h113v-1249h-113z" />
    <glyph glyph-name="Icircumflex" unicode="&#xce;" horiz-adv-x="382" 
d="M-61 1319l192 266h119l192 -266h-63l-189 197l-188 -197h-63zM135 0v1249h113v-1249h-113z" />
    <glyph glyph-name="Idieresis" unicode="&#xcf;" horiz-adv-x="382" 
d="M420 1454q0 -31 -20.5 -52.5t-51.5 -21.5t-52.5 21.5t-21.5 52.5t21.5 51.5t52.5 20.5t51.5 -20.5t20.5 -51.5zM106 1454q0 -31 -20.5 -52.5t-50.5 -21.5q-31 0 -52.5 21.5t-21.5 52.5t21.5 51.5t52.5 20.5t51 -20.5t20 -51.5zM135 0v1249h113v-1249h-113z" />
    <glyph glyph-name="Eth" unicode="&#xd0;" horiz-adv-x="1198" 
d="M264 0h-112v582h-129v100h542v-100h-301v-582zM508 0h-156v102h154q236 0 386 147t150 376q0 230 -151 376t-385 146h-242v-385h-112v487h356q283 0 466 -175.5t183 -448.5t-183 -449t-466 -176z" />
    <glyph glyph-name="Ntilde" unicode="&#xd1;" horiz-adv-x="1210" 
d="M733 1370q-43 0 -84.5 18.5t-69.5 41t-63 41t-65 18.5q-43 0 -69 -27t-26 -76h-71q0 86 48.5 133.5t119.5 47.5q41 0 82.5 -18.5t69.5 -41t63.5 -41t66.5 -18.5q44 0 69 27t25 77h72q0 -87 -49 -134.5t-119 -47.5zM1075 119v-162l-940 1173v162zM1075 254l-112 133v862
h112v-995zM248 862v-862h-113v995z" />
    <glyph glyph-name="Ograve" unicode="&#xd2;" horiz-adv-x="1380" 
d="M657 1319l-219 237h146l137 -237h-64zM104 332q-63 132 -63 293q0 269 170 449.5t436 195.5v-107q-217 -14 -353 -163t-136 -375q0 -130 47 -236zM1176 389q47 106 47 236q0 224 -136 373.5t-352 164.5v107q265 -15 434.5 -195.5t169.5 -449.5q0 -161 -63 -293zM1231 256
q-86 -130 -227 -203t-314 -73t-315.5 73t-227.5 203l99 57q70 -108 185 -168.5t259 -60.5q143 0 259 61t186 168z" />
    <glyph glyph-name="Oacute" unicode="&#xd3;" horiz-adv-x="1380" 
d="M104 332q-63 132 -63 293q0 269 170 449.5t436 195.5v-107q-217 -14 -353 -163t-136 -375q0 -130 47 -236zM1176 389q47 106 47 236q0 224 -136 373.5t-352 164.5v107q265 -15 434.5 -195.5t169.5 -449.5q0 -161 -63 -293zM1231 256q-86 -130 -227 -203t-314 -73
t-315.5 73t-227.5 203l99 57q70 -108 185 -168.5t259 -60.5q143 0 259 61t186 168zM657 1319l138 237h145l-219 -237h-64z" />
    <glyph glyph-name="Ocircumflex" unicode="&#xd4;" horiz-adv-x="1380" 
d="M104 332q-63 132 -63 293q0 269 170 449.5t436 195.5v-107q-217 -14 -353 -163t-136 -375q0 -130 47 -236zM1176 389q47 106 47 236q0 224 -136 373.5t-352 164.5v107q265 -15 434.5 -195.5t169.5 -449.5q0 -161 -63 -293zM1231 256q-86 -130 -227 -203t-314 -73
t-315.5 73t-227.5 203l99 57q70 -108 185 -168.5t259 -60.5q143 0 259 61t186 168zM438 1319l193 266h119l192 -266h-63l-189 197l-188 -197h-64z" />
    <glyph glyph-name="Otilde" unicode="&#xd5;" horiz-adv-x="1380" 
d="M827 1370q-43 0 -84.5 18.5t-69.5 41t-63 41t-65 18.5q-43 0 -68.5 -27t-25.5 -76h-72q0 86 48.5 133.5t119.5 47.5q41 0 82.5 -18.5t69.5 -41t63.5 -41t66.5 -18.5q44 0 69.5 27t25.5 77h71q0 -87 -49 -134.5t-119 -47.5zM104 332q-63 132 -63 293q0 269 170 449.5
t436 195.5v-107q-217 -14 -353 -163t-136 -375q0 -130 47 -236zM1176 389q47 106 47 236q0 224 -136 373.5t-352 164.5v107q265 -15 434.5 -195.5t169.5 -449.5q0 -161 -63 -293zM1231 256q-86 -130 -227 -203t-314 -73t-315.5 73t-227.5 203l99 57q70 -108 185 -168.5
t259 -60.5q143 0 259 61t186 168z" />
    <glyph glyph-name="Odieresis" unicode="&#xd6;" horiz-adv-x="1380" 
d="M104 332q-63 132 -63 293q0 269 170 449.5t436 195.5v-107q-217 -14 -353 -163t-136 -375q0 -130 47 -236zM1176 389q47 106 47 236q0 224 -136 373.5t-352 164.5v107q265 -15 434.5 -195.5t169.5 -449.5q0 -161 -63 -293zM1231 256q-86 -130 -227 -203t-314 -73
t-315.5 73t-227.5 203l99 57q70 -108 185 -168.5t259 -60.5q143 0 259 61t186 168zM920 1454q0 -31 -20.5 -52.5t-51.5 -21.5t-52.5 21.5t-21.5 52.5t21.5 51.5t52.5 20.5t51.5 -20.5t20.5 -51.5zM606 1454q0 -31 -20.5 -52.5t-50.5 -21.5q-31 0 -52.5 21.5t-21.5 52.5
t21.5 51.5t52.5 20.5t51 -20.5t20 -51.5z" />
    <glyph glyph-name="multiply" unicode="&#xd7;" horiz-adv-x="894" 
d="M139 250l-71 69l307 310l-307 309l71 70l310 -310l307 310l71 -70l-309 -309l309 -310l-71 -69l-312 309z" />
    <glyph glyph-name="Oslash" unicode="&#xd8;" horiz-adv-x="1396" 
d="M246 330l-82 -84q-115 165 -115 379q0 185 83 332.5t231.5 230t334.5 82.5q185 0 330 -82l-72 -88q-117 65 -258 65q-233 0 -383.5 -152t-150.5 -388q0 -157 82 -295zM1186 389q47 106 47 236q0 218 -129 366l-680 -739q-47 24 -74 65l858 932h131l-161 -176
q170 -176 170 -448q0 -159 -64 -293zM1145 311l94 -55q-86 -130 -227 -203t-314 -73q-234 0 -403 133l-102 -113h-132l234 258q71 -84 174.5 -129t228.5 -45q143 0 259.5 60t187.5 167z" />
    <glyph glyph-name="Ugrave" unicode="&#xd9;" horiz-adv-x="1093" 
d="M514 1319l-219 237h145l138 -237h-64zM502 -16q-183 19 -283 130t-100 289v846h112v-850q0 -128 71.5 -212t199.5 -99v-104zM590 -16v104q130 15 201 98t71 213v850h113v-846q0 -178 -101 -289t-284 -130z" />
    <glyph glyph-name="Uacute" unicode="&#xda;" horiz-adv-x="1093" 
d="M502 -16q-183 19 -283 130t-100 289v846h112v-850q0 -128 71.5 -212t199.5 -99v-104zM590 -16v104q130 15 201 98t71 213v850h113v-846q0 -178 -101 -289t-284 -130zM514 1319l137 237h146l-219 -237h-64z" />
    <glyph glyph-name="Ucircumflex" unicode="&#xdb;" horiz-adv-x="1093" 
d="M502 -16q-183 19 -283 130t-100 289v846h112v-850q0 -128 71.5 -212t199.5 -99v-104zM590 -16v104q130 15 201 98t71 213v850h113v-846q0 -178 -101 -289t-284 -130zM293 1319l192 266h119l193 -266h-64l-188 197l-189 -197h-63z" />
    <glyph glyph-name="Udieresis" unicode="&#xdc;" horiz-adv-x="1093" 
d="M502 -16q-183 19 -283 130t-100 289v846h112v-850q0 -128 71.5 -212t199.5 -99v-104zM590 -16v104q130 15 201 98t71 213v850h113v-846q0 -178 -101 -289t-284 -130zM774 1454q0 -31 -20.5 -52.5t-51.5 -21.5t-52 21.5t-21 52.5t21 51.5t52 20.5t51.5 -20.5t20.5 -51.5z
M461 1454q0 -31 -20.5 -52.5t-51.5 -21.5t-52.5 21.5t-21.5 52.5t21.5 51.5t52.5 20.5t51.5 -20.5t20.5 -51.5z" />
    <glyph glyph-name="Yacute" unicode="&#xdd;" horiz-adv-x="856" 
d="M403 1319l138 237h145l-219 -237h-64zM176 0l594 1249h121l-592 -1249h-123zM395 657l-61 -118l-350 710h127z" />
    <glyph glyph-name="Thorn" unicode="&#xde;" horiz-adv-x="940" 
d="M248 870v-870h-113v870h113zM248 1249v-196h188q200 0 321.5 -119t121.5 -305t-121 -305.5t-320 -120.5h-102v102h98q146 2 237 90t91 234q0 147 -91.5 234t-240.5 87h-295v299h113z" />
    <glyph glyph-name="germandbls" unicode="&#xdf;" horiz-adv-x="1693" 
d="M1284 711l-47 -95q-141 45 -208.5 125t-67.5 211q0 138 95 228t240 90q193 0 320 -117l-64 -84q-126 98 -252 98q-101 0 -164 -59t-63 -156q0 -88 45 -141.5t166 -99.5zM1317 582l49 94q147 -56 216 -134t69 -206q0 -156 -104.5 -256t-264.5 -100q-105 0 -193.5 32.5
t-146.5 85.5l64 88q128 -104 276 -104q115 0 185.5 69.5t70.5 182.5q0 90 -50 146t-171 102zM395 711l-47 -95q-141 45 -208.5 125t-67.5 211q0 138 95.5 228t240.5 90q192 0 319 -117l-63 -84q-126 98 -252 98q-102 0 -165 -59.5t-63 -155.5q0 -88 45 -141.5t166 -99.5z
M428 582l49 94q147 -56 216 -134t69 -206q0 -156 -104.5 -256t-264.5 -100q-105 0 -193.5 32.5t-146.5 85.5l64 88q128 -104 276 -104q115 0 185.5 69.5t70.5 182.5q0 90 -50 146t-171 102z" />
    <glyph glyph-name="agrave" unicode="&#xe0;" 
d="M475 1319l-219 237h145l138 -237h-64zM565 1155l-317 -756h428l43 -100h-514l-125 -299h-117l545 1294zM551 907l59 137l445 -1044h-119z" />
    <glyph glyph-name="aacute" unicode="&#xe1;" 
d="M475 1319l137 237h146l-219 -237h-64zM565 1155l-317 -756h428l43 -100h-514l-125 -299h-117l545 1294zM551 907l59 137l445 -1044h-119z" />
    <glyph glyph-name="acircumflex" unicode="&#xe2;" 
d="M256 1319l193 266h118l193 -266h-64l-188 197l-189 -197h-63zM565 1155l-317 -756h428l43 -100h-514l-125 -299h-117l545 1294zM551 907l59 137l445 -1044h-119z" />
    <glyph glyph-name="atilde" unicode="&#xe3;" 
d="M645 1370q-43 0 -85 18.5t-70 41t-63 41t-65 18.5q-43 0 -68.5 -27t-25.5 -76h-71q0 86 48.5 133.5t119.5 47.5q41 0 82.5 -18.5t69.5 -41t63.5 -41t66.5 -18.5q44 0 69 27t25 77h72q0 -87 -49 -134.5t-119 -47.5zM565 1155l-317 -756h428l43 -100h-514l-125 -299h-117
l545 1294zM551 907l59 137l445 -1044h-119z" />
    <glyph glyph-name="adieresis" unicode="&#xe4;" 
d="M840 1210q0 -31 -20.5 -51t-51.5 -20t-52.5 20.5t-21.5 50.5q0 31 21.5 51.5t52.5 20.5t51.5 -20.5t20.5 -51.5zM315 1210q0 -31 -21 -51t-52 -20t-51.5 20t-20.5 51t20.5 51.5t51.5 20.5t52 -20.5t21 -51.5zM565 1155l-317 -756h428l43 -100h-514l-125 -299h-117
l545 1294zM551 907l59 137l445 -1044h-119z" />
    <glyph glyph-name="aring" unicode="&#xe5;" 
d="M463 1319q-73 15 -122.5 74t-49.5 137q0 93 63 156t154 63t154 -63t63 -156q0 -79 -50 -138t-124 -73v70q44 13 72 53t28 88q0 65 -41 108t-102 43t-102 -43t-41 -108q0 -47 27.5 -87.5t70.5 -53.5v-70zM565 1155l-317 -756h428l43 -100h-514l-125 -299h-117l545 1294z
M551 907l59 137l445 -1044h-119z" />
    <glyph glyph-name="ae" unicode="&#xe6;" horiz-adv-x="1345" 
d="M434 1116l58 133l239 -569h471v-105h-540zM694 496h117l164 -394h266v-102h-340zM602 496l41 -101h-397l-164 -395h-119l426 1010l57 -129l-159 -385h315zM629 1147l-45 102h657v-102h-612z" />
    <glyph glyph-name="ccedilla" unicode="&#xe7;" horiz-adv-x="1114" 
d="M545 -342l92 266h117l-154 -266h-55zM690 84q198 0 338 111l74 -76q-74 -65 -182.5 -102t-229.5 -37q-178 0 -323 77.5t-230.5 216t-95.5 312.5h117q12 -221 160.5 -361.5t371.5 -140.5zM690 1165q-223 0 -371.5 -140t-160.5 -359h-117q15 264 197 434t452 170
q120 0 228 -37.5t184 -102.5l-74 -75q-138 110 -338 110z" />
    <glyph glyph-name="egrave" unicode="&#xe8;" horiz-adv-x="878" 
d="M424 1319l-219 237h145l137 -237h-63zM774 1147h-438v102h438v-102zM248 1249v-1249h-113v1249h113zM774 0h-438v102h438v-102zM739 575h-403v103h403v-103z" />
    <glyph glyph-name="eacute" unicode="&#xe9;" horiz-adv-x="878" 
d="M774 1147h-438v102h438v-102zM248 1249v-1249h-113v1249h113zM774 0h-438v102h438v-102zM739 575h-403v103h403v-103zM424 1319l137 237h146l-220 -237h-63z" />
    <glyph glyph-name="ecircumflex" unicode="&#xea;" horiz-adv-x="878" 
d="M774 1147h-438v102h438v-102zM248 1249v-1249h-113v1249h113zM774 0h-438v102h438v-102zM739 575h-403v103h403v-103zM205 1319l192 266h119l193 -266h-64l-188 197l-189 -197h-63z" />
    <glyph glyph-name="edieresis" unicode="&#xeb;" horiz-adv-x="878" 
d="M774 1147h-438v102h438v-102zM248 1249v-1249h-113v1249h113zM774 0h-438v102h438v-102zM739 575h-403v103h403v-103zM686 1454q0 -31 -20.5 -52.5t-51.5 -21.5t-52 21.5t-21 52.5t21 51.5t52 20.5t51.5 -20.5t20.5 -51.5zM373 1454q0 -31 -20.5 -52.5t-51.5 -21.5
t-52.5 21.5t-21.5 52.5t21.5 51.5t52.5 20.5t51.5 -20.5t20.5 -51.5z" />
    <glyph glyph-name="igrave" unicode="&#xec;" horiz-adv-x="382" 
d="M160 1319l-219 237h145l137 -237h-63zM135 0v1249h113v-1249h-113z" />
    <glyph glyph-name="iacute" unicode="&#xed;" horiz-adv-x="382" 
d="M158 1319l137 237h145l-219 -237h-63zM135 0v1249h113v-1249h-113z" />
    <glyph glyph-name="icircumflex" unicode="&#xee;" horiz-adv-x="382" 
d="M-61 1319l192 266h119l192 -266h-63l-189 197l-188 -197h-63zM135 0v1249h113v-1249h-113z" />
    <glyph glyph-name="idieresis" unicode="&#xef;" horiz-adv-x="382" 
d="M420 1454q0 -31 -20.5 -52.5t-51.5 -21.5t-52.5 21.5t-21.5 52.5t21.5 51.5t52.5 20.5t51.5 -20.5t20.5 -51.5zM106 1454q0 -31 -20.5 -52.5t-50.5 -21.5q-31 0 -52.5 21.5t-21.5 52.5t21.5 51.5t52.5 20.5t51 -20.5t20 -51.5zM135 0v1249h113v-1249h-113z" />
    <glyph glyph-name="eth" unicode="&#xf0;" horiz-adv-x="1198" 
d="M264 0h-112v582h-129v100h542v-100h-301v-582zM508 0h-156v102h154q236 0 386 147t150 376q0 230 -151 376t-385 146h-242v-385h-112v487h356q283 0 466 -175.5t183 -448.5t-183 -449t-466 -176z" />
    <glyph glyph-name="ntilde" unicode="&#xf1;" horiz-adv-x="1210" 
d="M733 1370q-43 0 -84.5 18.5t-69.5 41t-63 41t-65 18.5q-43 0 -69 -27t-26 -76h-71q0 86 48.5 133.5t119.5 47.5q41 0 82.5 -18.5t69.5 -41t63.5 -41t66.5 -18.5q44 0 69 27t25 77h72q0 -87 -49 -134.5t-119 -47.5zM1075 119v-162l-940 1173v162zM1075 254l-112 133v862
h112v-995zM248 862v-862h-113v995z" />
    <glyph glyph-name="ograve" unicode="&#xf2;" horiz-adv-x="1380" 
d="M657 1319l-219 237h146l137 -237h-64zM104 332q-63 132 -63 293q0 269 170 449.5t436 195.5v-107q-217 -14 -353 -163t-136 -375q0 -130 47 -236zM1176 389q47 106 47 236q0 224 -136 373.5t-352 164.5v107q265 -15 434.5 -195.5t169.5 -449.5q0 -161 -63 -293zM1231 256
q-86 -130 -227 -203t-314 -73t-315.5 73t-227.5 203l99 57q70 -108 185 -168.5t259 -60.5q143 0 259 61t186 168z" />
    <glyph glyph-name="oacute" unicode="&#xf3;" horiz-adv-x="1380" 
d="M104 332q-63 132 -63 293q0 269 170 449.5t436 195.5v-107q-217 -14 -353 -163t-136 -375q0 -130 47 -236zM1176 389q47 106 47 236q0 224 -136 373.5t-352 164.5v107q265 -15 434.5 -195.5t169.5 -449.5q0 -161 -63 -293zM1231 256q-86 -130 -227 -203t-314 -73
t-315.5 73t-227.5 203l99 57q70 -108 185 -168.5t259 -60.5q143 0 259 61t186 168zM657 1319l138 237h145l-219 -237h-64z" />
    <glyph glyph-name="ocircumflex" unicode="&#xf4;" horiz-adv-x="1380" 
d="M104 332q-63 132 -63 293q0 269 170 449.5t436 195.5v-107q-217 -14 -353 -163t-136 -375q0 -130 47 -236zM1176 389q47 106 47 236q0 224 -136 373.5t-352 164.5v107q265 -15 434.5 -195.5t169.5 -449.5q0 -161 -63 -293zM1231 256q-86 -130 -227 -203t-314 -73
t-315.5 73t-227.5 203l99 57q70 -108 185 -168.5t259 -60.5q143 0 259 61t186 168zM438 1319l193 266h119l192 -266h-63l-189 197l-188 -197h-64z" />
    <glyph glyph-name="otilde" unicode="&#xf5;" horiz-adv-x="1380" 
d="M827 1370q-43 0 -84.5 18.5t-69.5 41t-63 41t-65 18.5q-43 0 -68.5 -27t-25.5 -76h-72q0 86 48.5 133.5t119.5 47.5q41 0 82.5 -18.5t69.5 -41t63.5 -41t66.5 -18.5q44 0 69.5 27t25.5 77h71q0 -87 -49 -134.5t-119 -47.5zM104 332q-63 132 -63 293q0 269 170 449.5
t436 195.5v-107q-217 -14 -353 -163t-136 -375q0 -130 47 -236zM1176 389q47 106 47 236q0 224 -136 373.5t-352 164.5v107q265 -15 434.5 -195.5t169.5 -449.5q0 -161 -63 -293zM1231 256q-86 -130 -227 -203t-314 -73t-315.5 73t-227.5 203l99 57q70 -108 185 -168.5
t259 -60.5q143 0 259 61t186 168z" />
    <glyph glyph-name="odieresis" unicode="&#xf6;" horiz-adv-x="1380" 
d="M104 332q-63 132 -63 293q0 269 170 449.5t436 195.5v-107q-217 -14 -353 -163t-136 -375q0 -130 47 -236zM1176 389q47 106 47 236q0 224 -136 373.5t-352 164.5v107q265 -15 434.5 -195.5t169.5 -449.5q0 -161 -63 -293zM1231 256q-86 -130 -227 -203t-314 -73
t-315.5 73t-227.5 203l99 57q70 -108 185 -168.5t259 -60.5q143 0 259 61t186 168zM920 1454q0 -31 -20.5 -52.5t-51.5 -21.5t-52.5 21.5t-21.5 52.5t21.5 51.5t52.5 20.5t51.5 -20.5t20.5 -51.5zM606 1454q0 -31 -20.5 -52.5t-50.5 -21.5q-31 0 -52.5 21.5t-21.5 52.5
t21.5 51.5t52.5 20.5t51 -20.5t20 -51.5z" />
    <glyph glyph-name="divide" unicode="&#xf7;" horiz-adv-x="991" 
d="M918 580h-844v100h844v-100zM496 924q-34 0 -57 22t-23 55q0 34 23 57t57 23t56.5 -23t22.5 -57t-22.5 -55.5t-56.5 -21.5zM496 178q-34 0 -57 23t-23 57t23 56t57 22t56.5 -22t22.5 -56t-22.5 -57t-56.5 -23z" />
    <glyph glyph-name="oslash" unicode="&#xf8;" horiz-adv-x="1396" 
d="M246 330l-82 -84q-115 165 -115 379q0 185 83 332.5t231.5 230t334.5 82.5q185 0 330 -82l-72 -88q-117 65 -258 65q-233 0 -383.5 -152t-150.5 -388q0 -157 82 -295zM1186 389q47 106 47 236q0 218 -129 366l-680 -739q-47 24 -74 65l858 932h131l-161 -176
q170 -176 170 -448q0 -159 -64 -293zM1145 311l94 -55q-86 -130 -227 -203t-314 -73q-234 0 -403 133l-102 -113h-132l234 258q71 -84 174.5 -129t228.5 -45q143 0 259.5 60t187.5 167z" />
    <glyph glyph-name="ugrave" unicode="&#xf9;" horiz-adv-x="1093" 
d="M514 1319l-219 237h145l138 -237h-64zM502 -16q-183 19 -283 130t-100 289v846h112v-850q0 -128 71.5 -212t199.5 -99v-104zM590 -16v104q130 15 201 98t71 213v850h113v-846q0 -178 -101 -289t-284 -130z" />
    <glyph glyph-name="uacute" unicode="&#xfa;" horiz-adv-x="1093" 
d="M502 -16q-183 19 -283 130t-100 289v846h112v-850q0 -128 71.5 -212t199.5 -99v-104zM590 -16v104q130 15 201 98t71 213v850h113v-846q0 -178 -101 -289t-284 -130zM514 1319l137 237h146l-219 -237h-64z" />
    <glyph glyph-name="ucircumflex" unicode="&#xfb;" horiz-adv-x="1093" 
d="M502 -16q-183 19 -283 130t-100 289v846h112v-850q0 -128 71.5 -212t199.5 -99v-104zM590 -16v104q130 15 201 98t71 213v850h113v-846q0 -178 -101 -289t-284 -130zM293 1319l192 266h119l193 -266h-64l-188 197l-189 -197h-63z" />
    <glyph glyph-name="udieresis" unicode="&#xfc;" horiz-adv-x="1093" 
d="M502 -16q-183 19 -283 130t-100 289v846h112v-850q0 -128 71.5 -212t199.5 -99v-104zM590 -16v104q130 15 201 98t71 213v850h113v-846q0 -178 -101 -289t-284 -130zM774 1454q0 -31 -20.5 -52.5t-51.5 -21.5t-52 21.5t-21 52.5t21 51.5t52 20.5t51.5 -20.5t20.5 -51.5z
M461 1454q0 -31 -20.5 -52.5t-51.5 -21.5t-52.5 21.5t-21.5 52.5t21.5 51.5t52.5 20.5t51.5 -20.5t20.5 -51.5z" />
    <glyph glyph-name="yacute" unicode="&#xfd;" horiz-adv-x="856" 
d="M403 1319l138 237h145l-219 -237h-64zM176 0l594 1249h121l-592 -1249h-123zM395 657l-61 -118l-350 710h127z" />
    <glyph glyph-name="thorn" unicode="&#xfe;" horiz-adv-x="940" 
d="M248 870v-870h-113v870h113zM248 1249v-196h188q200 0 321.5 -119t121.5 -305t-121 -305.5t-320 -120.5h-102v102h98q146 2 237 90t91 234q0 147 -91.5 234t-240.5 87h-295v299h113z" />
    <glyph glyph-name="ydieresis" unicode="&#xff;" horiz-adv-x="856" 
d="M666 1454q0 -31 -20.5 -52.5t-51.5 -21.5t-52.5 21.5t-21.5 52.5t21.5 51.5t52.5 20.5t51.5 -20.5t20.5 -51.5zM352 1454q0 -31 -20.5 -52.5t-50.5 -21.5q-31 0 -52.5 21.5t-21.5 52.5t21.5 51.5t52.5 20.5t51 -20.5t20 -51.5zM176 0l594 1249h121l-592 -1249h-123z
M395 657l-61 -118l-350 710h127z" />
    <glyph glyph-name="Amacron" unicode="&#x100;" 
d="M285 1391v79h448v-79h-448zM565 1155l-317 -756h428l43 -100h-514l-125 -299h-117l545 1294zM551 907l59 137l445 -1044h-119z" />
    <glyph glyph-name="amacron" unicode="&#x101;" 
d="M285 1391v79h448v-79h-448zM565 1155l-317 -756h428l43 -100h-514l-125 -299h-117l545 1294zM551 907l59 137l445 -1044h-119z" />
    <glyph glyph-name="Abreve" unicode="&#x102;" 
d="M506 1343q-106 0 -173.5 66t-76.5 176h72q7 -76 56 -121t124 -45t122.5 44.5t55.5 121.5h72q-9 -110 -77.5 -176t-174.5 -66zM565 1155l-317 -756h428l43 -100h-514l-125 -299h-117l545 1294zM551 907l59 137l445 -1044h-119z" />
    <glyph glyph-name="abreve" unicode="&#x103;" 
d="M506 1343q-106 0 -173.5 66t-76.5 176h72q7 -76 56 -121t124 -45t122.5 44.5t55.5 121.5h72q-9 -110 -77.5 -176t-174.5 -66zM565 1155l-317 -756h428l43 -100h-514l-125 -299h-117l545 1294zM551 907l59 137l445 -1044h-119z" />
    <glyph glyph-name="Aogonek" unicode="&#x104;" 
d="M1004 -369q-85 0 -135 40t-50 104q0 62 62 135l69 90h97l-82 -100q-31 -38 -42.5 -62.5t-11.5 -52.5q0 -33 27 -55.5t72 -22.5h80l14 -76h-100zM565 1155l-317 -756h428l43 -100h-514l-125 -299h-117l545 1294zM551 907l59 137l445 -1044h-119z" />
    <glyph glyph-name="aogonek" unicode="&#x105;" 
d="M1004 -369q-85 0 -135 40t-50 104q0 62 62 135l69 90h97l-82 -100q-31 -38 -42.5 -62.5t-11.5 -52.5q0 -33 27 -55.5t72 -22.5h80l14 -76h-100zM565 1155l-317 -756h428l43 -100h-514l-125 -299h-117l545 1294zM551 907l59 137l445 -1044h-119z" />
    <glyph glyph-name="Cacute" unicode="&#x106;" horiz-adv-x="1114" 
d="M690 84q198 0 338 111l74 -76q-74 -65 -182.5 -102t-229.5 -37q-178 0 -323 77.5t-230.5 216t-95.5 312.5h117q12 -221 160.5 -361.5t371.5 -140.5zM690 1165q-223 0 -371.5 -140t-160.5 -359h-117q15 264 197 434t452 170q120 0 228 -37.5t184 -102.5l-74 -75
q-138 110 -338 110zM655 1319l138 237h145l-219 -237h-64z" />
    <glyph glyph-name="cacute" unicode="&#x107;" horiz-adv-x="1114" 
d="M690 84q198 0 338 111l74 -76q-74 -65 -182.5 -102t-229.5 -37q-178 0 -323 77.5t-230.5 216t-95.5 312.5h117q12 -221 160.5 -361.5t371.5 -140.5zM690 1165q-223 0 -371.5 -140t-160.5 -359h-117q15 264 197 434t452 170q120 0 228 -37.5t184 -102.5l-74 -75
q-138 110 -338 110zM655 1319l138 237h145l-219 -237h-64z" />
    <glyph glyph-name="Ccircumflex" unicode="&#x108;" horiz-adv-x="1114" 
d="M690 84q198 0 338 111l74 -76q-74 -65 -182.5 -102t-229.5 -37q-178 0 -323 77.5t-230.5 216t-95.5 312.5h117q12 -221 160.5 -361.5t371.5 -140.5zM690 1165q-223 0 -371.5 -140t-160.5 -359h-117q15 264 197 434t452 170q120 0 228 -37.5t184 -102.5l-74 -75
q-138 110 -338 110zM436 1319l193 266h119l192 -266h-63l-189 197l-188 -197h-64z" />
    <glyph glyph-name="ccircumflex" unicode="&#x109;" horiz-adv-x="1114" 
d="M690 84q198 0 338 111l74 -76q-74 -65 -182.5 -102t-229.5 -37q-178 0 -323 77.5t-230.5 216t-95.5 312.5h117q12 -221 160.5 -361.5t371.5 -140.5zM690 1165q-223 0 -371.5 -140t-160.5 -359h-117q15 264 197 434t452 170q120 0 228 -37.5t184 -102.5l-74 -75
q-138 110 -338 110zM436 1319l193 266h119l192 -266h-63l-189 197l-188 -197h-64z" />
    <glyph glyph-name="Cdotaccent" unicode="&#x10a;" horiz-adv-x="1114" 
d="M688 1382q-31 0 -52.5 20.5t-21.5 51.5q0 32 21.5 53t52.5 21q32 0 53 -21t21 -53q0 -31 -21 -51.5t-53 -20.5zM690 84q198 0 338 111l74 -76q-74 -65 -182.5 -102t-229.5 -37q-178 0 -323 77.5t-230.5 216t-95.5 312.5h117q12 -221 160.5 -361.5t371.5 -140.5zM690 1165
q-223 0 -371.5 -140t-160.5 -359h-117q15 264 197 434t452 170q120 0 228 -37.5t184 -102.5l-74 -75q-138 110 -338 110z" />
    <glyph glyph-name="cdotaccent" unicode="&#x10b;" horiz-adv-x="1114" 
d="M688 1382q-31 0 -52.5 20.5t-21.5 51.5q0 32 21.5 53t52.5 21q32 0 53 -21t21 -53q0 -31 -21 -51.5t-53 -20.5zM690 84q198 0 338 111l74 -76q-74 -65 -182.5 -102t-229.5 -37q-178 0 -323 77.5t-230.5 216t-95.5 312.5h117q12 -221 160.5 -361.5t371.5 -140.5zM690 1165
q-223 0 -371.5 -140t-160.5 -359h-117q15 264 197 434t452 170q120 0 228 -37.5t184 -102.5l-74 -75q-138 110 -338 110z" />
    <glyph glyph-name="Ccaron" unicode="&#x10c;" horiz-adv-x="1114" 
d="M690 84q198 0 338 111l74 -76q-74 -65 -182.5 -102t-229.5 -37q-178 0 -323 77.5t-230.5 216t-95.5 312.5h117q12 -221 160.5 -361.5t371.5 -140.5zM690 1165q-223 0 -371.5 -140t-160.5 -359h-117q15 264 197 434t452 170q120 0 228 -37.5t184 -102.5l-74 -75
q-138 110 -338 110zM629 1319l-193 266h64l188 -196l189 196h63l-192 -266h-119z" />
    <glyph glyph-name="ccaron" unicode="&#x10d;" horiz-adv-x="1114" 
d="M690 84q198 0 338 111l74 -76q-74 -65 -182.5 -102t-229.5 -37q-178 0 -323 77.5t-230.5 216t-95.5 312.5h117q12 -221 160.5 -361.5t371.5 -140.5zM690 1165q-223 0 -371.5 -140t-160.5 -359h-117q15 264 197 434t452 170q120 0 228 -37.5t184 -102.5l-74 -75
q-138 110 -338 110zM629 1319l-193 266h64l188 -196l189 196h63l-192 -266h-119z" />
    <glyph glyph-name="Dcaron" unicode="&#x10e;" horiz-adv-x="1187" 
d="M248 0h-113v1249h113v-1249zM496 1147h-160v102h162q283 0 466 -175.5t183 -448.5t-183 -449t-466 -176h-162v102h160q236 0 386 147t150 376q0 230 -151 376t-385 146zM440 1319l-192 266h63l189 -196l188 196h64l-193 -266h-119z" />
    <glyph glyph-name="dcaron" unicode="&#x10f;" horiz-adv-x="1187" 
d="M248 0h-113v1249h113v-1249zM496 1147h-160v102h162q283 0 466 -175.5t183 -448.5t-183 -449t-466 -176h-162v102h160q236 0 386 147t150 376q0 230 -151 376t-385 146zM440 1319l-192 266h63l189 -196l188 196h64l-193 -266h-119z" />
    <glyph glyph-name="Dcroat" unicode="&#x110;" horiz-adv-x="1198" 
d="M264 0h-112v582h-129v100h542v-100h-301v-582zM508 0h-156v102h154q236 0 386 147t150 376q0 230 -151 376t-385 146h-242v-385h-112v487h356q283 0 466 -175.5t183 -448.5t-183 -449t-466 -176z" />
    <glyph glyph-name="dcroat" unicode="&#x111;" horiz-adv-x="1198" 
d="M264 0h-112v582h-129v100h542v-100h-301v-582zM508 0h-156v102h154q236 0 386 147t150 376q0 230 -151 376t-385 146h-242v-385h-112v487h356q283 0 466 -175.5t183 -448.5t-183 -449t-466 -176z" />
    <glyph glyph-name="Emacron" unicode="&#x112;" horiz-adv-x="878" 
d="M233 1391v79h449v-79h-449zM774 1147h-438v102h438v-102zM248 1249v-1249h-113v1249h113zM774 0h-438v102h438v-102zM739 575h-403v103h403v-103z" />
    <glyph glyph-name="emacron" unicode="&#x113;" horiz-adv-x="878" 
d="M233 1391v79h449v-79h-449zM774 1147h-438v102h438v-102zM248 1249v-1249h-113v1249h113zM774 0h-438v102h438v-102zM739 575h-403v103h403v-103z" />
    <glyph glyph-name="Ebreve" unicode="&#x114;" horiz-adv-x="878" 
d="M457 1343q-106 0 -173.5 66t-76.5 176h72q7 -76 56 -121t124 -45t122.5 44.5t55.5 121.5h72q-9 -110 -77.5 -176t-174.5 -66zM774 1147h-438v102h438v-102zM248 1249v-1249h-113v1249h113zM774 0h-438v102h438v-102zM739 575h-403v103h403v-103z" />
    <glyph glyph-name="ebreve" unicode="&#x115;" horiz-adv-x="878" 
d="M457 1343q-106 0 -173.5 66t-76.5 176h72q7 -76 56 -121t124 -45t122.5 44.5t55.5 121.5h72q-9 -110 -77.5 -176t-174.5 -66zM774 1147h-438v102h438v-102zM248 1249v-1249h-113v1249h113zM774 0h-438v102h438v-102zM739 575h-403v103h403v-103z" />
    <glyph glyph-name="Edotaccent" unicode="&#x116;" horiz-adv-x="878" 
d="M457 1382q-31 0 -52.5 20.5t-21.5 51.5q0 32 21.5 53t52.5 21q32 0 52.5 -21t20.5 -53q0 -31 -20.5 -51.5t-52.5 -20.5zM774 1147h-438v102h438v-102zM248 1249v-1249h-113v1249h113zM774 0h-438v102h438v-102zM739 575h-403v103h403v-103z" />
    <glyph glyph-name="edotaccent" unicode="&#x117;" horiz-adv-x="878" 
d="M457 1382q-31 0 -52.5 20.5t-21.5 51.5q0 32 21.5 53t52.5 21q32 0 52.5 -21t20.5 -53q0 -31 -20.5 -51.5t-52.5 -20.5zM774 1147h-438v102h438v-102zM248 1249v-1249h-113v1249h113zM774 0h-438v102h438v-102zM739 575h-403v103h403v-103z" />
    <glyph glyph-name="Eogonek" unicode="&#x118;" horiz-adv-x="878" 
d="M774 1147h-438v102h438v-102zM248 1249v-1249h-113v1249h113zM774 0h-438v102h438v-102zM739 575h-403v103h403v-103zM604 -369q-85 0 -134.5 40t-49.5 104q0 63 61 135l70 90h96l-82 -100q-31 -38 -42 -62.5t-11 -52.5q0 -33 26.5 -55.5t71.5 -22.5h80l15 -76h-101z" />
    <glyph glyph-name="eogonek" unicode="&#x119;" horiz-adv-x="878" 
d="M774 1147h-438v102h438v-102zM248 1249v-1249h-113v1249h113zM774 0h-438v102h438v-102zM739 575h-403v103h403v-103zM604 -369q-85 0 -134.5 40t-49.5 104q0 63 61 135l70 90h96l-82 -100q-31 -38 -42 -62.5t-11 -52.5q0 -33 26.5 -55.5t71.5 -22.5h80l15 -76h-101z" />
    <glyph glyph-name="Ecaron" unicode="&#x11a;" horiz-adv-x="878" 
d="M774 1147h-438v102h438v-102zM248 1249v-1249h-113v1249h113zM774 0h-438v102h438v-102zM739 575h-403v103h403v-103zM399 1319l-192 266h63l189 -196l188 196h64l-193 -266h-119z" />
    <glyph glyph-name="ecaron" unicode="&#x11b;" horiz-adv-x="878" 
d="M774 1147h-438v102h438v-102zM248 1249v-1249h-113v1249h113zM774 0h-438v102h438v-102zM739 575h-403v103h403v-103zM399 1319l-192 266h63l189 -196l188 196h64l-193 -266h-119z" />
    <glyph glyph-name="Gcircumflex" unicode="&#x11c;" horiz-adv-x="1257" 
d="M1057 0v571h-350v103h460v-674h-110zM690 1165q-223 0 -371.5 -140t-160.5 -359h-117q15 264 197 434t452 170q120 0 229 -37.5t185 -102.5l-76 -75q-138 110 -338 110zM682 -20q-266 0 -446 170.5t-195 435.5h117q12 -222 160 -362t372 -140q153 0 279 74v-115
q-126 -63 -287 -63zM434 1319l193 266h118l193 -266h-64l-188 197l-188 -197h-64z" />
    <glyph glyph-name="gcircumflex" unicode="&#x11d;" horiz-adv-x="1257" 
d="M1057 0v571h-350v103h460v-674h-110zM690 1165q-223 0 -371.5 -140t-160.5 -359h-117q15 264 197 434t452 170q120 0 229 -37.5t185 -102.5l-76 -75q-138 110 -338 110zM682 -20q-266 0 -446 170.5t-195 435.5h117q12 -222 160 -362t372 -140q153 0 279 74v-115
q-126 -63 -287 -63zM434 1319l193 266h118l193 -266h-64l-188 197l-188 -197h-64z" />
    <glyph glyph-name="Gbreve" unicode="&#x11e;" horiz-adv-x="1257" 
d="M684 1343q-106 0 -173.5 66t-76.5 176h72q7 -76 56 -121t124 -45t122.5 44.5t55.5 121.5h72q-9 -110 -77.5 -176t-174.5 -66zM1057 0v571h-350v103h460v-674h-110zM690 1165q-223 0 -371.5 -140t-160.5 -359h-117q15 264 197 434t452 170q120 0 229 -37.5t185 -102.5
l-76 -75q-138 110 -338 110zM682 -20q-266 0 -446 170.5t-195 435.5h117q12 -222 160 -362t372 -140q153 0 279 74v-115q-126 -63 -287 -63z" />
    <glyph glyph-name="gbreve" unicode="&#x11f;" horiz-adv-x="1257" 
d="M684 1343q-106 0 -173.5 66t-76.5 176h72q7 -76 56 -121t124 -45t122.5 44.5t55.5 121.5h72q-9 -110 -77.5 -176t-174.5 -66zM1057 0v571h-350v103h460v-674h-110zM690 1165q-223 0 -371.5 -140t-160.5 -359h-117q15 264 197 434t452 170q120 0 229 -37.5t185 -102.5
l-76 -75q-138 110 -338 110zM682 -20q-266 0 -446 170.5t-195 435.5h117q12 -222 160 -362t372 -140q153 0 279 74v-115q-126 -63 -287 -63z" />
    <glyph glyph-name="Gdotaccent" unicode="&#x120;" horiz-adv-x="1257" 
d="M686 1382q-31 0 -52.5 20.5t-21.5 51.5q0 32 21.5 53t52.5 21q32 0 53 -21t21 -53q0 -31 -21 -51.5t-53 -20.5zM1057 0v571h-350v103h460v-674h-110zM690 1165q-223 0 -371.5 -140t-160.5 -359h-117q15 264 197 434t452 170q120 0 229 -37.5t185 -102.5l-76 -75
q-138 110 -338 110zM682 -20q-266 0 -446 170.5t-195 435.5h117q12 -222 160 -362t372 -140q153 0 279 74v-115q-126 -63 -287 -63z" />
    <glyph glyph-name="gdotaccent" unicode="&#x121;" horiz-adv-x="1257" 
d="M686 1382q-31 0 -52.5 20.5t-21.5 51.5q0 32 21.5 53t52.5 21q32 0 53 -21t21 -53q0 -31 -21 -51.5t-53 -20.5zM1057 0v571h-350v103h460v-674h-110zM690 1165q-223 0 -371.5 -140t-160.5 -359h-117q15 264 197 434t452 170q120 0 229 -37.5t185 -102.5l-76 -75
q-138 110 -338 110zM682 -20q-266 0 -446 170.5t-195 435.5h117q12 -222 160 -362t372 -140q153 0 279 74v-115q-126 -63 -287 -63z" />
    <glyph glyph-name="Gcommaaccent" unicode="&#x122;" horiz-adv-x="1257" 
d="M1057 0v571h-350v103h460v-674h-110zM690 1165q-223 0 -371.5 -140t-160.5 -359h-117q15 264 197 434t452 170q120 0 229 -37.5t185 -102.5l-76 -75q-138 110 -338 110zM682 -20q-266 0 -446 170.5t-195 435.5h117q12 -222 160 -362t372 -140q153 0 279 74v-115
q-126 -63 -287 -63zM541 -342l92 266h117l-154 -266h-55z" />
    <glyph glyph-name="gcommaaccent" unicode="&#x123;" horiz-adv-x="1257" 
d="M1057 0v571h-350v103h460v-674h-110zM690 1165q-223 0 -371.5 -140t-160.5 -359h-117q15 264 197 434t452 170q120 0 229 -37.5t185 -102.5l-76 -75q-138 110 -338 110zM682 -20q-266 0 -446 170.5t-195 435.5h117q12 -222 160 -362t372 -140q153 0 279 74v-115
q-126 -63 -287 -63zM541 -342l92 266h117l-154 -266h-55z" />
    <glyph glyph-name="Hcircumflex" unicode="&#x124;" horiz-adv-x="1150" 
d="M135 0v1249h113v-561h567v-102h-567v-586h-113zM903 0v1249h113v-1249h-113zM311 1319l193 266h119l192 -266h-63l-189 197l-188 -197h-64z" />
    <glyph glyph-name="hcircumflex" unicode="&#x125;" horiz-adv-x="1150" 
d="M135 0v1249h113v-561h567v-102h-567v-586h-113zM903 0v1249h113v-1249h-113zM311 1319l193 266h119l192 -266h-63l-189 197l-188 -197h-64z" />
    <glyph glyph-name="Itilde" unicode="&#x128;" horiz-adv-x="382" 
d="M328 1370q-43 0 -85 18.5t-70 41t-63 41t-65 18.5q-43 0 -68.5 -27t-25.5 -76h-72q0 86 48.5 133.5t119.5 47.5q41 0 82.5 -18.5t70 -41t64 -41t66.5 -18.5q44 0 69 27t25 77h72q0 -87 -49 -134.5t-119 -47.5zM135 0v1249h113v-1249h-113z" />
    <glyph glyph-name="itilde" unicode="&#x129;" horiz-adv-x="382" 
d="M328 1370q-43 0 -85 18.5t-70 41t-63 41t-65 18.5q-43 0 -68.5 -27t-25.5 -76h-72q0 86 48.5 133.5t119.5 47.5q41 0 82.5 -18.5t70 -41t64 -41t66.5 -18.5q44 0 69 27t25 77h72q0 -87 -49 -134.5t-119 -47.5zM135 0v1249h113v-1249h-113z" />
    <glyph glyph-name="Imacron" unicode="&#x12a;" horiz-adv-x="382" 
d="M-33 1391v79h449v-79h-449zM135 0v1249h113v-1249h-113z" />
    <glyph glyph-name="imacron" unicode="&#x12b;" horiz-adv-x="382" 
d="M-33 1391v79h449v-79h-449zM135 0v1249h113v-1249h-113z" />
    <glyph glyph-name="Ibreve" unicode="&#x12c;" horiz-adv-x="382" 
d="M188 1343q-105 0 -172.5 65.5t-76.5 176.5h71q7 -76 56 -121t124 -45t123 44.5t56 121.5h71q-9 -110 -77.5 -176t-174.5 -66zM135 0v1249h113v-1249h-113z" />
    <glyph glyph-name="ibreve" unicode="&#x12d;" horiz-adv-x="382" 
d="M188 1343q-105 0 -172.5 65.5t-76.5 176.5h71q7 -76 56 -121t124 -45t123 44.5t56 121.5h71q-9 -110 -77.5 -176t-174.5 -66zM135 0v1249h113v-1249h-113z" />
    <glyph glyph-name="Iogonek" unicode="&#x12e;" horiz-adv-x="382" 
d="M201 -369q-85 0 -135 40t-50 104q0 62 62 135l69 90h97l-82 -100q-31 -38 -42 -62.5t-11 -52.5q0 -33 26.5 -55.5t71.5 -22.5h80l14 -76h-100zM135 0v1249h113v-1249h-113z" />
    <glyph glyph-name="iogonek" unicode="&#x12f;" horiz-adv-x="382" 
d="M201 -369q-85 0 -135 40t-50 104q0 62 62 135l69 90h97l-82 -100q-31 -38 -42 -62.5t-11 -52.5q0 -33 26.5 -55.5t71.5 -22.5h80l14 -76h-100zM135 0v1249h113v-1249h-113z" />
    <glyph glyph-name="Idotaccent" unicode="&#x130;" horiz-adv-x="382" 
d="M190 1382q-31 0 -52 20.5t-21 51.5q0 32 21 53t52 21q32 0 53 -21t21 -53q0 -31 -21 -51.5t-53 -20.5zM135 0v1249h113v-1249h-113z" />
    <glyph glyph-name="dotlessi" unicode="&#x131;" horiz-adv-x="382" 
d="M135 0v1249h113v-1249h-113z" />
    <glyph glyph-name="ij" unicode="&#x133;" horiz-adv-x="1052" 
d="M131 408v841h113v-841h-113zM858 141l-82 76q45 56 45 170v862h113v-864q0 -149 -76 -244zM496 -20q-175 0 -299 102l79 74q78 -72 220 -72q143 0 221 72l80 -74q-124 -102 -301 -102z" />
    <glyph glyph-name="Jcircumflex" unicode="&#x134;" horiz-adv-x="722" 
d="M524 111l-78 77q46 64 46 166v895h112v-897q0 -142 -80 -241zM231 84q93 0 154 45l76 -78q-86 -71 -230 -71q-142 0 -231 71l76 78q64 -45 155 -45zM295 1319l192 266h119l193 -266h-64l-188 197l-189 -197h-63z" />
    <glyph glyph-name="jcircumflex" unicode="&#x135;" horiz-adv-x="722" 
d="M524 111l-78 77q46 64 46 166v895h112v-897q0 -142 -80 -241zM231 84q93 0 154 45l76 -78q-86 -71 -230 -71q-142 0 -231 71l76 78q64 -45 155 -45zM295 1319l192 266h119l193 -266h-64l-188 197l-189 -197h-63z" />
    <glyph glyph-name="Kcommaaccent" unicode="&#x136;" horiz-adv-x="909" 
d="M248 1249v-1249h-113v1249h113zM942 1249l-606 -694v154l475 540h131zM381 481l76 84l481 -565h-137zM346 -342l92 266h117l-154 -266h-55z" />
    <glyph glyph-name="kcommaaccent" unicode="&#x137;" horiz-adv-x="909" 
d="M248 1249v-1249h-113v1249h113zM942 1249l-606 -694v154l475 540h131zM381 481l76 84l481 -565h-137zM346 -342l92 266h117l-154 -266h-55z" />
    <glyph glyph-name="Lacute" unicode="&#x139;" horiz-adv-x="747" 
d="M248 182h-113v1067h113v-1067zM715 102v-102h-580v102h580zM160 1319l137 237h145l-219 -237h-63z" />
    <glyph glyph-name="lacute" unicode="&#x13a;" horiz-adv-x="747" 
d="M248 182h-113v1067h113v-1067zM715 102v-102h-580v102h580zM160 1319l137 237h145l-219 -237h-63z" />
    <glyph glyph-name="Lcommaaccent" unicode="&#x13b;" horiz-adv-x="747" 
d="M248 182h-113v1067h113v-1067zM715 102v-102h-580v102h580zM274 -342l93 266h116l-153 -266h-56z" />
    <glyph glyph-name="lcommaaccent" unicode="&#x13c;" horiz-adv-x="747" 
d="M248 182h-113v1067h113v-1067zM715 102v-102h-580v102h580zM274 -342l93 266h116l-153 -266h-56z" />
    <glyph glyph-name="Lcaron" unicode="&#x13d;" horiz-adv-x="747" 
d="M248 182h-113v1067h113v-1067zM715 102v-102h-580v102h580zM428 934l49 315h125l-117 -315h-57z" />
    <glyph glyph-name="lcaron" unicode="&#x13e;" horiz-adv-x="747" 
d="M248 182h-113v1067h113v-1067zM715 102v-102h-580v102h580zM428 934l49 315h125l-117 -315h-57z" />
    <glyph glyph-name="Ldot" unicode="&#x13f;" horiz-adv-x="747" 
d="M545 573q-35 0 -57.5 23t-22.5 57t22.5 56t57.5 22q34 0 57 -22t23 -56t-23 -57t-57 -23zM248 182h-113v1067h113v-1067zM715 102v-102h-580v102h580z" />
    <glyph glyph-name="ldot" unicode="&#x140;" horiz-adv-x="747" 
d="M545 573q-35 0 -57.5 23t-22.5 57t22.5 56t57.5 22q34 0 57 -22t23 -56t-23 -57t-57 -23zM248 182h-113v1067h113v-1067zM715 102v-102h-580v102h580z" />
    <glyph glyph-name="Lslash" unicode="&#x141;" horiz-adv-x="770" 
d="M539 719l-502 -154v103l115 37v544h112v-512l275 86v-104zM264 0h-112v520l112 33v-553zM352 0v102h385v-102h-385z" />
    <glyph glyph-name="lslash" unicode="&#x142;" horiz-adv-x="770" 
d="M539 719l-502 -154v103l115 37v544h112v-512l275 86v-104zM264 0h-112v520l112 33v-553zM352 0v102h385v-102h-385z" />
    <glyph glyph-name="Nacute" unicode="&#x143;" horiz-adv-x="1210" 
d="M1075 119v-162l-940 1173v162zM1075 254l-112 133v862h112v-995zM248 862v-862h-113v995zM563 1319l137 237h146l-219 -237h-64z" />
    <glyph glyph-name="nacute" unicode="&#x144;" horiz-adv-x="1210" 
d="M1075 119v-162l-940 1173v162zM1075 254l-112 133v862h112v-995zM248 862v-862h-113v995zM563 1319l137 237h146l-219 -237h-64z" />
    <glyph glyph-name="Ncommaaccent" unicode="&#x145;" horiz-adv-x="1210" 
d="M1075 119v-162l-940 1173v162zM1075 254l-112 133v862h112v-995zM248 862v-862h-113v995zM455 -342l92 266h117l-154 -266h-55z" />
    <glyph glyph-name="ncommaaccent" unicode="&#x146;" horiz-adv-x="1210" 
d="M1075 119v-162l-940 1173v162zM1075 254l-112 133v862h112v-995zM248 862v-862h-113v995zM455 -342l92 266h117l-154 -266h-55z" />
    <glyph glyph-name="Ncaron" unicode="&#x147;" horiz-adv-x="1210" 
d="M1075 119v-162l-940 1173v162zM1075 254l-112 133v862h112v-995zM248 862v-862h-113v995zM539 1319l-193 266h64l188 -196l188 196h64l-193 -266h-118z" />
    <glyph glyph-name="ncaron" unicode="&#x148;" horiz-adv-x="1210" 
d="M1075 119v-162l-940 1173v162zM1075 254l-112 133v862h112v-995zM248 862v-862h-113v995zM539 1319l-193 266h64l188 -196l188 196h64l-193 -266h-118z" />
    <glyph glyph-name="Omacron" unicode="&#x14c;" horiz-adv-x="1380" 
d="M104 332q-63 132 -63 293q0 269 170 449.5t436 195.5v-107q-217 -14 -353 -163t-136 -375q0 -130 47 -236zM1176 389q47 106 47 236q0 224 -136 373.5t-352 164.5v107q265 -15 434.5 -195.5t169.5 -449.5q0 -161 -63 -293zM1231 256q-86 -130 -227 -203t-314 -73
t-315.5 73t-227.5 203l99 57q70 -108 185 -168.5t259 -60.5q143 0 259 61t186 168zM467 1391v79h448v-79h-448z" />
    <glyph glyph-name="omacron" unicode="&#x14d;" horiz-adv-x="1380" 
d="M104 332q-63 132 -63 293q0 269 170 449.5t436 195.5v-107q-217 -14 -353 -163t-136 -375q0 -130 47 -236zM1176 389q47 106 47 236q0 224 -136 373.5t-352 164.5v107q265 -15 434.5 -195.5t169.5 -449.5q0 -161 -63 -293zM1231 256q-86 -130 -227 -203t-314 -73
t-315.5 73t-227.5 203l99 57q70 -108 185 -168.5t259 -60.5q143 0 259 61t186 168zM467 1391v79h448v-79h-448z" />
    <glyph glyph-name="Obreve" unicode="&#x14e;" horiz-adv-x="1380" 
d="M688 1343q-106 0 -173.5 66t-76.5 176h72q7 -76 56 -121t124 -45t122.5 44.5t55.5 121.5h72q-9 -110 -77.5 -176t-174.5 -66zM104 332q-63 132 -63 293q0 269 170 449.5t436 195.5v-107q-217 -14 -353 -163t-136 -375q0 -130 47 -236zM1176 389q47 106 47 236
q0 224 -136 373.5t-352 164.5v107q265 -15 434.5 -195.5t169.5 -449.5q0 -161 -63 -293zM1231 256q-86 -130 -227 -203t-314 -73t-315.5 73t-227.5 203l99 57q70 -108 185 -168.5t259 -60.5q143 0 259 61t186 168z" />
    <glyph glyph-name="obreve" unicode="&#x14f;" horiz-adv-x="1380" 
d="M688 1343q-106 0 -173.5 66t-76.5 176h72q7 -76 56 -121t124 -45t122.5 44.5t55.5 121.5h72q-9 -110 -77.5 -176t-174.5 -66zM104 332q-63 132 -63 293q0 269 170 449.5t436 195.5v-107q-217 -14 -353 -163t-136 -375q0 -130 47 -236zM1176 389q47 106 47 236
q0 224 -136 373.5t-352 164.5v107q265 -15 434.5 -195.5t169.5 -449.5q0 -161 -63 -293zM1231 256q-86 -130 -227 -203t-314 -73t-315.5 73t-227.5 203l99 57q70 -108 185 -168.5t259 -60.5q143 0 259 61t186 168z" />
    <glyph glyph-name="Ohungarumlaut" unicode="&#x150;" horiz-adv-x="1380" 
d="M104 332q-63 132 -63 293q0 269 170 449.5t436 195.5v-107q-217 -14 -353 -163t-136 -375q0 -130 47 -236zM1176 389q47 106 47 236q0 224 -136 373.5t-352 164.5v107q265 -15 434.5 -195.5t169.5 -449.5q0 -161 -63 -293zM1231 256q-86 -130 -227 -203t-314 -73
t-315.5 73t-227.5 203l99 57q70 -108 185 -168.5t259 -60.5q143 0 259 61t186 168zM508 1319l129 237h129l-197 -237h-61zM774 1319l129 237h131l-198 -237h-62z" />
    <glyph glyph-name="ohungarumlaut" unicode="&#x151;" horiz-adv-x="1380" 
d="M104 332q-63 132 -63 293q0 269 170 449.5t436 195.5v-107q-217 -14 -353 -163t-136 -375q0 -130 47 -236zM1176 389q47 106 47 236q0 224 -136 373.5t-352 164.5v107q265 -15 434.5 -195.5t169.5 -449.5q0 -161 -63 -293zM1231 256q-86 -130 -227 -203t-314 -73
t-315.5 73t-227.5 203l99 57q70 -108 185 -168.5t259 -60.5q143 0 259 61t186 168zM508 1319l129 237h129l-197 -237h-61zM774 1319l129 237h131l-198 -237h-62z" />
    <glyph glyph-name="OE" unicode="&#x152;" horiz-adv-x="1552" 
d="M1020 1147v102h428v-102h-428zM102 330q-61 131 -61 295q0 276 168.5 450t445.5 174h76v-102h-76q-227 0 -362 -145t-135 -377q0 -133 45 -238zM819 575v674h113v-569h483v-105h-596zM1020 0v102h428v-102h-428zM819 496h113v-496h-275q-169 0 -301.5 67t-210.5 187
l97 57q66 -99 173 -154t244 -55h160v394z" />
    <glyph glyph-name="oe" unicode="&#x153;" horiz-adv-x="1552" 
d="M1020 1147v102h428v-102h-428zM102 330q-61 131 -61 295q0 276 168.5 450t445.5 174h76v-102h-76q-227 0 -362 -145t-135 -377q0 -133 45 -238zM819 575v674h113v-569h483v-105h-596zM1020 0v102h428v-102h-428zM819 496h113v-496h-275q-169 0 -301.5 67t-210.5 187
l97 57q66 -99 173 -154t244 -55h160v394z" />
    <glyph glyph-name="Racute" unicode="&#x154;" horiz-adv-x="954" 
d="M336 545v100h139q119 0 191.5 67.5t72.5 184.5t-72.5 184.5t-191.5 67.5h-139v100h143q168 0 272.5 -98t104.5 -254q0 -157 -104 -254.5t-269 -97.5h-147zM248 0h-113v1249h113v-1249zM797 0l-383 465q66 0 127 10l393 -475h-137zM424 1319l137 237h146l-220 -237h-63z
" />
    <glyph glyph-name="racute" unicode="&#x155;" horiz-adv-x="954" 
d="M336 545v100h139q119 0 191.5 67.5t72.5 184.5t-72.5 184.5t-191.5 67.5h-139v100h143q168 0 272.5 -98t104.5 -254q0 -157 -104 -254.5t-269 -97.5h-147zM248 0h-113v1249h113v-1249zM797 0l-383 465q66 0 127 10l393 -475h-137zM424 1319l137 237h146l-220 -237h-63z
" />
    <glyph glyph-name="Rcommaaccent" unicode="&#x156;" horiz-adv-x="954" 
d="M336 545v100h139q119 0 191.5 67.5t72.5 184.5t-72.5 184.5t-191.5 67.5h-139v100h143q168 0 272.5 -98t104.5 -254q0 -157 -104 -254.5t-269 -97.5h-147zM248 0h-113v1249h113v-1249zM797 0l-383 465q66 0 127 10l393 -475h-137zM346 -342l92 266h117l-154 -266h-55z
" />
    <glyph glyph-name="rcommaaccent" unicode="&#x157;" horiz-adv-x="954" 
d="M336 545v100h139q119 0 191.5 67.5t72.5 184.5t-72.5 184.5t-191.5 67.5h-139v100h143q168 0 272.5 -98t104.5 -254q0 -157 -104 -254.5t-269 -97.5h-147zM248 0h-113v1249h113v-1249zM797 0l-383 465q66 0 127 10l393 -475h-137zM346 -342l92 266h117l-154 -266h-55z
" />
    <glyph glyph-name="Rcaron" unicode="&#x158;" horiz-adv-x="954" 
d="M336 545v100h139q119 0 191.5 67.5t72.5 184.5t-72.5 184.5t-191.5 67.5h-139v100h143q168 0 272.5 -98t104.5 -254q0 -157 -104 -254.5t-269 -97.5h-147zM248 0h-113v1249h113v-1249zM797 0l-383 465q66 0 127 10l393 -475h-137zM397 1319l-192 266h63l189 -196l188 196
h64l-193 -266h-119z" />
    <glyph glyph-name="rcaron" unicode="&#x159;" horiz-adv-x="954" 
d="M336 545v100h139q119 0 191.5 67.5t72.5 184.5t-72.5 184.5t-191.5 67.5h-139v100h143q168 0 272.5 -98t104.5 -254q0 -157 -104 -254.5t-269 -97.5h-147zM248 0h-113v1249h113v-1249zM797 0l-383 465q66 0 127 10l393 -475h-137zM397 1319l-192 266h63l189 -196l188 196
h64l-193 -266h-119z" />
    <glyph glyph-name="Sacute" unicode="&#x15a;" horiz-adv-x="804" 
d="M395 711l-47 -95q-141 45 -208.5 125t-67.5 211q0 138 95.5 228t240.5 90q192 0 319 -117l-63 -84q-126 98 -252 98q-102 0 -165 -59.5t-63 -155.5q0 -88 45 -141.5t166 -99.5zM428 582l49 94q147 -56 216 -134t69 -206q0 -156 -104.5 -256t-264.5 -100
q-105 0 -193.5 32.5t-146.5 85.5l64 88q128 -104 276 -104q115 0 185.5 69.5t70.5 182.5q0 90 -50 146t-171 102zM375 1319l137 237h145l-219 -237h-63z" />
    <glyph glyph-name="sacute" unicode="&#x15b;" horiz-adv-x="804" 
d="M395 711l-47 -95q-141 45 -208.5 125t-67.5 211q0 138 95.5 228t240.5 90q192 0 319 -117l-63 -84q-126 98 -252 98q-102 0 -165 -59.5t-63 -155.5q0 -88 45 -141.5t166 -99.5zM428 582l49 94q147 -56 216 -134t69 -206q0 -156 -104.5 -256t-264.5 -100
q-105 0 -193.5 32.5t-146.5 85.5l64 88q128 -104 276 -104q115 0 185.5 69.5t70.5 182.5q0 90 -50 146t-171 102zM375 1319l137 237h145l-219 -237h-63z" />
    <glyph glyph-name="Scircumflex" unicode="&#x15c;" horiz-adv-x="804" 
d="M395 711l-47 -95q-141 45 -208.5 125t-67.5 211q0 138 95.5 228t240.5 90q192 0 319 -117l-63 -84q-126 98 -252 98q-102 0 -165 -59.5t-63 -155.5q0 -88 45 -141.5t166 -99.5zM428 582l49 94q147 -56 216 -134t69 -206q0 -156 -104.5 -256t-264.5 -100
q-105 0 -193.5 32.5t-146.5 85.5l64 88q128 -104 276 -104q115 0 185.5 69.5t70.5 182.5q0 90 -50 146t-171 102zM156 1319l192 266h119l192 -266h-63l-188 197l-189 -197h-63z" />
    <glyph glyph-name="scircumflex" unicode="&#x15d;" horiz-adv-x="804" 
d="M395 711l-47 -95q-141 45 -208.5 125t-67.5 211q0 138 95.5 228t240.5 90q192 0 319 -117l-63 -84q-126 98 -252 98q-102 0 -165 -59.5t-63 -155.5q0 -88 45 -141.5t166 -99.5zM428 582l49 94q147 -56 216 -134t69 -206q0 -156 -104.5 -256t-264.5 -100
q-105 0 -193.5 32.5t-146.5 85.5l64 88q128 -104 276 -104q115 0 185.5 69.5t70.5 182.5q0 90 -50 146t-171 102zM156 1319l192 266h119l192 -266h-63l-188 197l-189 -197h-63z" />
    <glyph glyph-name="Scedilla" unicode="&#x15e;" horiz-adv-x="804" 
d="M262 -342l92 266h117l-154 -266h-55zM395 711l-47 -95q-141 45 -208.5 125t-67.5 211q0 138 95.5 228t240.5 90q192 0 319 -117l-63 -84q-126 98 -252 98q-102 0 -165 -59.5t-63 -155.5q0 -88 45 -141.5t166 -99.5zM428 582l49 94q147 -56 216 -134t69 -206
q0 -156 -104.5 -256t-264.5 -100q-105 0 -193.5 32.5t-146.5 85.5l64 88q128 -104 276 -104q115 0 185.5 69.5t70.5 182.5q0 90 -50 146t-171 102z" />
    <glyph glyph-name="scedilla" unicode="&#x15f;" horiz-adv-x="804" 
d="M262 -342l92 266h117l-154 -266h-55zM395 711l-47 -95q-141 45 -208.5 125t-67.5 211q0 138 95.5 228t240.5 90q192 0 319 -117l-63 -84q-126 98 -252 98q-102 0 -165 -59.5t-63 -155.5q0 -88 45 -141.5t166 -99.5zM428 582l49 94q147 -56 216 -134t69 -206
q0 -156 -104.5 -256t-264.5 -100q-105 0 -193.5 32.5t-146.5 85.5l64 88q128 -104 276 -104q115 0 185.5 69.5t70.5 182.5q0 90 -50 146t-171 102z" />
    <glyph glyph-name="Scaron" unicode="&#x160;" horiz-adv-x="804" 
d="M395 711l-47 -95q-141 45 -208.5 125t-67.5 211q0 138 95.5 228t240.5 90q192 0 319 -117l-63 -84q-126 98 -252 98q-102 0 -165 -59.5t-63 -155.5q0 -88 45 -141.5t166 -99.5zM428 582l49 94q147 -56 216 -134t69 -206q0 -156 -104.5 -256t-264.5 -100
q-105 0 -193.5 32.5t-146.5 85.5l64 88q128 -104 276 -104q115 0 185.5 69.5t70.5 182.5q0 90 -50 146t-171 102zM348 1319l-192 266h63l189 -196l188 196h63l-192 -266h-119z" />
    <glyph glyph-name="scaron" unicode="&#x161;" horiz-adv-x="804" 
d="M395 711l-47 -95q-141 45 -208.5 125t-67.5 211q0 138 95.5 228t240.5 90q192 0 319 -117l-63 -84q-126 98 -252 98q-102 0 -165 -59.5t-63 -155.5q0 -88 45 -141.5t166 -99.5zM428 582l49 94q147 -56 216 -134t69 -206q0 -156 -104.5 -256t-264.5 -100
q-105 0 -193.5 32.5t-146.5 85.5l64 88q128 -104 276 -104q115 0 185.5 69.5t70.5 182.5q0 90 -50 146t-171 102zM348 1319l-192 266h63l189 -196l188 196h63l-192 -266h-119z" />
    <glyph glyph-name="uni0162" unicode="&#x162;" horiz-adv-x="841" 
d="M16 1147v102h809v-102h-809zM477 1067v-1067h-112v1067h112zM279 -342l92 266h116l-153 -266h-55z" />
    <glyph glyph-name="uni0163" unicode="&#x163;" horiz-adv-x="841" 
d="M16 1147v102h809v-102h-809zM477 1067v-1067h-112v1067h112zM279 -342l92 266h116l-153 -266h-55z" />
    <glyph glyph-name="Tcaron" unicode="&#x164;" horiz-adv-x="841" 
d="M16 1147v102h809v-102h-809zM477 1067v-1067h-112v1067h112zM362 1319l-192 266h63l189 -196l188 196h64l-193 -266h-119z" />
    <glyph glyph-name="tcaron" unicode="&#x165;" horiz-adv-x="841" 
d="M16 1147v102h809v-102h-809zM477 1067v-1067h-112v1067h112zM362 1319l-192 266h63l189 -196l188 196h64l-193 -266h-119z" />
    <glyph glyph-name="Tbar" unicode="&#x166;" horiz-adv-x="868" 
d="M578 1147v102h274v-102h-274zM489 1249v-606h222v-100h-222v-543h-112v543h-219v100h219v606h112zM289 1147h-273v102h273v-102z" />
    <glyph glyph-name="tbar" unicode="&#x167;" horiz-adv-x="868" 
d="M578 1147v102h274v-102h-274zM489 1249v-606h222v-100h-222v-543h-112v543h-219v100h219v606h112zM289 1147h-273v102h273v-102z" />
    <glyph glyph-name="Utilde" unicode="&#x168;" horiz-adv-x="1093" 
d="M682 1370q-43 0 -85 18.5t-70 41t-63 41t-65 18.5q-43 0 -68.5 -27t-25.5 -76h-72q0 86 48.5 133.5t119.5 47.5q41 0 82.5 -18.5t70 -41t64 -41t66.5 -18.5q44 0 69 27t25 77h72q0 -87 -49 -134.5t-119 -47.5zM502 -16q-183 19 -283 130t-100 289v846h112v-850
q0 -128 71.5 -212t199.5 -99v-104zM590 -16v104q130 15 201 98t71 213v850h113v-846q0 -178 -101 -289t-284 -130z" />
    <glyph glyph-name="utilde" unicode="&#x169;" horiz-adv-x="1093" 
d="M682 1370q-43 0 -85 18.5t-70 41t-63 41t-65 18.5q-43 0 -68.5 -27t-25.5 -76h-72q0 86 48.5 133.5t119.5 47.5q41 0 82.5 -18.5t70 -41t64 -41t66.5 -18.5q44 0 69 27t25 77h72q0 -87 -49 -134.5t-119 -47.5zM502 -16q-183 19 -283 130t-100 289v846h112v-850
q0 -128 71.5 -212t199.5 -99v-104zM590 -16v104q130 15 201 98t71 213v850h113v-846q0 -178 -101 -289t-284 -130z" />
    <glyph glyph-name="Umacron" unicode="&#x16a;" horiz-adv-x="1093" 
d="M322 1391v79h448v-79h-448zM502 -16q-183 19 -283 130t-100 289v846h112v-850q0 -128 71.5 -212t199.5 -99v-104zM590 -16v104q130 15 201 98t71 213v850h113v-846q0 -178 -101 -289t-284 -130z" />
    <glyph glyph-name="umacron" unicode="&#x16b;" horiz-adv-x="1093" 
d="M322 1391v79h448v-79h-448zM502 -16q-183 19 -283 130t-100 289v846h112v-850q0 -128 71.5 -212t199.5 -99v-104zM590 -16v104q130 15 201 98t71 213v850h113v-846q0 -178 -101 -289t-284 -130z" />
    <glyph glyph-name="Ubreve" unicode="&#x16c;" horiz-adv-x="1093" 
d="M543 1343q-106 0 -173.5 66t-76.5 176h72q7 -76 56 -121t124 -45t122.5 44.5t55.5 121.5h72q-9 -110 -77.5 -176t-174.5 -66zM502 -16q-183 19 -283 130t-100 289v846h112v-850q0 -128 71.5 -212t199.5 -99v-104zM590 -16v104q130 15 201 98t71 213v850h113v-846
q0 -178 -101 -289t-284 -130z" />
    <glyph glyph-name="ubreve" unicode="&#x16d;" horiz-adv-x="1093" 
d="M543 1343q-106 0 -173.5 66t-76.5 176h72q7 -76 56 -121t124 -45t122.5 44.5t55.5 121.5h72q-9 -110 -77.5 -176t-174.5 -66zM502 -16q-183 19 -283 130t-100 289v846h112v-850q0 -128 71.5 -212t199.5 -99v-104zM590 -16v104q130 15 201 98t71 213v850h113v-846
q0 -178 -101 -289t-284 -130z" />
    <glyph glyph-name="Uring" unicode="&#x16e;" horiz-adv-x="1093" 
d="M502 -16q-183 19 -283 130t-100 289v846h112v-850q0 -128 71.5 -212t199.5 -99v-104zM590 -16v104q130 15 201 98t71 213v850h113v-846q0 -178 -101 -289t-284 -130zM502 1319q-73 15 -122.5 74t-49.5 137q0 93 63 156t154 63t154 -63t63 -156q0 -79 -50 -138t-124 -73
v70q44 13 72 53t28 88q0 65 -41 108t-102 43q-62 0 -103 -43.5t-41 -107.5q0 -47 28 -87.5t71 -53.5v-70z" />
    <glyph glyph-name="uring" unicode="&#x16f;" horiz-adv-x="1093" 
d="M502 -16q-183 19 -283 130t-100 289v846h112v-850q0 -128 71.5 -212t199.5 -99v-104zM590 -16v104q130 15 201 98t71 213v850h113v-846q0 -178 -101 -289t-284 -130zM502 1319q-73 15 -122.5 74t-49.5 137q0 93 63 156t154 63t154 -63t63 -156q0 -79 -50 -138t-124 -73
v70q44 13 72 53t28 88q0 65 -41 108t-102 43q-62 0 -103 -43.5t-41 -107.5q0 -47 28 -87.5t71 -53.5v-70z" />
    <glyph glyph-name="Uhungarumlaut" unicode="&#x170;" horiz-adv-x="1093" 
d="M365 1319l129 237h129l-197 -237h-61zM631 1319l129 237h131l-199 -237h-61zM502 -16q-183 19 -283 130t-100 289v846h112v-850q0 -128 71.5 -212t199.5 -99v-104zM590 -16v104q130 15 201 98t71 213v850h113v-846q0 -178 -101 -289t-284 -130z" />
    <glyph glyph-name="uhungarumlaut" unicode="&#x171;" horiz-adv-x="1093" 
d="M365 1319l129 237h129l-197 -237h-61zM631 1319l129 237h131l-199 -237h-61zM502 -16q-183 19 -283 130t-100 289v846h112v-850q0 -128 71.5 -212t199.5 -99v-104zM590 -16v104q130 15 201 98t71 213v850h113v-846q0 -178 -101 -289t-284 -130z" />
    <glyph glyph-name="Uogonek" unicode="&#x172;" horiz-adv-x="1093" 
d="M526 88l-67 -94q-163 26 -251.5 136t-88.5 273v846h112v-850q0 -131 77.5 -219t217.5 -92zM627 -369q-85 0 -135 40t-50 104q0 63 56 137l135 184q106 23 167.5 104t61.5 199v850h113v-846q0 -160 -84.5 -269t-231.5 -138l-71 -92q-30 -41 -41.5 -66t-11.5 -53
q0 -33 26.5 -55.5t71.5 -22.5h82l12 -76h-100z" />
    <glyph glyph-name="uogonek" unicode="&#x173;" horiz-adv-x="1093" 
d="M526 88l-67 -94q-163 26 -251.5 136t-88.5 273v846h112v-850q0 -131 77.5 -219t217.5 -92zM627 -369q-85 0 -135 40t-50 104q0 63 56 137l135 184q106 23 167.5 104t61.5 199v850h113v-846q0 -160 -84.5 -269t-231.5 -138l-71 -92q-30 -41 -41.5 -66t-11.5 -53
q0 -33 26.5 -55.5t71.5 -22.5h82l12 -76h-100z" />
    <glyph glyph-name="Wcircumflex" unicode="&#x174;" horiz-adv-x="1632" 
d="M715 680l55 -121l-250 -604l-545 1294h119l428 -1038zM686 1249l485 -1151l-59 -143l-545 1294h119zM1161 344l381 905h115l-438 -1038zM551 1319l192 266h119l193 -266h-64l-188 197l-189 -197h-63z" />
    <glyph glyph-name="wcircumflex" unicode="&#x175;" horiz-adv-x="1632" 
d="M715 680l55 -121l-250 -604l-545 1294h119l428 -1038zM686 1249l485 -1151l-59 -143l-545 1294h119zM1161 344l381 905h115l-438 -1038zM551 1319l192 266h119l193 -266h-64l-188 197l-189 -197h-63z" />
    <glyph glyph-name="Ycircumflex" unicode="&#x176;" horiz-adv-x="856" 
d="M184 1319l193 266h119l192 -266h-63l-189 197l-188 -197h-64zM176 0l594 1249h121l-592 -1249h-123zM395 657l-61 -118l-350 710h127z" />
    <glyph glyph-name="ycircumflex" unicode="&#x177;" horiz-adv-x="856" 
d="M184 1319l193 266h119l192 -266h-63l-189 197l-188 -197h-64zM176 0l594 1249h121l-592 -1249h-123zM395 657l-61 -118l-350 710h127z" />
    <glyph glyph-name="Ydieresis" unicode="&#x178;" horiz-adv-x="856" 
d="M666 1454q0 -31 -20.5 -52.5t-51.5 -21.5t-52.5 21.5t-21.5 52.5t21.5 51.5t52.5 20.5t51.5 -20.5t20.5 -51.5zM352 1454q0 -31 -20.5 -52.5t-50.5 -21.5q-31 0 -52.5 21.5t-21.5 52.5t21.5 51.5t52.5 20.5t51 -20.5t20 -51.5zM176 0l594 1249h121l-592 -1249h-123z
M395 657l-61 -118l-350 710h127z" />
    <glyph glyph-name="Zacute" unicode="&#x179;" horiz-adv-x="897" 
d="M827 1147h-807v102h867zM653 1067h125l-649 -1067h-129zM225 0l62 102h571v-102h-633zM408 1319l137 237h145l-219 -237h-63z" />
    <glyph glyph-name="zacute" unicode="&#x17a;" horiz-adv-x="897" 
d="M827 1147h-807v102h867zM653 1067h125l-649 -1067h-129zM225 0l62 102h571v-102h-633zM408 1319l137 237h145l-219 -237h-63z" />
    <glyph glyph-name="Zdotaccent" unicode="&#x17b;" horiz-adv-x="897" 
d="M440 1382q-31 0 -52 20.5t-21 51.5q0 32 21 53t52 21q32 0 53 -21t21 -53q0 -31 -21 -51.5t-53 -20.5zM827 1147h-807v102h867zM653 1067h125l-649 -1067h-129zM225 0l62 102h571v-102h-633z" />
    <glyph glyph-name="zdotaccent" unicode="&#x17c;" horiz-adv-x="897" 
d="M440 1382q-31 0 -52 20.5t-21 51.5q0 32 21 53t52 21q32 0 53 -21t21 -53q0 -31 -21 -51.5t-53 -20.5zM827 1147h-807v102h867zM653 1067h125l-649 -1067h-129zM225 0l62 102h571v-102h-633z" />
    <glyph glyph-name="Zcaron" unicode="&#x17d;" horiz-adv-x="897" 
d="M827 1147h-807v102h867zM653 1067h125l-649 -1067h-129zM225 0l62 102h571v-102h-633zM383 1319l-193 266h64l188 -196l189 196h63l-192 -266h-119z" />
    <glyph glyph-name="zcaron" unicode="&#x17e;" horiz-adv-x="897" 
d="M827 1147h-807v102h867zM653 1067h125l-649 -1067h-129zM225 0l62 102h571v-102h-633zM383 1319l-193 266h64l188 -196l189 196h63l-192 -266h-119z" />
    <glyph glyph-name="florin" unicode="&#x192;" horiz-adv-x="1003" 
d="M123 -135h-70v102h68q162 0 225.5 78t63.5 244v196h-244v101h694v-101h-338v-198q0 -210 -93.5 -316t-305.5 -106zM522 666h-112v161q0 210 93.5 316t305.5 106h121v-102h-121q-161 0 -224 -78t-63 -244v-159z" />
    <glyph glyph-name="Scommaaccent" unicode="&#x218;" horiz-adv-x="804" 
d="M395 711l-47 -95q-141 45 -208.5 125t-67.5 211q0 138 95.5 228t240.5 90q192 0 319 -117l-63 -84q-126 98 -252 98q-102 0 -165 -59.5t-63 -155.5q0 -88 45 -141.5t166 -99.5zM428 582l49 94q147 -56 216 -134t69 -206q0 -156 -104.5 -256t-264.5 -100
q-105 0 -193.5 32.5t-146.5 85.5l64 88q128 -104 276 -104q115 0 185.5 69.5t70.5 182.5q0 90 -50 146t-171 102zM262 -342l92 266h117l-154 -266h-55z" />
    <glyph glyph-name="scommaaccent" unicode="&#x219;" horiz-adv-x="804" 
d="M395 711l-47 -95q-141 45 -208.5 125t-67.5 211q0 138 95.5 228t240.5 90q192 0 319 -117l-63 -84q-126 98 -252 98q-102 0 -165 -59.5t-63 -155.5q0 -88 45 -141.5t166 -99.5zM428 582l49 94q147 -56 216 -134t69 -206q0 -156 -104.5 -256t-264.5 -100
q-105 0 -193.5 32.5t-146.5 85.5l64 88q128 -104 276 -104q115 0 185.5 69.5t70.5 182.5q0 90 -50 146t-171 102zM262 -342l92 266h117l-154 -266h-55z" />
    <glyph glyph-name="uni021A" unicode="&#x21a;" horiz-adv-x="841" 
d="M16 1147v102h809v-102h-809zM477 1067v-1067h-112v1067h112zM279 -342l92 266h116l-153 -266h-55z" />
    <glyph glyph-name="uni021B" unicode="&#x21b;" horiz-adv-x="841" 
d="M16 1147v102h809v-102h-809zM477 1067v-1067h-112v1067h112zM279 -342l92 266h116l-153 -266h-55z" />
    <glyph glyph-name="uni0237" unicode="&#x237;" horiz-adv-x="722" 
d="M524 111l-78 77q46 64 46 166v895h112v-897q0 -142 -80 -241zM231 84q93 0 154 45l76 -78q-86 -71 -230 -71q-142 0 -231 71l76 78q64 -45 155 -45z" />
    <glyph glyph-name="uni02C2" unicode="&#x2c2;" horiz-adv-x="659" 
d="M561 86l-541 547l541 547l78 -70l-473 -477l473 -477z" />
    <glyph glyph-name="uni02C3" unicode="&#x2c3;" horiz-adv-x="659" 
d="M98 86l-78 70l472 477l-472 477l78 70l541 -547z" />
    <glyph glyph-name="circumflex" unicode="&#x2c6;" horiz-adv-x="548" 
d="M23 1145l192 266h119l192 -266h-63l-189 196l-188 -196h-63z" />
    <glyph glyph-name="caron" unicode="&#x2c7;" horiz-adv-x="548" 
d="M215 1145l-192 266h63l188 -197l189 197h63l-192 -266h-119z" />
    <glyph glyph-name="breve" unicode="&#x2d8;" horiz-adv-x="591" 
d="M295 1169q-106 0 -173.5 66t-76.5 176h72q7 -76 56 -121t124 -45t122.5 44.5t55.5 121.5h72q-9 -110 -77.5 -176t-174.5 -66z" />
    <glyph glyph-name="dotaccent" unicode="&#x2d9;" horiz-adv-x="393" 
d="M197 1208q-31 0 -52.5 20.5t-21.5 51.5q0 32 21.5 53t52.5 21q32 0 52.5 -21t20.5 -53q0 -31 -20.5 -51.5t-52.5 -20.5z" />
    <glyph glyph-name="ring" unicode="&#x2da;" horiz-adv-x="651" 
d="M281 1145q-73 15 -122.5 74t-49.5 137q0 93 63 156t154 63t154 -63t63 -156q0 -79 -50 -138t-124 -73v69q44 13 72 53.5t28 88.5q0 65 -41 108t-102 43q-62 0 -103 -43.5t-41 -107.5q0 -47 28 -88t71 -54v-69z" />
    <glyph glyph-name="ogonek" unicode="&#x2db;" horiz-adv-x="376" 
d="M209 -369q-85 0 -134.5 40t-49.5 104q0 63 61 135l70 90h96l-82 -100q-31 -38 -42 -62.5t-11 -52.5q0 -33 26.5 -55.5t71.5 -22.5h80l14 -76h-100z" />
    <glyph glyph-name="tilde" unicode="&#x2dc;" horiz-adv-x="731" 
d="M506 1196q-43 0 -85 18.5t-70 41t-63 41t-65 18.5q-43 0 -68.5 -27t-25.5 -76h-72q0 86 48.5 133.5t119.5 47.5q41 0 82.5 -18.5t70 -41t64 -41t66.5 -18.5q44 0 69 27t25 77h72q0 -87 -49 -134.5t-119 -47.5z" />
    <glyph glyph-name="hungarumlaut" unicode="&#x2dd;" horiz-adv-x="319" 
d="M12 1145l129 237h129l-196 -237h-62zM279 1145l129 237h131l-199 -237h-61z" />
    <glyph glyph-name="uni0315" unicode="&#x315;" horiz-adv-x="315" 
d="M72 934l49 315h125l-117 -315h-57z" />
    <glyph glyph-name="uni0326" unicode="&#x326;" horiz-adv-x="389" 
d="M72 -342l92 266h117l-154 -266h-55z" />
    <glyph glyph-name="pi" unicode="&#x3c0;" horiz-adv-x="1005" 
d="M887 975h-768v100h768v-100zM780 899h107v-899h-107v899zM119 899h106v-899h-106v899z" />
    <glyph glyph-name="Wgrave" unicode="&#x1e80;" horiz-adv-x="1632" 
d="M772 1319l-219 237h145l138 -237h-64zM715 680l55 -121l-250 -604l-545 1294h119l428 -1038zM686 1249l485 -1151l-59 -143l-545 1294h119zM1161 344l381 905h115l-438 -1038z" />
    <glyph glyph-name="wgrave" unicode="&#x1e81;" horiz-adv-x="1632" 
d="M772 1319l-219 237h145l138 -237h-64zM715 680l55 -121l-250 -604l-545 1294h119l428 -1038zM686 1249l485 -1151l-59 -143l-545 1294h119zM1161 344l381 905h115l-438 -1038z" />
    <glyph glyph-name="Wacute" unicode="&#x1e82;" horiz-adv-x="1632" 
d="M715 680l55 -121l-250 -604l-545 1294h119l428 -1038zM686 1249l485 -1151l-59 -143l-545 1294h119zM1161 344l381 905h115l-438 -1038zM770 1319l137 237h146l-219 -237h-64z" />
    <glyph glyph-name="wacute" unicode="&#x1e83;" horiz-adv-x="1632" 
d="M715 680l55 -121l-250 -604l-545 1294h119l428 -1038zM686 1249l485 -1151l-59 -143l-545 1294h119zM1161 344l381 905h115l-438 -1038zM770 1319l137 237h146l-219 -237h-64z" />
    <glyph glyph-name="Wdieresis" unicode="&#x1e84;" horiz-adv-x="1632" 
d="M715 680l55 -121l-250 -604l-545 1294h119l428 -1038zM686 1249l485 -1151l-59 -143l-545 1294h119zM1161 344l381 905h115l-438 -1038zM1032 1454q0 -31 -20.5 -52.5t-50.5 -21.5q-31 0 -52.5 21.5t-21.5 52.5t21.5 51.5t52.5 20.5t51 -20.5t20 -51.5zM719 1454
q0 -31 -20.5 -52.5t-51.5 -21.5t-52.5 21.5t-21.5 52.5t21.5 51.5t52.5 20.5t51.5 -20.5t20.5 -51.5z" />
    <glyph glyph-name="wdieresis" unicode="&#x1e85;" horiz-adv-x="1632" 
d="M715 680l55 -121l-250 -604l-545 1294h119l428 -1038zM686 1249l485 -1151l-59 -143l-545 1294h119zM1161 344l381 905h115l-438 -1038zM1032 1454q0 -31 -20.5 -52.5t-50.5 -21.5q-31 0 -52.5 21.5t-21.5 52.5t21.5 51.5t52.5 20.5t51 -20.5t20 -51.5zM719 1454
q0 -31 -20.5 -52.5t-51.5 -21.5t-52.5 21.5t-21.5 52.5t21.5 51.5t52.5 20.5t51.5 -20.5t20.5 -51.5z" />
    <glyph glyph-name="Ygrave" unicode="&#x1ef2;" horiz-adv-x="856" 
d="M403 1319l-219 237h146l137 -237h-64zM176 0l594 1249h121l-592 -1249h-123zM395 657l-61 -118l-350 710h127z" />
    <glyph glyph-name="ygrave" unicode="&#x1ef3;" horiz-adv-x="856" 
d="M403 1319l-219 237h146l137 -237h-64zM176 0l594 1249h121l-592 -1249h-123zM395 657l-61 -118l-350 710h127z" />
    <glyph glyph-name="endash" unicode="&#x2013;" horiz-adv-x="935" 
d="M68 580v96h800v-96h-800z" />
    <glyph glyph-name="emdash" unicode="&#x2014;" horiz-adv-x="1531" 
d="M68 580v96h1396v-96h-1396z" />
    <glyph glyph-name="quoteleft" unicode="&#x2018;" horiz-adv-x="272" 
d="M18 893l168 356h68l-88 -356h-148z" />
    <glyph glyph-name="quoteright" unicode="&#x2019;" horiz-adv-x="272" 
d="M18 893l88 356h146l-166 -356h-68z" />
    <glyph glyph-name="quotesinglbase" unicode="&#x201a;" horiz-adv-x="301" 
d="M6 -258l88 356h146l-166 -356h-68z" />
    <glyph glyph-name="quotedblleft" unicode="&#x201c;" horiz-adv-x="505" 
d="M254 893l168 356h67l-88 -356h-147zM18 893l168 356h68l-88 -356h-148z" />
    <glyph glyph-name="quotedblright" unicode="&#x201d;" horiz-adv-x="505" 
d="M254 893l88 356h145l-165 -356h-68zM18 893l88 356h146l-166 -356h-68z" />
    <glyph glyph-name="quotedblbase" unicode="&#x201e;" horiz-adv-x="536" 
d="M242 -258l88 356h145l-166 -356h-67zM6 -258l88 356h146l-166 -356h-68z" />
    <glyph glyph-name="dagger" unicode="&#x2020;" horiz-adv-x="841" 
d="M68 887v92h317l-33 336h140l-33 -336h315v-92h-706zM373 811h96v-653h-96v653z" />
    <glyph glyph-name="daggerdbl" unicode="&#x2021;" horiz-adv-x="841" 
d="M774 887h-305v-289h-96v289h-305v92h317l-33 336h140l-33 -336h315v-92zM68 428v90h706v-90h-305v-293h-96v293h-305z" />
    <glyph glyph-name="bullet" unicode="&#x2022;" horiz-adv-x="563" 
d="M279 387q-77 0 -131 53t-54 129q0 77 54 130t131 53q80 0 135 -52.5t55 -130.5q0 -76 -55 -129t-135 -53z" />
    <glyph glyph-name="ellipsis" unicode="&#x2026;" horiz-adv-x="1177" 
d="M1026 -14q-35 0 -57.5 23t-22.5 57t22.5 55.5t57.5 21.5q34 0 57 -22t23 -55q0 -34 -23 -57t-57 -23zM590 -14q-35 0 -57.5 23t-22.5 57t22.5 55.5t57.5 21.5q34 0 57 -22t23 -55q0 -34 -23 -57t-57 -23zM152 -14q-35 0 -57.5 23t-22.5 57t22.5 55.5t57.5 21.5
q34 0 56.5 -21.5t22.5 -55.5t-22.5 -57t-56.5 -23z" />
    <glyph glyph-name="perthousand" unicode="&#x2030;" horiz-adv-x="2224" 
d="M1839 -20q-97 0 -177.5 47.5t-127.5 128.5q-38 -72 -107 -119t-155 -57v92q93 17 153 89t60 171q0 112 -74.5 189t-183.5 77t-183.5 -77t-74.5 -189q0 -99 60.5 -172t154.5 -88v-92q-136 15 -226 115t-90 237q0 150 104 253t255 103q98 0 179 -47.5t126 -128.5
q38 72 108 119t156 57v-92q-93 -15 -153 -88t-60 -172q0 -112 74.5 -189t181.5 -77q110 0 185 76.5t75 189.5q0 99 -61 172t-154 90v90q136 -15 226 -114t90 -238q0 -151 -104.5 -253.5t-256.5 -102.5zM383 561q-151 0 -254.5 103t-103.5 254q0 137 89.5 237t223.5 115v-92
q-93 -15 -153 -88t-60 -172q0 -114 74.5 -190.5t183.5 -76.5t183.5 76.5t74.5 190.5q0 98 -60.5 170.5t-154.5 89.5v92q136 -17 225.5 -116t89.5 -236q0 -151 -103.5 -254t-254.5 -103zM449 0h-117l827 1249h117z" />
    <glyph glyph-name="guilsinglleft" unicode="&#x2039;" horiz-adv-x="358" 
d="M330 365l-350 253l350 254v-106l-205 -148l205 -147v-106z" />
    <glyph glyph-name="guilsinglright" unicode="&#x203a;" horiz-adv-x="358" 
d="M29 365v106l204 147l-204 148v106l352 -254z" />
    <glyph glyph-name="fraction" unicode="&#x2044;" horiz-adv-x="704" 
d="M-119 -197l826 1663h116l-825 -1663h-117z" />
    <glyph glyph-name="Euro" unicode="&#x20ac;" horiz-adv-x="1144" 
d="M780 84q149 0 275 66l65 -82q-145 -88 -344 -88q-239 0 -409 147.5t-209 380.5h-121v78h745v-78h-508q37 -188 177 -306t329 -118zM780 1165q-190 0 -330.5 -118t-175.5 -306h510v-75h-747v75h121q39 233 208.5 381t409.5 148q197 0 344 -88l-67 -82q-115 65 -273 65z
" />
    <glyph glyph-name="trademark" unicode="&#x2122;" horiz-adv-x="1368" 
d="M557 1167h-532v82h532v-82zM248 1100h86v-496h-86v496zM659 1073l86 -86v-383h-86v469zM1182 987l86 86v-469h-86v383zM1268 1171l-305 -313l-304 305v113l304 -311l305 311v-105z" />
    <glyph glyph-name="uni2190" unicode="&#x2190;" horiz-adv-x="1316" 
d="M645 158l-76 -72l-549 547l549 547l76 -72l-426 -424h1077v-102h-1077z" />
    <glyph glyph-name="uni2191" unicode="&#x2191;" horiz-adv-x="1228" 
d="M1090 647l-424 428v-1075h-105v1075l-422 -428l-73 74l548 549l549 -549z" />
    <glyph glyph-name="uni2192" unicode="&#x2192;" horiz-adv-x="1316" 
d="M748 86l-78 72l428 424h-1078v102h1078l-428 424l78 72l548 -547z" />
    <glyph glyph-name="uni2193" unicode="&#x2193;" horiz-adv-x="1228" 
d="M614 -20l-548 548l73 74l422 -428v1075h105v-1075l424 428l73 -74z" />
    <glyph glyph-name="Delta" unicode="&#x2206;" horiz-adv-x="1038" 
d="M522 1294l447 -1114h-117l-387 975zM428 1063l57 -141l-364 -922h-117zM252 100h739l43 -100h-823z" />
    <glyph glyph-name="product" unicode="&#x220f;" horiz-adv-x="1107" 
d="M860 1067h113v-1067h-113v1067zM973 1147h-838v102h838v-102zM135 1067h113v-1067h-113v1067z" />
    <glyph glyph-name="summation" unicode="&#x2211;" horiz-adv-x="952" 
d="M70 1147l-58 102h893v-102h-835zM301 102h604v-102h-661zM137 0h-127l400 623l-297 444h129l295 -440z" />
    <glyph glyph-name="minus" unicode="&#x2212;" horiz-adv-x="991" 
d="M918 580h-844v100h844v-100z" />
    <glyph glyph-name="approxequal" unicode="&#x2248;" horiz-adv-x="989" 
d="M688 664q-52 0 -107 21.5t-94 47t-88 47t-90 21.5q-50 0 -78 -31t-28 -92h-99q0 227 199 227q51 0 105.5 -21.5t93.5 -48t88 -48t90 -21.5q106 0 106 121h99q0 -223 -197 -223zM688 319q-52 0 -107 22t-94 48t-88 48t-90 22q-50 0 -78 -31t-28 -92h-99q0 225 199 225
q51 0 105.5 -21.5t93.5 -47t88 -47t90 -21.5q106 0 106 121h99q0 -114 -50.5 -170t-146.5 -56z" />
    <glyph glyph-name="notequal" unicode="&#x2260;" horiz-adv-x="1044" 
d="M498 870l-54 -100h-340v100h394zM940 770h-285l-366 -635h-113l160 273h-232v100h285l365 631h112l-157 -269h231v-100zM543 408l53 100h344v-100h-397z" />
    <glyph glyph-name="lessequal" unicode="&#x2264;" horiz-adv-x="1024" 
d="M915 240l-809 397v106l809 396v-117l-682 -332l682 -338v-112zM918 0h-812v100h812v-100z" />
    <glyph glyph-name="greaterequal" unicode="&#x2265;" horiz-adv-x="1024" 
d="M106 0v100h812v-100h-812zM106 1139l809 -398v-106l-809 -395v114l682 334l-682 336v115z" />
    <glyph glyph-name="uniE100" unicode="&#xe100;" horiz-adv-x="722" 
d="M524 111l-78 77q46 64 46 166v895h112v-897q0 -142 -80 -241zM231 84q93 0 154 45l76 -78q-86 -71 -230 -71q-142 0 -231 71l76 78q64 -45 155 -45zM506 1319l137 237h145l-219 -237h-63z" />
    <glyph glyph-name="uniE101" unicode="&#xe101;" horiz-adv-x="382" 
d="M190 1382q-31 0 -52 20.5t-21 51.5q0 32 21 53t52 21q32 0 53 -21t21 -53q0 -31 -21 -51.5t-53 -20.5zM135 0v1249h113v-1249h-113z" />
    <glyph glyph-name="uniE102" unicode="&#xe102;" horiz-adv-x="722" 
d="M524 111l-78 77q46 64 46 166v895h112v-897q0 -142 -80 -241zM231 84q93 0 154 45l76 -78q-86 -71 -230 -71q-142 0 -231 71l76 78q64 -45 155 -45zM506 1319l137 237h145l-219 -237h-63z" />
    <glyph glyph-name="uniE104" unicode="&#xe104;" horiz-adv-x="6567" 
d="M1110 940v154q176 176 444 176q186 0 334.5 -82.5t232 -229.5t83.5 -331q0 -186 -84.5 -334t-233 -230.5t-332.5 -82.5q-268 0 -444 176v153q68 -106 183.5 -165.5t258.5 -59.5q234 0 384.5 153t150.5 388t-150.5 387.5t-384.5 152.5q-143 0 -258.5 -59.5t-183.5 -165.5z
M3561 190l467 1104l60 -139l-410 -965h-117zM3121 182h-112v1067h112v-1067zM2454 182h-113v1067h113v-1067zM4069 905l62 137l442 -1042h-119zM2920 102v-102h-579v102h579zM3641 102l-47 -102h-585v102h632zM248 0h-113v1249h113v-1249zM1022 999v-749q-56 71 -86.5 170
t-30.5 207q0 107 30.5 204.5t86.5 167.5zM336 584v102h487v-102h-487zM5614 -43l-113 131v1161h113v-1292zM5868 1147h-166v102h166q186 0 335 -79.5t232.5 -222t83.5 -322.5q0 -135 -49 -251.5t-135 -198.5t-206.5 -128.5t-260.5 -46.5h-166v102h166q234 0 384 147t150 376
q0 230 -150 376t-384 146zM5413 197l-739 931v166l739 -934v-163zM4786 858v-858h-112v991z" />
    <glyph glyph-name="uniE105" unicode="&#xe105;" horiz-adv-x="6002" 
d="M1956 582l49 94q153 -56 225 -134.5t72 -205.5q0 -156 -104 -256t-263 -100q-221 0 -342 118l62 88q124 -102 276 -102q117 0 187.5 68.5t70.5 181.5q0 90 -52.5 145t-180.5 103zM1925 713l-49 -95q-138 55 -201 130.5t-63 193.5q0 135 101 221t261 86h152v-102h-146
q-114 0 -184 -57t-70 -148q0 -79 46.5 -131.5t152.5 -97.5zM4772 1294l59 -143l-315 -754h426l43 -102h-514l-125 -295h-119zM248 0h-113v1249h113v-1249zM745 575h-409v103h409v-103zM336 1147v102h467v-102h-467zM891 102h622v-102h-622v102zM891 575v103h579v-103h-579z
M891 1147v102h622v-102h-622zM2710 1067v-1067h-113v1067h113zM2214 1147v102h874v-102h-874zM3289 1067v-1067h-113v1067h113zM3289 1147h-113v102h113v-102zM3492 1249l485 -1151l-59 -143l-545 1294h119zM3965 348l381 901h117l-441 -1038zM4819 901l57 139l443 -1040
h-119zM5503 182h-113v1067h113v-1067zM5970 102v-102h-580v102h580z" />
    <glyph glyph-name="uniE106" unicode="&#xe106;" 
d="M451 1155l57 139l547 -1294h-119l-125 299h-512l43 100h424zM406 1051l57 -136l-383 -915h-117z" />
    <glyph glyph-name="uniE107" unicode="&#xe107;" 
d="M451 1157l57 137l547 -1294h-119zM408 1051l55 -133l-215 -519h426l43 -100h-510l-127 -299h-117z" />
    <glyph glyph-name="uniE108" unicode="&#xe108;" 
d="M508 1294l344 -817h-117l-284 678zM406 1051l57 -136l-383 -915h-117zM346 399h541l168 -399h-119l-127 299h-502z" />
    <glyph glyph-name="uniE109" unicode="&#xe109;" horiz-adv-x="946" 
d="M336 600v98h151q115 0 184.5 61.5t69.5 166.5q0 101 -66 162t-169 61h-371v100h373q155 0 251.5 -89.5t96.5 -231.5q0 -80 -32.5 -144.5t-86.5 -103.5t-119.5 -59.5t-136.5 -20.5h-145zM248 0h-113v1069h113v-1069zM768 608q127 -93 127 -260q0 -154 -104 -251t-271 -97
h-184v100h182q117 0 188.5 68t71.5 182q0 70 -29 123.5t-81 83.5q44 13 100 51z" />
    <glyph glyph-name="uniE10A" unicode="&#xe10a;" horiz-adv-x="948" 
d="M248 780h-113v469h113v-469zM135 598v100h371q104 0 169.5 62t65.5 166q0 102 -65.5 162.5t-169.5 60.5h-170v100h174q155 0 251.5 -89t96.5 -232q0 -92 -45 -165t-123 -110q97 -37 152 -117.5t55 -189.5q0 -154 -104 -250t-271 -96h-186v100h184q116 0 188 67.5
t72 180.5q0 116 -71.5 183t-188.5 67h-385zM135 518h113v-518h-113v518z" />
    <glyph glyph-name="uniE10B" unicode="&#xe10b;" horiz-adv-x="948" 
d="M248 0h-113v1069h113v-1069zM336 598v100h170q104 0 169.5 62t65.5 166q0 102 -65.5 162.5t-169.5 60.5h-371v100h375q155 0 251.5 -89t96.5 -232q0 -92 -45 -165t-123 -110q97 -37 152 -117.5t55 -189.5q0 -154 -104 -250t-271 -96h-186v100h184q116 0 188 67.5
t72 180.5q0 116 -71.5 183t-188.5 67h-184z" />
    <glyph glyph-name="uniE10C" unicode="&#xe10c;" horiz-adv-x="1114" 
d="M276 268l-79 -78q-156 180 -156 433q0 254 156 434l77 -80q-116 -140 -116 -354q0 -212 118 -355zM338 1040l-80 78q179 152 432 152q120 0 228 -37.5t184 -102.5l-74 -75q-138 110 -338 110q-211 0 -352 -125zM264 127l76 76q141 -119 350 -119q198 0 338 111l74 -76
q-74 -65 -182.5 -102t-229.5 -37q-252 0 -426 147z" />
    <glyph glyph-name="uniE10D" unicode="&#xe10d;" horiz-adv-x="884" 
d="M158 666h-117q14 259 181.5 421t434.5 162h191v-102h-189q-220 0 -355 -132.5t-146 -348.5zM41 586h117q11 -218 146 -351t355 -133h189v-102h-191q-267 0 -434.5 162t-181.5 424z" />
    <glyph glyph-name="uniE10E" unicode="&#xe10e;" horiz-adv-x="1171" 
d="M487 0h-151v102h151q232 0 380.5 147t148.5 376q0 230 -149.5 376t-381.5 146h-350v102h350q185 0 332.5 -79.5t230 -222t82.5 -322.5q0 -273 -181.5 -449t-461.5 -176zM248 0h-113v1067h113v-1067z" />
    <glyph glyph-name="uniE10F" unicode="&#xe10f;" horiz-adv-x="1171" 
d="M1130 666h-116q-14 213 -160 347t-367 134h-151v102h151q270 0 449.5 -163t193.5 -420zM248 182h-113v1067h113v-1067zM485 102q222 0 369.5 135t159.5 349h116q-9 -171 -93.5 -304.5t-228.5 -207.5t-323 -74h-350v102h350z" />
    <glyph glyph-name="uniE110" unicode="&#xe110;" horiz-adv-x="1171" 
d="M485 0h-350v102h350q233 0 382 147t149 376q0 230 -149.5 376t-379.5 146h-151v102h151q280 0 461.5 -175.5t181.5 -448.5q0 -180 -82.5 -323t-230 -222.5t-332.5 -79.5zM248 182h-113v1067h113v-1067z" />
    <glyph glyph-name="uniE111" unicode="&#xe111;" horiz-adv-x="874" 
d="M336 1147v102h434v-102h-434zM248 0h-113v1249h113v-571h483v-103h-483v-575zM336 0v102h434v-102h-434z" />
    <glyph glyph-name="uniE112" unicode="&#xe112;" horiz-adv-x="868" 
d="M248 758h-113v491h629v-102h-516v-389zM135 575v103h590v-103h-590zM135 496h113v-394h516v-102h-629v496z" />
    <glyph glyph-name="uniE113" unicode="&#xe113;" horiz-adv-x="874" 
d="M336 1147v102h434v-102h-434zM135 575v674h113v-571h483v-103h-596zM248 496v-394h522v-102h-635v496h113z" />
    <glyph glyph-name="uniE114" unicode="&#xe114;" horiz-adv-x="835" 
d="M248 0h-113v1249h113v-608h463v-102h-463v-539zM336 1147v102h426v-102h-426z" />
    <glyph glyph-name="uniE115" unicode="&#xe115;" horiz-adv-x="827" 
d="M248 721h-113v528h619v-102h-506v-426zM135 539v102h567v-102h-567zM135 459h113v-459h-113v459z" />
    <glyph glyph-name="uniE116" unicode="&#xe116;" horiz-adv-x="827" 
d="M135 641h567v-102h-454v-539h-113v641zM248 721h-113v528h619v-102h-506v-426z" />
    <glyph glyph-name="uniE117" unicode="&#xe117;" horiz-adv-x="1294" 
d="M1249 541h-504v102h504v-102zM276 268l-79 -78q-156 180 -156 433q0 254 156 434l77 -80q-116 -140 -116 -354q0 -212 118 -355zM338 1040l-80 78q179 152 432 152q120 0 228 -37.5t184 -102.5l-74 -75q-138 110 -338 110q-211 0 -352 -125zM690 -20q-246 0 -426 147
l76 76q147 -119 350 -119q177 0 289 95.5t129 262.5h123q-29 -218 -176.5 -340t-364.5 -122z" />
    <glyph glyph-name="uniE118" unicode="&#xe118;" horiz-adv-x="1122" 
d="M158 666h-117q14 259 181.5 421t434.5 162h263v-102h-258q-222 0 -357.5 -132.5t-146.5 -348.5zM920 0v578h-302v100h414v-678h-112zM657 0q-267 0 -434.5 162t-181.5 424h117q12 -217 146 -350.5t353 -133.5h174v-102h-174z" />
    <glyph glyph-name="uniE119" unicode="&#xe119;" horiz-adv-x="1294" 
d="M158 1001v-753q-55 69 -86 169t-31 208q0 109 31 208t86 168zM1249 541h-501v102h501v-102zM690 1270q120 0 229 -37.5t185 -102.5l-76 -75q-138 110 -338 110q-284 0 -444 -225v154q176 176 444 176zM690 -20q-268 0 -444 176v159q72 -108 187 -169.5t257 -61.5
q177 0 289 95.5t131 262.5h121q-29 -218 -176.5 -340t-364.5 -122z" />
    <glyph glyph-name="uniE11A" unicode="&#xe11a;" horiz-adv-x="1157" 
d="M248 0h-113v1249h113v-1249zM821 586h-485v102h485v-102zM909 1249h113v-1249h-113v1249z" />
    <glyph glyph-name="uniE11B" unicode="&#xe11b;" horiz-adv-x="1150" 
d="M336 586v102h567v561h113v-1249h-113v586h-567zM248 0h-113v1249h113v-1249z" />
    <glyph glyph-name="uniE11C" unicode="&#xe11c;" horiz-adv-x="1146" 
d="M248 768h-113v481h113v-481zM1012 586h-764v-586h-113v688h764v561h113v-663zM1012 506v-506h-113v506h113z" />
    <glyph glyph-name="uniE11D" unicode="&#xe11d;" horiz-adv-x="382" 
d="M248 1147h-113v102h113v-102zM248 1067v-1067h-113v1067h113z" />
    <glyph glyph-name="uniE11E" unicode="&#xe11e;" horiz-adv-x="382" 
d="M248 666h-113v583h113v-583zM248 586v-586h-113v586h113z" />
    <glyph glyph-name="uniE11F" unicode="&#xe11f;" horiz-adv-x="628" 
d="M397 84v1165h113v-899q0 -93 -28 -163t-85 -103zM2 0v102h90q143 0 217 54v-109q-75 -47 -217 -47h-90z" />
    <glyph glyph-name="uniE120" unicode="&#xe120;" horiz-adv-x="915" 
d="M135 629v620h113v-489zM373 487l73 78l496 -565h-137zM248 475v-475h-113v498l680 751h131z" />
    <glyph glyph-name="uniE121" unicode="&#xe121;" horiz-adv-x="917" 
d="M453 688l-68 80l430 481h135zM248 1249v-1249h-113v1249h113zM336 524v168l608 -692h-139z" />
    <glyph glyph-name="uniE122" unicode="&#xe122;" horiz-adv-x="753" 
d="M248 0h-113v1249h113v-1249zM330 0v102h391v-102h-391z" />
    <glyph glyph-name="uniE123" unicode="&#xe123;" horiz-adv-x="747" 
d="M248 666h-113v583h113v-583zM248 586v-484h467v-102h-580v586h113z" />
    <glyph glyph-name="uniE124" unicode="&#xe124;" horiz-adv-x="1400" 
d="M700 412l-565 716v166l565 -723l566 723v-159zM248 858v-858h-113v987zM1153 858l113 137v-995h-113v858z" />
    <glyph glyph-name="uniE125" unicode="&#xe125;" horiz-adv-x="1400" 
d="M248 1159v-1159h-113v1294zM336 883v164l364 -476l566 723v-159l-566 -723zM1153 858l113 137v-995h-113v858z" />
    <glyph glyph-name="uniE126" unicode="&#xe126;" horiz-adv-x="1400" 
d="M1153 1155l113 139v-1294h-113v1155zM248 0h-113v1294l113 -135v-1159zM336 883v164l364 -476l365 476v-156l-365 -479z" />
    <glyph glyph-name="uniE127" unicode="&#xe127;" horiz-adv-x="1210" 
d="M248 0h-113v1292l113 -133v-1159zM1075 254l-112 133v862h112v-995zM334 1051l741 -934v-160l-741 934v160z" />
    <glyph glyph-name="uniE128" unicode="&#xe128;" horiz-adv-x="1210" 
d="M874 197l-739 933v164l739 -936v-161zM1075 -43l-112 131v1161h112v-1292zM248 862v-862h-113v995z" />
    <glyph glyph-name="uniE129" unicode="&#xe129;" horiz-adv-x="1380" 
d="M647 88v-106q-265 15 -435.5 194.5t-170.5 448.5q0 270 169.5 449t436.5 194v-107q-217 -14 -353 -163t-136 -373q0 -223 136.5 -373.5t352.5 -163.5zM1339 625q0 -177 -77.5 -320.5t-215.5 -228t-311 -94.5v106q215 13 351.5 163.5t136.5 373.5q0 224 -136 373t-352 163
v107q266 -15 435 -194.5t169 -448.5z" />
    <glyph glyph-name="uniE12A" unicode="&#xe12a;" horiz-adv-x="1380" 
d="M690 1270q273 0 454 -169.5t195 -436.5h-116q-14 222 -161.5 361.5t-371.5 139.5t-371 -139.5t-161 -361.5h-117q14 267 195 436.5t454 169.5zM1223 584h116q-15 -265 -197 -434.5t-452 -169.5t-452 169.5t-197 434.5h117q15 -221 162.5 -360.5t369.5 -139.5t370.5 140
t162.5 360z" />
    <glyph glyph-name="uniE12B" unicode="&#xe12b;" horiz-adv-x="1380" 
d="M246 940v154q176 176 444 176q186 0 334.5 -82.5t231.5 -229.5t83 -331q0 -186 -84 -334t-232.5 -230.5t-332.5 -82.5q-268 0 -444 176v153q68 -106 183.5 -165.5t258.5 -59.5q234 0 384.5 153t150.5 388t-150 387.5t-383 152.5q-144 0 -260 -59.5t-184 -165.5zM158 999
v-749q-55 70 -86 169.5t-31 207.5q0 106 31 204.5t86 167.5z" />
    <glyph glyph-name="uniE12C" unicode="&#xe12c;" horiz-adv-x="946" 
d="M440 399h-104v103h100q148 0 240 87.5t92 235.5q0 146 -92.5 234t-241.5 88h-299v102h305q200 0 322.5 -119.5t122.5 -304.5q0 -187 -122 -306.5t-323 -119.5zM248 0h-113v1067h113v-1067z" />
    <glyph glyph-name="uniE12D" unicode="&#xe12d;" horiz-adv-x="946" 
d="M444 399h-196v-399h-113v1249h113v-747h188q149 0 241.5 87.5t92.5 235.5q0 146 -92.5 234t-241.5 88h-100v102h106q200 0 321.5 -119t121.5 -305q0 -187 -120.5 -306.5t-320.5 -119.5z" />
    <glyph glyph-name="uniE12E" unicode="&#xe12e;" horiz-adv-x="946" 
d="M248 582h-113v667h113v-667zM444 399h-196v-399h-113v502h301q149 0 241.5 87.5t92.5 235.5q0 146 -92.5 234t-241.5 88h-100v102h106q200 0 321.5 -119t121.5 -305q0 -187 -120.5 -306.5t-320.5 -119.5z" />
    <glyph glyph-name="uniE12F" unicode="&#xe12f;" horiz-adv-x="1388" 
d="M735 1163v107q263 -15 433.5 -195t170.5 -446q0 -138 -49 -257t-139 -190h-150q103 72 162.5 188.5t59.5 256.5q0 223 -136.5 372t-351.5 164zM614 106v-102q-258 25 -415.5 196t-157.5 427q0 132 45.5 248t125.5 200.5t192.5 136t242.5 58.5v-107q-217 -15 -353 -163.5
t-136 -372.5q0 -212 125 -354t331 -167zM702 0v102h666v-102h-666z" />
    <glyph glyph-name="uniE130" unicode="&#xe130;" horiz-adv-x="1388" 
d="M735 1163v107q266 -17 435 -196.5t169 -448.5q0 -223 -114 -377l-99 59q97 137 97 318q0 224 -135.5 373.5t-352.5 164.5zM205 389l-101 -57q-63 132 -63 293q0 271 170 450.5t436 194.5v-107q-217 -14 -353 -163t-136 -375q0 -130 47 -236zM147 256l99 57
q70 -108 185 -168.5t259 -60.5q229 0 381 152l311 -189l-57 -92l-242 149q-173 -124 -393 -124q-173 0 -315.5 73t-227.5 203z" />
    <glyph glyph-name="uniE131" unicode="&#xe131;" horiz-adv-x="954" 
d="M248 725h-113v524h113v-524zM336 1149v100h143q168 0 272.5 -98t104.5 -254q0 -157 -104 -254.5t-269 -97.5h-235v-545h-113v645h340q118 0 191 68t73 184q0 117 -72.5 184.5t-191.5 67.5h-139zM797 0l-383 465q66 0 127 10l393 -475h-137z" />
    <glyph glyph-name="uniE132" unicode="&#xe132;" horiz-adv-x="954" 
d="M336 545v100h139q119 0 191.5 67.5t72.5 184.5t-72.5 184.5t-191.5 67.5h-340v100h344q168 0 272.5 -98t104.5 -254q0 -157 -104 -254.5t-269 -97.5h-147zM248 0h-113v1067h113v-1067zM797 0l-383 465q66 0 127 10l393 -475h-137z" />
    <glyph glyph-name="uniE133" unicode="&#xe133;" horiz-adv-x="804" 
d="M92 844l385 -164q111 -47 177.5 -101t82.5 -126l-418 178q-185 77 -227 213zM756 330q0 -154 -104.5 -252t-262.5 -98q-106 0 -195.5 32t-146.5 86l68 88q125 -102 274 -102q114 0 185 69t71 185q0 42 -10 65l119 -47q2 -8 2 -26zM190 899l-112 45q-2 10 -2 19
q0 131 96 219t236 88q193 0 321 -117l-67 -84q-124 96 -248 96q-99 0 -162.5 -59t-63.5 -152q0 -41 2 -55z" />
    <glyph glyph-name="uniE134" unicode="&#xe134;" horiz-adv-x="780" 
d="M373 698l-49 -92q-133 59 -191.5 136.5t-58.5 199.5q0 135 101 221t259 86h234v-102h-228q-112 0 -182 -57t-70 -148q0 -85 43 -141.5t142 -102.5zM401 565l50 94q148 -67 208 -141t60 -194q0 -144 -106 -234t-275 -90h-272v102h266q121 0 196.5 62t75.5 160
q0 82 -45 135t-158 106z" />
    <glyph glyph-name="uniE135" unicode="&#xe135;" horiz-adv-x="866" 
d="M578 1147v102h272v-102h-272zM489 0h-112v1249h112v-1249zM289 1147h-273v102h273v-102z" />
    <glyph glyph-name="uniE136" unicode="&#xe136;" horiz-adv-x="862" 
d="M573 1147v102h273v-102h-273zM485 0h-112v1147h-357v102h469v-1249z" />
    <glyph glyph-name="uniE137" unicode="&#xe137;" horiz-adv-x="862" 
d="M377 1249h469v-102h-357v-1147h-112v1249zM289 1147h-273v102h273v-102z" />
    <glyph glyph-name="uniE138" unicode="&#xe138;" horiz-adv-x="1093" 
d="M967 311l-107 51q2 12 2 37v850h113v-846q0 -30 -8 -92zM233 362l-106 -51q-8 41 -8 92v846h112v-850q0 -25 2 -37zM152 229l102 47q30 -90 106 -141t187 -51q109 0 186.5 51t106.5 141l102 -47q-45 -118 -147.5 -183.5t-247.5 -65.5t-247.5 65.5t-147.5 183.5z" />
    <glyph glyph-name="uniE139" unicode="&#xe139;" horiz-adv-x="1110" 
d="M774 156v-111q-42 -30 -109 -47.5t-141 -17.5q-183 0 -294 110.5t-111 296.5v862h112v-860q0 -145 80.5 -225t225.5 -80t237 72zM862 0v1249h113v-1249h-113z" />
    <glyph glyph-name="uniE13A" unicode="&#xe13a;" horiz-adv-x="1040" 
d="M463 96l485 1153h117l-545 -1294zM475 346l-57 -139l-443 1042h119z" />
    <glyph glyph-name="uniE13B" unicode="&#xe13b;" horiz-adv-x="1632" 
d="M764 1126l53 164l352 -1194l-57 -141zM1221 215l-52 150l373 884h115zM721 977l51 -160l-252 -862l-545 1294h119l420 -1009z" />
    <glyph glyph-name="uniE13C" unicode="&#xe13c;" horiz-adv-x="1632" 
d="M764 1126l53 164l352 -1194l-57 -141zM1221 217l-52 148l373 884h115zM461 358l-49 -147l-437 1038h119zM463 86l258 891l51 -160l-252 -862z" />
    <glyph glyph-name="uniE13D" unicode="&#xe13d;" horiz-adv-x="1632" 
d="M463 84l354 1206l352 -1194l-57 -141l-295 1010l-297 -1010zM1221 217l-52 148l373 884h115zM461 356l-49 -145l-437 1038h119z" />
    <glyph glyph-name="uniE13E" unicode="&#xe13e;" horiz-adv-x="925" 
d="M416 799l-66 -103l-336 553h129zM911 1249l-782 -1249h-123l782 1249h123zM514 465l66 106l340 -571h-127z" />
    <glyph glyph-name="uniE13F" unicode="&#xe13f;" horiz-adv-x="925" 
d="M555 676h-182l-359 573h127l328 -520l319 520h123zM371 596h184l365 -596h-127l-334 541l-330 -541h-123z" />
    <glyph glyph-name="uniE140" unicode="&#xe140;" horiz-adv-x="856" 
d="M506 440l-207 -440h-123l209 440l-401 809h127zM555 543l-61 119l276 587h121z" />
    <glyph glyph-name="uniE141" unicode="&#xe141;" horiz-adv-x="882" 
d="M391 0v373h113v-373h-113zM553 551l-55 113l272 585h121zM506 453h-117l-397 796h127z" />
    <glyph glyph-name="uniE142" unicode="&#xe142;" horiz-adv-x="897" 
d="M240 182h-129l651 1067h125zM608 1147h-588v102h646zM858 0h-858l61 102h797v-102z" />
    <glyph glyph-name="uniE143" unicode="&#xe143;" horiz-adv-x="897" 
d="M129 0h-129l762 1249h125zM608 1147h-588v102h646zM225 0l62 102h571v-102h-633z" />
    <glyph glyph-name="uniE144" unicode="&#xe144;" horiz-adv-x="897" 
d="M827 1147h-807v102h867zM778 1067l-540 -885h-129l546 885h123zM858 0h-858l61 102h797v-102z" />
    <glyph glyph-name="uniE145" unicode="&#xe145;" horiz-adv-x="1345" 
d="M434 1116l58 133l239 -569h473v-105h-542zM631 1147l-45 102h655v-102h-610zM389 1010l57 -129l-364 -881h-119zM340 395l43 101h428l164 -394h266v-102h-340l-164 395h-397z" />
    <glyph glyph-name="uniE146" unicode="&#xe146;" horiz-adv-x="1345" 
d="M444 1147l43 102h752v-102h-795zM389 1020l57 -131l-364 -889h-119zM1204 575h-538l-205 492h117l159 -387h467v-105zM381 496h434l164 -394h262v-102h-336l-164 395h-403z" />
    <glyph glyph-name="uniE147" unicode="&#xe147;" horiz-adv-x="1198" 
d="M23 586v100h129v563h112v-563h301v-100h-542zM506 1147h-154v102h156q283 0 466 -175.5t183 -448.5t-183 -449t-466 -176h-356v500h112v-398h242q236 0 386 147t150 376q0 230 -151 376t-385 146z" />
    <glyph glyph-name="uniE148" unicode="&#xe148;" horiz-adv-x="1198" 
d="M946 313l98 -55q-90 -121 -228.5 -189.5t-307.5 -68.5h-356v500h112v-398h242q141 0 255.5 56t184.5 155zM1090 332l-99 57q51 108 51 236q0 230 -151 376t-385 146h-154v102h156q283 0 466 -175.5t183 -448.5q0 -159 -67 -293zM23 586v100h129v563h112v-563h301v-100
h-542z" />
    <glyph glyph-name="uniE149" unicode="&#xe149;" horiz-adv-x="1198" 
d="M264 766h-112v483h356q283 0 466 -175.5t183 -448.5q0 -159 -67 -293l-99 57q51 108 51 236q0 230 -151 376t-385 146h-242v-381zM946 313l98 -55q-90 -121 -228.5 -189.5t-307.5 -68.5h-356v580h-129v98h542v-98h-301v-478h242q141 0 255.5 56t184.5 155z" />
    <glyph glyph-name="uniE14A" unicode="&#xe14a;" horiz-adv-x="1198" 
d="M23 586v100h129v563h112v-563h301v-100h-542zM506 1147h-154v102h156q283 0 466 -175.5t183 -448.5t-183 -449t-466 -176h-356v500h112v-398h242q236 0 386 147t150 376q0 230 -151 376t-385 146z" />
    <glyph glyph-name="uniE14B" unicode="&#xe14b;" horiz-adv-x="1198" 
d="M946 313l98 -55q-90 -121 -228.5 -189.5t-307.5 -68.5h-356v500h112v-398h242q141 0 255.5 56t184.5 155zM1090 332l-99 57q51 108 51 236q0 230 -151 376t-385 146h-154v102h156q283 0 466 -175.5t183 -448.5q0 -159 -67 -293zM23 586v100h129v563h112v-563h301v-100
h-542z" />
    <glyph glyph-name="uniE14C" unicode="&#xe14c;" horiz-adv-x="1198" 
d="M264 766h-112v483h356q283 0 466 -175.5t183 -448.5q0 -159 -67 -293l-99 57q51 108 51 236q0 230 -151 376t-385 146h-242v-381zM946 313l98 -55q-90 -121 -228.5 -189.5t-307.5 -68.5h-356v580h-129v98h542v-98h-301v-478h242q141 0 255.5 56t184.5 155z" />
    <glyph glyph-name="uniE14D" unicode="&#xe14d;" horiz-adv-x="1044" 
d="M131 408v841h113v-841h-113zM813 166v1083h113v-794q0 -191 -113 -289zM221 0v102h117q145 0 235.5 31t151.5 103v-130q-62 -57 -151 -81.5t-238 -24.5h-115z" />
    <glyph glyph-name="uniE14E" unicode="&#xe14e;" horiz-adv-x="763" 
d="M152 778v471h112v-436zM264 182h-112v412l-115 -37v105l502 155v-104l-275 -86v-445zM731 102v-102h-579v102h579z" />
    <glyph glyph-name="uniE14F" unicode="&#xe14f;" horiz-adv-x="1550" 
d="M932 760h-113v489h627v-102h-514v-387zM819 575v105h596v-105h-596zM1020 0v102h426v-102h-426zM102 330q-61 131 -61 295q0 276 168.5 450t445.5 174h76v-102h-76q-227 0 -362 -145t-135 -377q0 -133 45 -238zM657 0q-169 0 -301.5 67t-210.5 187l97 57q66 -99 173 -154
t244 -55h160v394h113v-496h-275z" />
    <glyph glyph-name="uniE150" unicode="&#xe150;" horiz-adv-x="1550" 
d="M1020 1147v102h426v-102h-426zM932 760h-113v387h-160q-221 0 -355 -133t-146 -350h-117q12 261 179.5 423t434.5 162h277v-489zM932 182h-113v498h594v-105h-481v-393zM1446 102v-102h-627v102h627zM158 584q12 -215 146 -348.5t353 -133.5h74v-102h-76
q-266 0 -433 162.5t-181 421.5h117z" />
    <glyph glyph-name="uniE151" unicode="&#xe151;" horiz-adv-x="1396" 
d="M369 195l-176 -195h-132l158 176q-170 184 -170 449q0 185 83 332.5t231.5 230t334.5 82.5q185 0 330 -82l-72 -88q-117 65 -258 65q-233 0 -383.5 -152t-150.5 -388q0 -278 205 -430zM1339 1249l-913 -993q-50 23 -74 63l856 930h131zM1155 913l78 93q115 -159 115 -381
q0 -185 -84 -332.5t-232.5 -230t-333.5 -82.5q-181 0 -325 81l67 95q110 -72 258 -72q234 0 384.5 153t150.5 388q0 163 -78 288z" />
    <glyph glyph-name="uniE152" unicode="&#xe152;" horiz-adv-x="1396" 
d="M1233 664q-10 219 -161 360t-374 141q-213 0 -358 -129l-82 76q179 158 440 158q119 0 224.5 -35t183.5 -96l100 110h131l-157 -176q156 -166 168 -409h-115zM197 1049l84 -76q-117 -145 -117 -348q0 -160 80 -289l-78 -92q-117 157 -117 381q0 245 148 424zM973 995
q46 -21 74 -63l-854 -932h-134zM1233 584h115q-15 -265 -197.5 -434.5t-452.5 -169.5q-182 0 -329 81l73 89q119 -66 256 -66q224 0 372.5 140t162.5 360z" />
    <glyph glyph-name="uniE153" unicode="&#xe153;" horiz-adv-x="851" 
d="M483 721h-112v426h-351v102h811v-102h-348v-426zM700 641v-100h-217v-541h-112v541h-217v100h546z" />
    <glyph glyph-name="uniE154" unicode="&#xe154;" horiz-adv-x="940" 
d="M434 309q146 2 237 89.5t91 232.5q0 147 -91.5 235t-240.5 88h-295v295h113v-192h184q200 0 323.5 -119.5t123.5 -306.5q0 -184 -121.5 -303.5t-319.5 -120.5h-102v102h98zM248 0h-113v874h113v-874z" />
    <glyph glyph-name="uniE155" unicode="&#xe155;" horiz-adv-x="1404" 
d="M702 1270q273 0 454 -169t196 -437h-117q-14 221 -162 361t-371 140q-224 0 -371 -139.5t-161 -361.5h-117q14 267 195 436.5t454 169.5zM1235 584h117q-15 -265 -198 -434.5t-452 -169.5q-270 0 -452 169.5t-197 434.5h117q14 -221 161.5 -360.5t370.5 -139.5
q222 0 370 139.5t163 360.5z" />
    <glyph glyph-name="uniE156" unicode="&#xe156;" horiz-adv-x="962" 
d="M641 1249l-80 -102h-467v102h547zM821 174l-84 66q33 57 33 147q0 126 -93 202.5t-247 76.5h-57l-56 57l428 526h127l-395 -483q185 -12 295.5 -114.5t110.5 -264.5q0 -122 -62 -213zM444 -20q-134 0 -239 52.5t-168 149.5l84 70q47 -82 130.5 -126t192.5 -44
q154 0 242 88l80 -66q-121 -124 -322 -124z" />
    <glyph glyph-name="uniE157" unicode="&#xe157;" horiz-adv-x="1038" 
d="M723 1249h111v-874h131v-103h-131v-272h-111v1249zM635 272h-569v103l569 772v-172l-440 -600h440v-103z" />
    <glyph glyph-name="uniE158" unicode="&#xe158;" horiz-adv-x="983" 
d="M354 1147l-102 -469l-78 -31l-35 15l129 587h543v-102h-457zM41 193l86 69q45 -84 133 -132t201 -48q137 0 228 88t91 221q0 141 -98 221.5t-274 81.5h-64l25 103h49q222 -3 348.5 -110t126.5 -294q0 -177 -124 -295t-310 -118q-136 0 -246 57t-172 156z" />
    <glyph glyph-name="uniE159" unicode="&#xe159;" horiz-adv-x="1048" 
d="M479 86v-104q-185 15 -303.5 143.5t-118.5 318.5q0 88 32 170t112 179l377 456h137l-426 -518q-63 -75 -90 -141t-27 -146q0 -146 84.5 -244.5t222.5 -113.5zM567 86q138 15 224 113t86 245q0 154 -97.5 255.5t-247.5 101.5q-49 0 -90 -10l84 100q18 2 33 2
q180 0 306 -129t126 -322q0 -188 -119.5 -316.5t-304.5 -143.5v104z" />
    <glyph glyph-name="uniE15A" unicode="&#xe15a;" horiz-adv-x="845" 
d="M625 1249l-47 -102h-568v102h615zM721 1249h125l-580 -1249h-123z" />
    <glyph glyph-name="uniE15B" unicode="&#xe15b;" horiz-adv-x="1036" 
d="M563 -18v100q133 12 213 84t80 182q0 120 -93.5 193t-244.5 73q-152 0 -245 -73t-93 -193q0 -110 80.5 -182t214.5 -84v-100q-184 12 -296.5 112t-112.5 254q0 108 68 199t177 121q-85 38 -133.5 111.5t-48.5 162.5q0 135 96 226.5t250 101.5v-99q-107 -11 -171 -73.5
t-64 -157.5q0 -103 76.5 -167t201.5 -64q126 0 202.5 64t76.5 167q0 95 -64 157.5t-170 73.5v99q152 -11 248 -102t96 -226q0 -89 -48.5 -162.5t-133.5 -111.5q109 -30 177.5 -121.5t68.5 -198.5q0 -154 -112.5 -254t-295.5 -112z" />
    <glyph glyph-name="uniE15C" unicode="&#xe15c;" horiz-adv-x="1048" 
d="M569 1163v105q185 -15 303.5 -144t118.5 -317q0 -90 -31.5 -171.5t-111.5 -178.5l-379 -457h-135l424 518q64 76 91.5 142t27.5 147q0 145 -85 243t-223 113zM481 1163q-139 -15 -224 -112.5t-85 -243.5q0 -156 98 -257t252 -101q45 0 84 10l-84 -101q-18 -2 -35 -2
q-182 2 -306 130t-124 321q0 188 119.5 317t304.5 144v-105z" />
    <glyph glyph-name="uniE15D" unicode="&#xe15d;" horiz-adv-x="802" 
d="M301 649l-33 -360h-59l-39 360h131zM236 -14q-34 0 -57 23t-23 57q0 33 23 55t57 22t56.5 -21.5t22.5 -55.5t-22.5 -57t-56.5 -23zM371 551l12 98l47 15q97 29 155 99.5t58 158.5q0 109 -72.5 177t-189.5 68q-114 0 -209 -69l-61 80q44 43 117 67.5t157 24.5
q165 0 268 -94.5t103 -247.5q0 -144 -104.5 -245t-280.5 -132z" />
    <glyph glyph-name="uniE15E" unicode="&#xe15e;" horiz-adv-x="1128" 
d="M557 594q-199 0 -317.5 90.5t-118.5 249.5q0 158 103 247t286 89q117 0 211 -43l-33 -94q-78 38 -178 38q-129 0 -201.5 -63t-72.5 -174q0 -113 86 -177.5t239 -64.5h180v-98h-184zM829 0v692h283v-98h-172v-594h-111zM164 637q40 -40 86 -57q-88 -66 -88 -195
q0 -133 94.5 -219t275.5 -86q125 0 209 37v-99q-90 -38 -221 -38q-211 0 -343 109.5t-132 295.5q0 74 33.5 142.5t85.5 109.5z" />
    <glyph glyph-name="uniE15F" unicode="&#xe15f;" horiz-adv-x="1517" 
d="M768 -70q-147 0 -277 53t-222 145t-145.5 221t-53.5 276t53 276t145 221t222 145.5t278 53.5q191 0 346.5 -78.5t244.5 -219.5t89 -316q0 -91 -29.5 -166.5t-77.5 -123.5t-106.5 -74t-118.5 -26h-88l-221 457l57 109l242 -494h16q108 0 177 89.5t69 228.5
q0 153 -78.5 276.5t-216 192.5t-305.5 69q-131 0 -245.5 -47.5t-195.5 -129.5t-128 -197t-47 -246q0 -175 79 -316.5t220.5 -222t316.5 -80.5q225 0 379 123l49 -57q-181 -142 -428 -142zM823 973l-327 -656h-113l383 762z" />
    <glyph glyph-name="uniE160" unicode="&#xe160;" horiz-adv-x="821" 
d="M168 586q11 -188 120.5 -297t293.5 -109h188v-102h-201v-172h-104v184q-184 31 -292.5 162t-119.5 334h115zM168 666h-115q11 205 118.5 337t291.5 164v183h102v-170h207v-103h-190q-185 0 -294 -109.5t-120 -301.5z" />
    <glyph glyph-name="uniE161" unicode="&#xe161;" horiz-adv-x="780" 
d="M401 565l50 94q148 -67 208 -141t60 -194q0 -125 -82.5 -211.5t-218.5 -108.5v-180h-105v176h-247v102h266q121 0 196.5 62t75.5 160q0 82 -45 135t-158 106zM373 698l-49 -92q-133 59 -191.5 136.5t-58.5 199.5q0 120 83 203t218 100v180h102v-176h191v-102h-228
q-112 0 -182 -57t-70 -148q0 -85 43 -141.5t142 -102.5z" />
    <glyph glyph-name="uniE162" unicode="&#xe162;" horiz-adv-x="1146" 
d="M784 584h-747v98h747v-98zM780 84q149 0 275 66l65 -82q-145 -88 -342 -88q-239 0 -409 147t-209 377h119q37 -185 175.5 -302.5t325.5 -117.5zM780 1165q-186 0 -323.5 -111.5t-175.5 -291.5h-119q42 225 210.5 366.5t405.5 141.5q194 0 344 -88l-69 -82
q-115 65 -273 65z" />
    <glyph glyph-name="uniE163" unicode="&#xe163;" horiz-adv-x="946" 
d="M889 102v-102h-832v102h832zM84 590v100h131v113q0 237 96 352t293 115q54 0 115 -17.5t102 -42.5l-61 -94q-80 51 -158 51q-140 0 -207 -89.5t-67 -276.5v-111h397v-100h-397v-408h-113v408h-131z" />
    <glyph glyph-name="uniE164" unicode="&#xe164;" horiz-adv-x="917" 
d="M459 621h-121l-322 628h125zM573 621h-114l317 628h125zM850 440h-338v-440h-113v440h-336v101h787v-101z" />
    <glyph glyph-name="uniE1F8" unicode="&#xe1f8;" horiz-adv-x="1114" 
d="M158 1001v-753q-55 69 -86 169t-31 208q0 109 31 208t86 168zM690 1270q120 0 228 -37.5t184 -102.5l-74 -75q-138 110 -338 110q-284 0 -444 -225v154q176 176 444 176zM690 84q198 0 338 111l74 -76q-74 -65 -182.5 -102t-229.5 -37q-268 0 -444 176v155
q159 -227 444 -227z" />
    <glyph glyph-name="uniE1F9" unicode="&#xe1f9;" horiz-adv-x="1392" 
d="M1157 182h-151q102 71 159.5 186.5t57.5 256.5q0 235 -150 387.5t-383 152.5q-145 0 -261 -60t-183 -165v154q81 83 195.5 129.5t248.5 46.5q186 0 334.5 -82.5t231.5 -229.5t83 -331q0 -137 -47.5 -255.5t-134.5 -189.5zM688 102h684v-102h-682q-291 0 -444 160v153
q65 -104 180 -157.5t262 -53.5zM158 989v-727q-117 155 -117 365q0 213 117 362z" />
    <glyph glyph-name="uniE1FA" unicode="&#xe1fa;" 
d="M475 1319l137 237h146l-219 -237h-64zM451 1155l57 139l547 -1294h-119l-125 299h-512l43 100h424zM406 1051l57 -136l-383 -915h-117z" />
    <glyph glyph-name="uniE1FB" unicode="&#xe1fb;" 
d="M451 1157l57 137l547 -1294h-119zM408 1051l55 -133l-215 -519h426l43 -100h-510l-127 -299h-117zM475 1319l137 237h146l-219 -237h-64z" />
    <glyph glyph-name="uniE1FC" unicode="&#xe1fc;" 
d="M508 1294l344 -817h-117l-284 678zM406 1051l57 -136l-383 -915h-117zM346 399h541l168 -399h-119l-127 299h-502zM475 1319l137 237h146l-219 -237h-64z" />
    <glyph glyph-name="uniE1FD" unicode="&#xe1fd;" 
d="M506 1343q-106 0 -173.5 66t-76.5 176h72q7 -76 56 -121t124 -45t122.5 44.5t55.5 121.5h72q-9 -110 -77.5 -176t-174.5 -66zM451 1155l57 139l547 -1294h-119l-125 299h-512l43 100h424zM406 1051l57 -136l-383 -915h-117z" />
    <glyph glyph-name="uniE1FE" unicode="&#xe1fe;" 
d="M506 1343q-106 0 -173.5 66t-76.5 176h72q7 -76 56 -121t124 -45t122.5 44.5t55.5 121.5h72q-9 -110 -77.5 -176t-174.5 -66zM451 1157l57 137l547 -1294h-119zM408 1051l55 -133l-215 -519h426l43 -100h-510l-127 -299h-117z" />
    <glyph glyph-name="uniE1FF" unicode="&#xe1ff;" 
d="M506 1343q-106 0 -173.5 66t-76.5 176h72q7 -76 56 -121t124 -45t122.5 44.5t55.5 121.5h72q-9 -110 -77.5 -176t-174.5 -66zM508 1294l344 -817h-117l-284 678zM406 1051l57 -136l-383 -915h-117zM346 399h541l168 -399h-119l-127 299h-502z" />
    <glyph glyph-name="uniE200" unicode="&#xe200;" 
d="M256 1319l193 266h118l193 -266h-64l-188 197l-189 -197h-63zM451 1155l57 139l547 -1294h-119l-125 299h-512l43 100h424zM406 1051l57 -136l-383 -915h-117z" />
    <glyph glyph-name="uniE201" unicode="&#xe201;" 
d="M451 1157l57 137l547 -1294h-119zM408 1051l55 -133l-215 -519h426l43 -100h-510l-127 -299h-117zM256 1319l193 266h118l193 -266h-64l-188 197l-189 -197h-63z" />
    <glyph glyph-name="uniE202" unicode="&#xe202;" 
d="M508 1294l344 -817h-117l-284 678zM406 1051l57 -136l-383 -915h-117zM346 399h541l168 -399h-119l-127 299h-502zM256 1319l193 266h118l193 -266h-64l-188 197l-189 -197h-63z" />
    <glyph glyph-name="uniE203" unicode="&#xe203;" 
d="M737 1454q0 -31 -20.5 -52.5t-50.5 -21.5q-31 0 -52.5 21.5t-21.5 52.5t21.5 51.5t52.5 20.5t51 -20.5t20 -51.5zM424 1454q0 -31 -20.5 -52.5t-51.5 -21.5t-52 21.5t-21 52.5t21 51.5t52 20.5t51.5 -20.5t20.5 -51.5zM451 1155l57 139l547 -1294h-119l-125 299h-512
l43 100h424zM406 1051l57 -136l-383 -915h-117z" />
    <glyph glyph-name="uniE204" unicode="&#xe204;" 
d="M451 1157l57 137l547 -1294h-119zM408 1051l55 -133l-215 -519h426l43 -100h-510l-127 -299h-117zM737 1454q0 -31 -20.5 -52.5t-50.5 -21.5q-31 0 -52.5 21.5t-21.5 52.5t21.5 51.5t52.5 20.5t51 -20.5t20 -51.5zM424 1454q0 -31 -20.5 -52.5t-51.5 -21.5t-52 21.5
t-21 52.5t21 51.5t52 20.5t51.5 -20.5t20.5 -51.5z" />
    <glyph glyph-name="uniE205" unicode="&#xe205;" 
d="M508 1294l344 -817h-117l-284 678zM406 1051l57 -136l-383 -915h-117zM346 399h541l168 -399h-119l-127 299h-502zM737 1454q0 -31 -20.5 -52.5t-50.5 -21.5q-31 0 -52.5 21.5t-21.5 52.5t21.5 51.5t52.5 20.5t51 -20.5t20 -51.5zM424 1454q0 -31 -20.5 -52.5
t-51.5 -21.5t-52 21.5t-21 52.5t21 51.5t52 20.5t51.5 -20.5t20.5 -51.5z" />
    <glyph glyph-name="uniE206" unicode="&#xe206;" 
d="M475 1319l-219 237h145l138 -237h-64zM451 1155l57 139l547 -1294h-119l-125 299h-512l43 100h424zM406 1051l57 -136l-383 -915h-117z" />
    <glyph glyph-name="uniE207" unicode="&#xe207;" 
d="M475 1319l-219 237h145l138 -237h-64zM451 1157l57 137l547 -1294h-119zM408 1051l55 -133l-215 -519h426l43 -100h-510l-127 -299h-117z" />
    <glyph glyph-name="uniE208" unicode="&#xe208;" 
d="M475 1319l-219 237h145l138 -237h-64zM508 1294l344 -817h-117l-284 678zM406 1051l57 -136l-383 -915h-117zM346 399h541l168 -399h-119l-127 299h-502z" />
    <glyph glyph-name="uniE209" unicode="&#xe209;" 
d="M285 1391v79h448v-79h-448zM451 1155l57 139l547 -1294h-119l-125 299h-512l43 100h424zM406 1051l57 -136l-383 -915h-117z" />
    <glyph glyph-name="uniE20A" unicode="&#xe20a;" 
d="M285 1391v79h448v-79h-448zM451 1157l57 137l547 -1294h-119zM408 1051l55 -133l-215 -519h426l43 -100h-510l-127 -299h-117z" />
    <glyph glyph-name="uniE20B" unicode="&#xe20b;" 
d="M285 1391v79h448v-79h-448zM508 1294l344 -817h-117l-284 678zM406 1051l57 -136l-383 -915h-117zM346 399h541l168 -399h-119l-127 299h-502z" />
    <glyph glyph-name="uniE20C" unicode="&#xe20c;" 
d="M1004 -369q-85 0 -135 40t-50 104q0 62 62 135l69 90h97l-82 -100q-31 -38 -42.5 -62.5t-11.5 -52.5q0 -33 27 -55.5t72 -22.5h80l14 -76h-100zM451 1155l57 139l547 -1294h-119l-125 299h-512l43 100h424zM406 1051l57 -136l-383 -915h-117z" />
    <glyph glyph-name="uniE20D" unicode="&#xe20d;" 
d="M1004 -369q-85 0 -135 40t-50 104q0 62 62 135l69 90h97l-82 -100q-31 -38 -42.5 -62.5t-11.5 -52.5q0 -33 27 -55.5t72 -22.5h80l14 -76h-100zM451 1157l57 137l547 -1294h-119zM408 1051l55 -133l-215 -519h426l43 -100h-510l-127 -299h-117z" />
    <glyph glyph-name="uniE20E" unicode="&#xe20e;" 
d="M1004 -369q-85 0 -135 40t-50 104q0 62 62 135l69 90h97l-82 -100q-31 -38 -42.5 -62.5t-11.5 -52.5q0 -33 27 -55.5t72 -22.5h80l14 -76h-100zM508 1294l344 -817h-117l-284 678zM406 1051l57 -136l-383 -915h-117zM346 399h541l168 -399h-119l-127 299h-502z" />
    <glyph glyph-name="uniE20F" unicode="&#xe20f;" 
d="M463 1319q-73 15 -122.5 74t-49.5 137q0 93 63 156t154 63t154 -63t63 -156q0 -79 -50 -138t-124 -73v70q44 13 72 53t28 88q0 65 -41 108t-102 43t-102 -43t-41 -108q0 -47 27.5 -87.5t70.5 -53.5v-70zM451 1155l57 139l547 -1294h-119l-125 299h-512l43 100h424z
M406 1051l57 -136l-383 -915h-117z" />
    <glyph glyph-name="uniE210" unicode="&#xe210;" 
d="M451 1157l57 137l547 -1294h-119zM408 1051l55 -133l-215 -519h426l43 -100h-510l-127 -299h-117zM463 1319q-73 15 -122.5 74t-49.5 137q0 93 63 156t154 63t154 -63t63 -156q0 -79 -50 -138t-124 -73v70q44 13 72 53t28 88q0 65 -41 108t-102 43t-102 -43t-41 -108
q0 -47 27.5 -87.5t70.5 -53.5v-70z" />
    <glyph glyph-name="uniE211" unicode="&#xe211;" 
d="M463 1319q-73 15 -122.5 74t-49.5 137q0 93 63 156t154 63t154 -63t63 -156q0 -79 -50 -138t-124 -73v70q44 13 72 53t28 88q0 65 -41 108t-102 43t-102 -43t-41 -108q0 -47 27.5 -87.5t70.5 -53.5v-70zM508 1294l344 -817h-117l-284 678zM406 1051l57 -136l-383 -915
h-117zM346 399h541l168 -399h-119l-127 299h-502z" />
    <glyph glyph-name="uniE212" unicode="&#xe212;" 
d="M645 1370q-43 0 -85 18.5t-70 41t-63 41t-65 18.5q-43 0 -68.5 -27t-25.5 -76h-71q0 86 48.5 133.5t119.5 47.5q41 0 82.5 -18.5t69.5 -41t63.5 -41t66.5 -18.5q44 0 69 27t25 77h72q0 -87 -49 -134.5t-119 -47.5zM451 1155l57 139l547 -1294h-119l-125 299h-512l43 100
h424zM406 1051l57 -136l-383 -915h-117z" />
    <glyph glyph-name="uniE213" unicode="&#xe213;" 
d="M645 1370q-43 0 -85 18.5t-70 41t-63 41t-65 18.5q-43 0 -68.5 -27t-25.5 -76h-71q0 86 48.5 133.5t119.5 47.5q41 0 82.5 -18.5t69.5 -41t63.5 -41t66.5 -18.5q44 0 69 27t25 77h72q0 -87 -49 -134.5t-119 -47.5zM451 1157l57 137l547 -1294h-119zM408 1051l55 -133
l-215 -519h426l43 -100h-510l-127 -299h-117z" />
    <glyph glyph-name="uniE214" unicode="&#xe214;" 
d="M645 1370q-43 0 -85 18.5t-70 41t-63 41t-65 18.5q-43 0 -68.5 -27t-25.5 -76h-71q0 86 48.5 133.5t119.5 47.5q41 0 82.5 -18.5t69.5 -41t63.5 -41t66.5 -18.5q44 0 69 27t25 77h72q0 -87 -49 -134.5t-119 -47.5zM508 1294l344 -817h-117l-284 678zM406 1051l57 -136
l-383 -915h-117zM346 399h541l168 -399h-119l-127 299h-502z" />
    <glyph glyph-name="uniE215" unicode="&#xe215;" horiz-adv-x="1114" 
d="M276 268l-79 -78q-156 180 -156 433q0 254 156 434l77 -80q-116 -140 -116 -354q0 -212 118 -355zM338 1040l-80 78q179 152 432 152q120 0 228 -37.5t184 -102.5l-74 -75q-138 110 -338 110q-211 0 -352 -125zM264 127l76 76q141 -119 350 -119q198 0 338 111l74 -76
q-74 -65 -182.5 -102t-229.5 -37q-252 0 -426 147zM655 1319l138 237h145l-219 -237h-64z" />
    <glyph glyph-name="uniE216" unicode="&#xe216;" horiz-adv-x="882" 
d="M158 666h-117q14 259 181.5 421t434.5 162h191v-102h-189q-220 0 -355 -132.5t-146 -348.5zM41 586h117q11 -218 146 -351t355 -133h189v-102h-191q-267 0 -434.5 162t-181.5 424zM596 1319l137 237h146l-220 -237h-63z" />
    <glyph glyph-name="uniE217" unicode="&#xe217;" horiz-adv-x="1114" 
d="M158 1001v-753q-55 69 -86 169t-31 208q0 109 31 208t86 168zM690 1270q120 0 228 -37.5t184 -102.5l-74 -75q-138 110 -338 110q-284 0 -444 -225v154q176 176 444 176zM690 84q198 0 338 111l74 -76q-74 -65 -182.5 -102t-229.5 -37q-268 0 -444 176v155
q159 -227 444 -227zM655 1319l138 237h145l-219 -237h-64z" />
    <glyph glyph-name="uniE218" unicode="&#xe218;" horiz-adv-x="1114" 
d="M276 268l-79 -78q-156 180 -156 433q0 254 156 434l77 -80q-116 -140 -116 -354q0 -212 118 -355zM338 1040l-80 78q179 152 432 152q120 0 228 -37.5t184 -102.5l-74 -75q-138 110 -338 110q-211 0 -352 -125zM264 127l76 76q141 -119 350 -119q198 0 338 111l74 -76
q-74 -65 -182.5 -102t-229.5 -37q-252 0 -426 147zM629 1319l-193 266h64l188 -196l189 196h63l-192 -266h-119z" />
    <glyph glyph-name="uniE219" unicode="&#xe219;" horiz-adv-x="884" 
d="M158 666h-117q14 259 181.5 421t434.5 162h191v-102h-189q-220 0 -355 -132.5t-146 -348.5zM41 586h117q11 -218 146 -351t355 -133h189v-102h-191q-267 0 -434.5 162t-181.5 424zM571 1319l-192 266h63l189 -196l188 196h64l-193 -266h-119z" />
    <glyph glyph-name="uniE21A" unicode="&#xe21a;" horiz-adv-x="1114" 
d="M158 1001v-753q-55 69 -86 169t-31 208q0 109 31 208t86 168zM690 1270q120 0 228 -37.5t184 -102.5l-74 -75q-138 110 -338 110q-284 0 -444 -225v154q176 176 444 176zM690 84q198 0 338 111l74 -76q-74 -65 -182.5 -102t-229.5 -37q-268 0 -444 176v155
q159 -227 444 -227zM629 1319l-193 266h64l188 -196l189 196h63l-192 -266h-119z" />
    <glyph glyph-name="uniE21B" unicode="&#xe21b;" horiz-adv-x="1114" 
d="M276 268l-79 -78q-156 180 -156 433q0 254 156 434l77 -80q-116 -140 -116 -354q0 -212 118 -355zM338 1040l-80 78q179 152 432 152q120 0 228 -37.5t184 -102.5l-74 -75q-138 110 -338 110q-211 0 -352 -125zM264 127l76 76q141 -119 350 -119q198 0 338 111l74 -76
q-74 -65 -182.5 -102t-229.5 -37q-252 0 -426 147zM545 -342l92 266h117l-154 -266h-55z" />
    <glyph glyph-name="uniE21C" unicode="&#xe21c;" horiz-adv-x="884" 
d="M487 -342l93 266h116l-153 -266h-56zM158 666h-117q14 259 181.5 421t434.5 162h191v-102h-189q-220 0 -355 -132.5t-146 -348.5zM41 586h117q11 -218 146 -351t355 -133h189v-102h-191q-267 0 -434.5 162t-181.5 424z" />
    <glyph glyph-name="uniE21D" unicode="&#xe21d;" horiz-adv-x="1114" 
d="M545 -342l92 266h117l-154 -266h-55zM158 1001v-753q-55 69 -86 169t-31 208q0 109 31 208t86 168zM690 1270q120 0 228 -37.5t184 -102.5l-74 -75q-138 110 -338 110q-284 0 -444 -225v154q176 176 444 176zM690 84q198 0 338 111l74 -76q-74 -65 -182.5 -102
t-229.5 -37q-268 0 -444 176v155q159 -227 444 -227z" />
    <glyph glyph-name="uniE21E" unicode="&#xe21e;" horiz-adv-x="1114" 
d="M276 268l-79 -78q-156 180 -156 433q0 254 156 434l77 -80q-116 -140 -116 -354q0 -212 118 -355zM338 1040l-80 78q179 152 432 152q120 0 228 -37.5t184 -102.5l-74 -75q-138 110 -338 110q-211 0 -352 -125zM264 127l76 76q141 -119 350 -119q198 0 338 111l74 -76
q-74 -65 -182.5 -102t-229.5 -37q-252 0 -426 147zM436 1319l193 266h119l192 -266h-63l-189 197l-188 -197h-64z" />
    <glyph glyph-name="uniE21F" unicode="&#xe21f;" horiz-adv-x="884" 
d="M158 666h-117q14 259 181.5 421t434.5 162h191v-102h-189q-220 0 -355 -132.5t-146 -348.5zM41 586h117q11 -218 146 -351t355 -133h189v-102h-191q-267 0 -434.5 162t-181.5 424zM377 1319l192 266h119l193 -266h-64l-188 197l-189 -197h-63z" />
    <glyph glyph-name="uniE220" unicode="&#xe220;" horiz-adv-x="1114" 
d="M158 1001v-753q-55 69 -86 169t-31 208q0 109 31 208t86 168zM690 1270q120 0 228 -37.5t184 -102.5l-74 -75q-138 110 -338 110q-284 0 -444 -225v154q176 176 444 176zM690 84q198 0 338 111l74 -76q-74 -65 -182.5 -102t-229.5 -37q-268 0 -444 176v155
q159 -227 444 -227zM434 1319l193 266h118l193 -266h-64l-188 197l-188 -197h-64z" />
    <glyph glyph-name="uniE221" unicode="&#xe221;" horiz-adv-x="1114" 
d="M688 1382q-31 0 -52.5 20.5t-21.5 51.5q0 32 21.5 53t52.5 21q32 0 53 -21t21 -53q0 -31 -21 -51.5t-53 -20.5zM276 268l-79 -78q-156 180 -156 433q0 254 156 434l77 -80q-116 -140 -116 -354q0 -212 118 -355zM338 1040l-80 78q179 152 432 152q120 0 228 -37.5
t184 -102.5l-74 -75q-138 110 -338 110q-211 0 -352 -125zM264 127l76 76q141 -119 350 -119q198 0 338 111l74 -76q-74 -65 -182.5 -102t-229.5 -37q-252 0 -426 147z" />
    <glyph glyph-name="uniE222" unicode="&#xe222;" horiz-adv-x="884" 
d="M629 1382q-31 0 -52.5 20.5t-21.5 51.5q0 32 21.5 53t52.5 21q32 0 52.5 -21t20.5 -53q0 -31 -20.5 -51.5t-52.5 -20.5zM158 666h-117q14 259 181.5 421t434.5 162h191v-102h-189q-220 0 -355 -132.5t-146 -348.5zM41 586h117q11 -218 146 -351t355 -133h189v-102h-191
q-267 0 -434.5 162t-181.5 424z" />
    <glyph glyph-name="uniE223" unicode="&#xe223;" horiz-adv-x="1114" 
d="M688 1382q-31 0 -52.5 20.5t-21.5 51.5q0 32 21.5 53t52.5 21q32 0 53 -21t21 -53q0 -31 -21 -51.5t-53 -20.5zM158 1001v-753q-55 69 -86 169t-31 208q0 109 31 208t86 168zM690 1270q120 0 228 -37.5t184 -102.5l-74 -75q-138 110 -338 110q-284 0 -444 -225v154
q176 176 444 176zM690 84q198 0 338 111l74 -76q-74 -65 -182.5 -102t-229.5 -37q-268 0 -444 176v155q159 -227 444 -227z" />
    <glyph glyph-name="uniE224" unicode="&#xe224;" horiz-adv-x="1171" 
d="M487 0h-151v102h151q232 0 380.5 147t148.5 376q0 230 -149.5 376t-381.5 146h-350v102h350q185 0 332.5 -79.5t230 -222t82.5 -322.5q0 -273 -181.5 -449t-461.5 -176zM248 0h-113v1067h113v-1067zM440 1319l-192 266h63l189 -196l188 196h64l-193 -266h-119z" />
    <glyph glyph-name="uniE225" unicode="&#xe225;" horiz-adv-x="1171" 
d="M440 1319l-192 266h63l189 -196l188 196h64l-193 -266h-119zM1130 666h-116q-14 213 -160 347t-367 134h-151v102h151q270 0 449.5 -163t193.5 -420zM248 182h-113v1067h113v-1067zM485 102q222 0 369.5 135t159.5 349h116q-9 -171 -93.5 -304.5t-228.5 -207.5t-323 -74
h-350v102h350z" />
    <glyph glyph-name="uniE226" unicode="&#xe226;" horiz-adv-x="1171" 
d="M485 0h-350v102h350q233 0 382 147t149 376q0 230 -149.5 376t-379.5 146h-151v102h151q280 0 461.5 -175.5t181.5 -448.5q0 -180 -82.5 -323t-230 -222.5t-332.5 -79.5zM248 182h-113v1067h113v-1067zM440 1319l-192 266h63l189 -196l188 196h64l-193 -266h-119z" />
    <glyph glyph-name="uniE227" unicode="&#xe227;" horiz-adv-x="874" 
d="M336 1147v102h434v-102h-434zM248 0h-113v1249h113v-571h483v-103h-483v-575zM336 0v102h434v-102h-434zM424 1319l137 237h146l-220 -237h-63z" />
    <glyph glyph-name="uniE228" unicode="&#xe228;" horiz-adv-x="868" 
d="M248 758h-113v491h629v-102h-516v-389zM135 575v103h590v-103h-590zM135 496h113v-394h516v-102h-629v496zM424 1319l137 237h146l-220 -237h-63z" />
    <glyph glyph-name="uniE229" unicode="&#xe229;" horiz-adv-x="874" 
d="M336 1147v102h434v-102h-434zM135 575v674h113v-571h483v-103h-596zM248 496v-394h522v-102h-635v496h113zM424 1319l137 237h146l-220 -237h-63z" />
    <glyph glyph-name="uniE22A" unicode="&#xe22a;" horiz-adv-x="874" 
d="M457 1343q-106 0 -173.5 66t-76.5 176h72q7 -76 56 -121t124 -45t122.5 44.5t55.5 121.5h72q-9 -110 -77.5 -176t-174.5 -66zM336 1147v102h434v-102h-434zM248 0h-113v1249h113v-571h483v-103h-483v-575zM336 0v102h434v-102h-434z" />
    <glyph glyph-name="uniE22B" unicode="&#xe22b;" horiz-adv-x="868" 
d="M457 1343q-106 0 -173.5 66t-76.5 176h72q7 -76 56 -121t124 -45t122.5 44.5t55.5 121.5h72q-9 -110 -77.5 -176t-174.5 -66zM248 758h-113v491h629v-102h-516v-389zM135 575v103h590v-103h-590zM135 496h113v-394h516v-102h-629v496z" />
    <glyph glyph-name="uniE22C" unicode="&#xe22c;" horiz-adv-x="874" 
d="M457 1343q-106 0 -173.5 66t-76.5 176h72q7 -76 56 -121t124 -45t122.5 44.5t55.5 121.5h72q-9 -110 -77.5 -176t-174.5 -66zM336 1147v102h434v-102h-434zM135 575v674h113v-571h483v-103h-596zM248 496v-394h522v-102h-635v496h113z" />
    <glyph glyph-name="uniE22D" unicode="&#xe22d;" horiz-adv-x="874" 
d="M336 1147v102h434v-102h-434zM248 0h-113v1249h113v-571h483v-103h-483v-575zM336 0v102h434v-102h-434zM399 1319l-192 266h63l189 -196l188 196h64l-193 -266h-119z" />
    <glyph glyph-name="uniE22E" unicode="&#xe22e;" horiz-adv-x="868" 
d="M248 758h-113v491h629v-102h-516v-389zM135 575v103h590v-103h-590zM135 496h113v-394h516v-102h-629v496zM399 1319l-192 266h63l189 -196l188 196h64l-193 -266h-119z" />
    <glyph glyph-name="uniE22F" unicode="&#xe22f;" horiz-adv-x="874" 
d="M336 1147v102h434v-102h-434zM135 575v674h113v-571h483v-103h-596zM248 496v-394h522v-102h-635v496h113zM399 1319l-192 266h63l189 -196l188 196h64l-193 -266h-119z" />
    <glyph glyph-name="uniE230" unicode="&#xe230;" horiz-adv-x="874" 
d="M336 1147v102h434v-102h-434zM248 0h-113v1249h113v-571h483v-103h-483v-575zM336 0v102h434v-102h-434zM205 1319l192 266h119l193 -266h-64l-188 197l-189 -197h-63z" />
    <glyph glyph-name="uniE231" unicode="&#xe231;" horiz-adv-x="868" 
d="M248 758h-113v491h629v-102h-516v-389zM135 575v103h590v-103h-590zM135 496h113v-394h516v-102h-629v496zM205 1319l192 266h119l193 -266h-64l-188 197l-189 -197h-63z" />
    <glyph glyph-name="uniE232" unicode="&#xe232;" horiz-adv-x="874" 
d="M336 1147v102h434v-102h-434zM135 575v674h113v-571h483v-103h-596zM248 496v-394h522v-102h-635v496h113zM205 1319l192 266h119l193 -266h-64l-188 197l-189 -197h-63z" />
    <glyph glyph-name="uniE233" unicode="&#xe233;" horiz-adv-x="874" 
d="M336 1147v102h434v-102h-434zM248 0h-113v1249h113v-571h483v-103h-483v-575zM336 0v102h434v-102h-434zM686 1454q0 -31 -20.5 -52.5t-51.5 -21.5t-52 21.5t-21 52.5t21 51.5t52 20.5t51.5 -20.5t20.5 -51.5zM373 1454q0 -31 -20.5 -52.5t-51.5 -21.5t-52.5 21.5
t-21.5 52.5t21.5 51.5t52.5 20.5t51.5 -20.5t20.5 -51.5z" />
    <glyph glyph-name="uniE234" unicode="&#xe234;" horiz-adv-x="868" 
d="M248 758h-113v491h629v-102h-516v-389zM135 575v103h590v-103h-590zM135 496h113v-394h516v-102h-629v496zM686 1454q0 -31 -20.5 -52.5t-51.5 -21.5t-52 21.5t-21 52.5t21 51.5t52 20.5t51.5 -20.5t20.5 -51.5zM373 1454q0 -31 -20.5 -52.5t-51.5 -21.5t-52.5 21.5
t-21.5 52.5t21.5 51.5t52.5 20.5t51.5 -20.5t20.5 -51.5z" />
    <glyph glyph-name="uniE235" unicode="&#xe235;" horiz-adv-x="874" 
d="M336 1147v102h434v-102h-434zM135 575v674h113v-571h483v-103h-596zM248 496v-394h522v-102h-635v496h113zM686 1454q0 -31 -20.5 -52.5t-51.5 -21.5t-52 21.5t-21 52.5t21 51.5t52 20.5t51.5 -20.5t20.5 -51.5zM373 1454q0 -31 -20.5 -52.5t-51.5 -21.5t-52.5 21.5
t-21.5 52.5t21.5 51.5t52.5 20.5t51.5 -20.5t20.5 -51.5z" />
    <glyph glyph-name="uniE236" unicode="&#xe236;" horiz-adv-x="874" 
d="M457 1382q-31 0 -52.5 20.5t-21.5 51.5q0 32 21.5 53t52.5 21q32 0 52.5 -21t20.5 -53q0 -31 -20.5 -51.5t-52.5 -20.5zM336 1147v102h434v-102h-434zM248 0h-113v1249h113v-571h483v-103h-483v-575zM336 0v102h434v-102h-434z" />
    <glyph glyph-name="uniE237" unicode="&#xe237;" horiz-adv-x="868" 
d="M248 758h-113v491h629v-102h-516v-389zM135 575v103h590v-103h-590zM135 496h113v-394h516v-102h-629v496zM457 1382q-31 0 -52.5 20.5t-21.5 51.5q0 32 21.5 53t52.5 21q32 0 52.5 -21t20.5 -53q0 -31 -20.5 -51.5t-52.5 -20.5z" />
    <glyph glyph-name="uniE238" unicode="&#xe238;" horiz-adv-x="874" 
d="M457 1382q-31 0 -52.5 20.5t-21.5 51.5q0 32 21.5 53t52.5 21q32 0 52.5 -21t20.5 -53q0 -31 -20.5 -51.5t-52.5 -20.5zM336 1147v102h434v-102h-434zM135 575v674h113v-571h483v-103h-596zM248 496v-394h522v-102h-635v496h113z" />
    <glyph glyph-name="uniE239" unicode="&#xe239;" horiz-adv-x="874" 
d="M424 1319l-219 237h145l137 -237h-63zM336 1147v102h434v-102h-434zM248 0h-113v1249h113v-571h483v-103h-483v-575zM336 0v102h434v-102h-434z" />
    <glyph glyph-name="uniE23A" unicode="&#xe23a;" horiz-adv-x="868" 
d="M248 758h-113v491h629v-102h-516v-389zM135 575v103h590v-103h-590zM135 496h113v-394h516v-102h-629v496zM424 1319l-219 237h145l137 -237h-63z" />
    <glyph glyph-name="uniE23B" unicode="&#xe23b;" horiz-adv-x="874" 
d="M424 1319l-219 237h145l137 -237h-63zM336 1147v102h434v-102h-434zM135 575v674h113v-571h483v-103h-596zM248 496v-394h522v-102h-635v496h113z" />
    <glyph glyph-name="uniE23C" unicode="&#xe23c;" horiz-adv-x="874" 
d="M233 1391v79h449v-79h-449zM336 1147v102h434v-102h-434zM248 0h-113v1249h113v-571h483v-103h-483v-575zM336 0v102h434v-102h-434z" />
    <glyph glyph-name="uniE23D" unicode="&#xe23d;" horiz-adv-x="868" 
d="M248 758h-113v491h629v-102h-516v-389zM135 575v103h590v-103h-590zM135 496h113v-394h516v-102h-629v496zM233 1391v79h449v-79h-449z" />
    <glyph glyph-name="uniE23E" unicode="&#xe23e;" horiz-adv-x="874" 
d="M336 1147v102h434v-102h-434zM135 575v674h113v-571h483v-103h-596zM248 496v-394h522v-102h-635v496h113zM233 1391v79h449v-79h-449z" />
    <glyph glyph-name="uniE23F" unicode="&#xe23f;" horiz-adv-x="874" 
d="M336 1147v102h434v-102h-434zM248 0h-113v1249h113v-571h483v-103h-483v-575zM336 0v102h434v-102h-434zM604 -369q-85 0 -134.5 40t-49.5 104q0 63 61 135l70 90h96l-82 -100q-31 -38 -42 -62.5t-11 -52.5q0 -33 26.5 -55.5t71.5 -22.5h80l15 -76h-101z" />
    <glyph glyph-name="uniE240" unicode="&#xe240;" horiz-adv-x="868" 
d="M248 758h-113v491h629v-102h-516v-389zM135 575v103h590v-103h-590zM135 496h113v-394h516v-102h-629v496zM598 -369q-85 0 -134.5 40t-49.5 104q0 63 61 135l70 90h96l-82 -100q-31 -38 -42 -62.5t-11 -52.5q0 -33 26.5 -55.5t71.5 -22.5h80l14 -76h-100z" />
    <glyph glyph-name="uniE241" unicode="&#xe241;" horiz-adv-x="874" 
d="M336 1147v102h434v-102h-434zM135 575v674h113v-571h483v-103h-596zM248 496v-394h522v-102h-635v496h113zM598 -369q-85 0 -134.5 40t-49.5 104q0 63 61 135l70 90h96l-82 -100q-31 -38 -42 -62.5t-11 -52.5q0 -33 26.5 -55.5t71.5 -22.5h80l14 -76h-100z" />
    </font>
</defs>
</svg>
